SplineFontDB: 3.2
FontName: IRMitra-Italic
FullName: IRMitra-Italic
FamilyName: IRMitra
Weight: Book
Copyright: Copyright (c) 2022, Information Technology Organization of Iran (ito.gov.ir)
Version: 1.000
ItalicAngle: 0
UnderlinePosition: -730
UnderlineWidth: 60
Ascent: 1638
Descent: 410
InvalidEm: 0
sfntRevision: 0x00010000
LayerCount: 2
Layer: 0 1 "Back" 1
Layer: 1 1 "Fore" 0
XUID: [1021 420 722297922 173926]
StyleMap: 0x0001
FSType: 0
OS2Version: 3
OS2_WeightWidthSlopeOnly: 0
OS2_UseTypoMetrics: 0
CreationTime: 1356343775
ModificationTime: 1662628517
PfmFamily: 17
TTFWeight: 400
TTFWidth: 5
LineGap: 100
VLineGap: 0
Panose: 2 0 5 6 0 0 0 9 0 2
OS2TypoAscent: 1896
OS2TypoAOffset: 0
OS2TypoDescent: -959
OS2TypoDOffset: 0
OS2TypoLinegap: 300
OS2WinAscent: 1896
OS2WinAOffset: 0
OS2WinDescent: 959
OS2WinDOffset: 0
HheadAscent: 1896
HheadAOffset: 0
HheadDescent: -959
HheadDOffset: 0
OS2SubXSize: 1434
OS2SubYSize: 1331
OS2SubXOff: 0
OS2SubYOff: 293
OS2SupXSize: 1434
OS2SupYSize: 1331
OS2SupXOff: 0
OS2SupYOff: 928
OS2StrikeYSize: 50
OS2StrikeYPos: 250
OS2CapHeight: -1
OS2XHeight: -1
OS2FamilyClass: 2048
OS2Vendor: 'PARS'
OS2CodePages: 200101ff.20280000
OS2UnicodeRanges: 61002a87.80000000.00000008.00000000
Lookup: 1 1 0 "'isol' Isolated Forms in Arabic lookup 0" { "'isol' Isolated Forms in Arabic lookup 0 subtable"  } ['isol' ('arab' <'dflt' > ) ]
Lookup: 1 1 0 "'init' Initial Forms in Arabic lookup 1" { "'init' Initial Forms in Arabic lookup 1 subtable"  } ['init' ('arab' <'dflt' > ) ]
Lookup: 1 1 0 "'medi' Medial Forms in Arabic lookup 2" { "'medi' Medial Forms in Arabic lookup 2 subtable"  } ['medi' ('arab' <'dflt' > ) ]
Lookup: 1 1 0 "'fina' Terminal Forms in Arabic lookup 3" { "'fina' Terminal Forms in Arabic lookup 3 subtable"  } ['fina' ('arab' <'dflt' > ) ]
Lookup: 4 1 0 "'ccmp' Glyph Composition/Decomposition in Arabic lookup 4" { "'ccmp' Glyph Composition/Decomposition in Arabic lookup 4 subtable"  } ['ccmp' ('arab' <'dflt' > ) ]

StartChar: quotedbl
Encoding: 34 34 1
Width: 422
Flags: W
LayerCount: 2
Fore
SplineSet
-179 1166 m 1,0,-1
 -89 1166 l 1,1,-1
 -48 883 l 1,2,-1
 -108 883 l 1,3,-1
 -179 1166 l 1,0,-1
8 1166 m 1,4,-1
 97 1166 l 1,5,-1
 137 883 l 1,6,-1
 78 883 l 1,7,-1
 8 1166 l 1,4,-1
EndSplineSet
EndChar

StartChar: numbersign
Encoding: 35 35 2
Width: 1259
Flags: W
LayerCount: 2
Fore
SplineSet
1306 787 m 1,0,-1
 1058 787 l 1,1,-1
 912 470 l 1,2,-1
 1140 470 l 1,3,-1
 1115 356 l 1,4,-1
 858 356 l 1,5,-1
 695 0 l 1,6,-1
 586 0 l 1,7,-1
 750 356 l 1,8,-1
 522 356 l 1,9,-1
 358 0 l 1,10,-1
 250 0 l 1,11,-1
 413 356 l 1,12,-1
 196 356 l 1,13,-1
 220 470 l 1,14,-1
 467 470 l 1,15,-1
 612 787 l 1,16,-1
 385 787 l 1,17,-1
 409 902 l 1,18,-1
 666 902 l 1,19,-1
 832 1258 l 1,20,-1
 940 1258 l 1,21,-1
 775 902 l 1,22,-1
 1003 902 l 1,23,-1
 1168 1258 l 1,24,-1
 1277 1258 l 1,25,-1
 1112 902 l 1,26,-1
 1330 902 l 1,27,-1
 1306 787 l 1,0,-1
952 788 m 1,28,-1
 720 788 l 1,29,-1
 574 468 l 1,30,-1
 805 468 l 1,31,-1
 952 788 l 1,28,-1
EndSplineSet
EndChar

StartChar: dollar
Encoding: 36 36 3
Width: 944
Flags: W
LayerCount: 2
Fore
SplineSet
932 322 m 0,0,1
 906 197 906 197 792 108 c 128,-1,2
 678 19 678 19 530 1 c 1,3,-1
 464 -305 l 1,4,-1
 368 -305 l 1,5,-1
 433 -4 l 1,6,7
 342 -2 342 -2 254 18 c 128,-1,8
 166 38 166 38 104 72 c 1,9,-1
 140 242 l 1,10,-1
 154 242 l 1,11,12
 209 192 209 192 286.5 161 c 128,-1,13
 364 130 364 130 460 121 c 1,14,-1
 536 487 l 1,15,16
 517 492 517 492 488.5 499 c 128,-1,17
 460 506 460 506 440 514 c 0,18,19
 322 547 322 547 281.5 617.5 c 128,-1,20
 241 688 241 688 262 790 c 0,21,22
 288 911 288 911 401 999 c 128,-1,23
 514 1087 514 1087 667 1102 c 1,24,-1
 718 1332 l 1,25,-1
 814 1332 l 1,26,-1
 764 1104 l 1,27,28
 840 1100 840 1100 918.5 1081 c 128,-1,29
 997 1062 997 1062 1045 1040 c 1,30,-1
 1009 872 l 1,31,-1
 997 872 l 1,32,33
 946 913 946 913 881.5 943 c 128,-1,34
 817 973 817 973 738 982 c 1,35,-1
 661 618 l 1,36,37
 689 612 689 612 711 605.5 c 128,-1,38
 733 599 733 599 750 594 c 0,39,40
 859 568 859 568 907.5 501 c 128,-1,41
 956 434 956 434 932 322 c 0,0,1
568 630 m 1,42,-1
 642 980 l 1,43,44
 564 973 564 973 504 930.5 c 128,-1,45
 444 888 444 888 427 812 c 0,46,47
 412 737 412 737 440.5 696 c 128,-1,48
 469 655 469 655 568 630 c 1,42,-1
769 299 m 0,49,50
 786 378 786 378 753 416 c 128,-1,51
 720 454 720 454 630 474 c 1,52,-1
 556 124 l 1,53,54
 644 133 644 133 697.5 175 c 128,-1,55
 751 217 751 217 769 299 c 0,49,50
EndSplineSet
EndChar

StartChar: percent
Encoding: 37 37 4
Width: 1441
Flags: W
LayerCount: 2
Fore
SplineSet
1423 1172 m 1,0,-1
 330 -48 l 1,1,-1
 254 -48 l 1,2,-1
 1348 1172 l 1,3,-1
 1423 1172 l 1,0,-1
554 1172 m 0,4,5
 668 1172 668 1172 711 1077 c 128,-1,6
 754 982 754 982 728 859 c 0,7,8
 697 713 697 713 609.5 632.5 c 128,-1,9
 522 552 522 552 422 552 c 0,10,11
 355 552 355 552 307 589 c 128,-1,12
 259 626 259 626 241.5 698 c 128,-1,13
 224 770 224 770 242 859 c 256,14,15
 260 948 260 948 310.5 1023 c 128,-1,16
 361 1098 361 1098 427 1135 c 128,-1,17
 493 1172 493 1172 554 1172 c 0,4,5
542 1124 m 0,18,19
 499 1124 499 1124 454.5 1074 c 128,-1,20
 410 1024 410 1024 377 860 c 0,21,22
 352 744 352 744 356 682 c 0,23,24
 361 636 361 636 386 611 c 0,25,26
 401 594 401 594 427 594 c 0,27,28
 468 594 468 594 506 638 c 0,29,30
 562 703 562 703 594 856 c 0,31,32
 629 1016 629 1016 601 1081 c 0,33,34
 583 1124 583 1124 542 1124 c 0,18,19
1256 568 m 0,35,36
 1316 568 1316 568 1368 530 c 128,-1,37
 1420 492 1420 492 1436.5 420 c 128,-1,38
 1453 348 1453 348 1435 259 c 0,39,40
 1404 110 1404 110 1315 31 c 128,-1,41
 1226 -48 1226 -48 1128 -48 c 0,42,43
 1067 -48 1067 -48 1016.5 -9.5 c 128,-1,44
 966 29 966 29 948 99.5 c 128,-1,45
 930 170 930 170 949 259 c 256,46,47
 968 348 968 348 1017 422.5 c 128,-1,48
 1066 497 1066 497 1132 532.5 c 128,-1,49
 1198 568 1198 568 1256 568 c 0,35,36
1248 523 m 256,50,51
 1207 523 1207 523 1168 479 c 0,52,53
 1117 419 1117 419 1082 254 c 0,54,55
 1050 103 1050 103 1076 43 c 0,56,57
 1097 0 1097 0 1139 0 c 0,58,59
 1176 0 1176 0 1216 47 c 0,60,61
 1270 108 1270 108 1302 259 c 0,62,63
 1334 418 1334 418 1307 480 c 0,64,65
 1289 523 1289 523 1248 523 c 256,50,51
EndSplineSet
EndChar

StartChar: ampersand
Encoding: 38 38 5
Width: 1345
Flags: W
LayerCount: 2
Fore
SplineSet
1039 737 m 1,0,-1
 1394 737 l 1,1,-1
 1387 707 l 1,2,3
 1312 700 1312 700 1271.5 673.5 c 128,-1,4
 1231 647 1231 647 1128 512.5 c 128,-1,5
 1025 378 1025 378 907 262 c 1,6,7
 964 174 964 174 1015.5 138.5 c 128,-1,8
 1067 103 1067 103 1127 103 c 0,9,10
 1184 103 1184 103 1232 135 c 128,-1,11
 1280 167 1280 167 1310 229 c 1,12,-1
 1337 206 l 1,13,14
 1280 86 1280 86 1198.5 30 c 128,-1,15
 1117 -26 1117 -26 1025 -26 c 0,16,17
 955 -26 955 -26 892 11 c 128,-1,18
 829 48 829 48 763 138 c 1,19,20
 640 46 640 46 548 10 c 128,-1,21
 456 -26 456 -26 360 -26 c 0,22,23
 221 -26 221 -26 155 48 c 128,-1,24
 89 122 89 122 110 226 c 0,25,26
 132 328 132 328 227 430 c 128,-1,27
 322 532 322 532 548 640 c 1,28,29
 528 728 528 728 525.5 784 c 128,-1,30
 523 840 523 840 533 893 c 0,31,32
 564 1037 564 1037 688 1114 c 0,33,34
 782 1172 782 1172 888 1172 c 0,35,36
 989 1172 989 1172 1039.5 1112 c 128,-1,37
 1090 1052 1090 1052 1072 965 c 0,38,39
 1052 876 1052 876 977 809 c 128,-1,40
 902 742 902 742 730 661 c 1,41,42
 796 470 796 470 878 311 c 1,43,44
 1064 488 1064 488 1090 611 c 0,45,46
 1098 648 1098 648 1079 679 c 0,47,48
 1067 702 1067 702 1033 707 c 1,49,-1
 1039 737 l 1,0,-1
712 716 m 1,50,51
 828 766 828 766 893 829.5 c 128,-1,52
 958 893 958 893 974 970 c 0,53,54
 988 1031 988 1031 958.5 1070.5 c 128,-1,55
 929 1110 929 1110 874 1110 c 0,56,57
 799 1110 799 1110 750.5 1059 c 128,-1,58
 702 1008 702 1008 692 959 c 0,59,60
 683 918 683 918 687 866.5 c 128,-1,61
 691 815 691 815 712 716 c 1,50,51
730 188 m 1,62,63
 652 340 652 340 623 410 c 128,-1,64
 594 480 594 480 565 584 c 1,65,66
 451 526 451 526 385.5 455.5 c 128,-1,67
 320 385 320 385 304 304 c 0,68,69
 283 214 283 214 327 145 c 128,-1,70
 371 76 371 76 470 76 c 0,71,72
 523 76 523 76 576.5 97.5 c 128,-1,73
 630 119 630 119 730 188 c 1,62,63
EndSplineSet
EndChar

StartChar: quotesingle
Encoding: 39 39 6
Width: 338
Flags: W
LayerCount: 2
Fore
SplineSet
-122 1166 m 1,0,-1
 -33 1166 l 1,1,-1
 6 883 l 1,2,-1
 -52 883 l 1,3,-1
 -122 1166 l 1,0,-1
EndSplineSet
EndChar

StartChar: asterisk
Encoding: 42 42 7
Width: 681
Flags: W
LayerCount: 2
Fore
SplineSet
511 627 m 1,0,-1
 484 501 l 2,1,2
 481 488 481 488 472.5 479.5 c 128,-1,3
 464 471 464 471 451 471 c 2,4,-1
 406 471 l 2,5,6
 399 471 399 471 391.5 479.5 c 128,-1,7
 384 488 384 488 386 501 c 2,8,-1
 414 627 l 1,9,-1
 309 539 l 1,10,11
 281 523 281 523 259 539 c 1,12,-1
 238 568 l 2,13,14
 225 588 225 588 252 611 c 2,15,-1
 360 701 l 1,16,-1
 233 701 l 2,17,18
 221 701 221 701 211.5 709 c 128,-1,19
 202 717 202 717 205 731 c 2,20,-1
 215 775 l 2,21,22
 216 784 216 784 229 792 c 128,-1,23
 242 800 242 800 254 800 c 2,24,-1
 373 800 l 1,25,-1
 305 889 l 2,26,27
 296 899 296 899 297.5 912 c 128,-1,28
 299 925 299 925 311 937 c 2,29,-1
 348 964 l 2,30,31
 360 973 360 973 370.5 972.5 c 128,-1,32
 381 972 381 972 389 959 c 2,33,-1
 465 867 l 1,34,-1
 494 1004 l 2,35,36
 496 1015 496 1015 507 1025 c 128,-1,37
 518 1035 518 1035 525 1035 c 2,38,-1
 570 1035 l 2,39,40
 583 1035 583 1035 588.5 1025 c 128,-1,41
 594 1015 594 1015 591 1004 c 2,42,-1
 563 872 l 1,43,-1
 677 964 l 2,44,45
 690 977 690 977 701 978 c 128,-1,46
 712 979 712 979 727 972 c 1,47,-1
 743 937 l 1,48,49
 751 930 751 930 748.5 919 c 128,-1,50
 746 908 746 908 731 894 c 2,51,-1
 620 800 l 1,52,-1
 758 800 l 2,53,54
 766 800 766 800 775 792 c 128,-1,55
 784 784 784 784 782 775 c 2,56,-1
 773 731 l 2,57,58
 770 717 770 717 757.5 709 c 128,-1,59
 745 701 745 701 737 701 c 2,60,-1
 592 701 l 1,61,-1
 671 611 l 1,62,63
 683 588 683 588 661 561 c 1,64,-1
 628 533 l 2,65,66
 605 517 605 517 587 539 c 2,67,-1
 511 627 l 1,0,-1
EndSplineSet
EndChar

StartChar: plus
Encoding: 43 43 8
Width: 873
Flags: W
LayerCount: 2
Fore
SplineSet
361 121 m 1,0,-1
 303 396 l 1,1,-1
 28 396 l 1,2,-1
 5 503 l 1,3,-1
 280 503 l 1,4,-1
 222 778 l 1,5,-1
 329 778 l 1,6,-1
 387 503 l 1,7,-1
 662 503 l 1,8,-1
 685 396 l 1,9,-1
 410 396 l 1,10,-1
 468 121 l 1,11,-1
 361 121 l 1,0,-1
EndSplineSet
EndChar

StartChar: hyphen
Encoding: 45 45 9
Width: 860
Flags: W
LayerCount: 2
Fore
SplineSet
685 396 m 1,0,-1
 28 396 l 1,1,-1
 5 503 l 1,2,-1
 662 503 l 1,3,-1
 685 396 l 1,0,-1
EndSplineSet
EndChar

StartChar: period
Encoding: 46 46 10
Width: 420
Flags: W
LayerCount: 2
Fore
SplineSet
356 96 m 0,0,1
 365 55 365 55 343 26.5 c 128,-1,2
 321 -2 321 -2 280 -2 c 0,3,4
 260 -2 260 -2 240.5 5.5 c 128,-1,5
 221 13 221 13 204.5 26.5 c 128,-1,6
 188 40 188 40 176.5 58 c 128,-1,7
 165 76 165 76 161 96 c 256,8,9
 157 116 157 116 161 134 c 128,-1,10
 165 152 165 152 175.5 165.5 c 128,-1,11
 186 179 186 179 202 186.5 c 128,-1,12
 218 194 218 194 238 194 c 0,13,14
 259 194 259 194 278.5 186.5 c 128,-1,15
 298 179 298 179 313.5 165.5 c 128,-1,16
 329 152 329 152 340.5 134 c 128,-1,17
 352 116 352 116 356 96 c 0,0,1
EndSplineSet
EndChar

StartChar: slash
Encoding: 47 47 11
Width: 764
Flags: W
LayerCount: 2
Fore
SplineSet
377 1045 m 1,0,-1
 243 -150 l 1,1,-1
 143 -150 l 1,2,-1
 276 1045 l 1,3,-1
 377 1045 l 1,0,-1
EndSplineSet
EndChar

StartChar: zero
Encoding: 48 48 12
Width: 865
Flags: W
LayerCount: 2
Fore
SplineSet
181 566 m 0,0,1
 224 762 224 762 313 903.5 c 128,-1,2
 402 1045 402 1045 515 1114 c 0,3,4
 602 1169 602 1169 684 1169 c 0,5,6
 816 1169 816 1169 893 1034 c 0,7,8
 988 868 988 868 928 584 c 0,9,10
 884 384 884 384 797 245 c 128,-1,11
 710 106 710 106 607.5 43 c 128,-1,12
 505 -20 505 -20 422 -20 c 0,13,14
 259 -20 259 -20 190 173 c 0,15,16
 133 336 133 336 181 566 c 0,0,1
343 545 m 0,17,18
 294 308 294 308 319 158 c 0,19,20
 341 32 341 32 436 32 c 0,21,22
 481 32 481 32 539.5 73.5 c 128,-1,23
 598 115 598 115 643 211 c 0,24,25
 713 356 713 356 769 620 c 0,26,27
 811 817 811 817 798 948 c 0,28,29
 788 1045 788 1045 749 1086 c 0,30,31
 720 1114 720 1114 672 1114 c 0,32,33
 614 1114 614 1114 558 1062 c 0,34,35
 482 991 482 991 428 841 c 128,-1,36
 374 691 374 691 343 545 c 0,17,18
EndSplineSet
EndChar

StartChar: one
Encoding: 49 49 13
Width: 865
Flags: W
LayerCount: 2
Fore
SplineSet
421 1033 m 1,0,-1
 730 1169 l 1,1,-1
 757 1169 l 1,2,-1
 551 202 l 2,3,4
 532 106 532 106 535 82 c 128,-1,5
 538 58 538 58 560.5 45 c 128,-1,6
 583 32 583 32 660 31 c 1,7,-1
 654 0 l 1,8,-1
 223 0 l 1,9,-1
 229 31 l 1,10,11
 311 32 311 32 337.5 45 c 128,-1,12
 364 58 364 58 377 79 c 128,-1,13
 390 100 390 100 412 202 c 2,14,-1
 544 821 l 2,15,16
 570 946 570 946 569 982 c 0,17,18
 569 1008 569 1008 555.5 1020.5 c 128,-1,19
 542 1033 542 1033 521 1033 c 0,20,21
 490 1033 490 1033 428 1008 c 1,22,-1
 421 1033 l 1,0,-1
EndSplineSet
EndChar

StartChar: two
Encoding: 50 50 14
Width: 865
Flags: W
LayerCount: 2
Fore
SplineSet
840 221 m 1,0,-1
 713 0 l 1,1,-1
 37 0 l 1,2,-1
 43 31 l 1,3,4
 401 304 401 304 558.5 476 c 128,-1,5
 716 648 716 648 746 791 c 0,6,7
 770 900 770 900 718 970 c 128,-1,8
 666 1040 666 1040 574 1040 c 0,9,10
 488 1040 488 1040 410 990.5 c 128,-1,11
 332 941 332 941 281 846 c 1,12,-1
 250 846 l 1,13,14
 304 1002 304 1002 409.5 1085.5 c 128,-1,15
 515 1169 515 1169 646 1169 c 0,16,17
 785 1169 785 1169 859.5 1079.5 c 128,-1,18
 934 990 934 990 907 868 c 0,19,20
 889 781 889 781 829 695 c 0,21,22
 738 558 738 558 565 404 c 0,23,24
 306 175 306 175 244 127 c 1,25,-1
 542 127 l 2,26,27
 634 127 634 127 672 134.5 c 128,-1,28
 710 142 710 142 744.5 162 c 128,-1,29
 779 182 779 182 809 221 c 1,30,-1
 840 221 l 1,0,-1
EndSplineSet
EndChar

StartChar: three
Encoding: 51 51 15
Width: 865
Flags: W
LayerCount: 2
Fore
SplineSet
284 928 m 1,0,1
 359 1043 359 1043 446.5 1106 c 128,-1,2
 534 1169 534 1169 647 1169 c 0,3,4
 784 1169 784 1169 839 1079 c 0,5,6
 880 1013 880 1013 864 937 c 0,7,8
 838 812 838 812 652 678 c 1,9,10
 749 637 749 637 786 560.5 c 128,-1,11
 823 484 823 484 802 379 c 0,12,13
 770 230 770 230 653 121 c 0,14,15
 498 -20 498 -20 264 -20 c 0,16,17
 149 -20 149 -20 113 8.5 c 128,-1,18
 77 37 77 37 84 70 c 0,19,20
 90 95 90 95 113.5 113.5 c 128,-1,21
 137 132 137 132 164 132 c 0,22,23
 186 132 186 132 206 125 c 0,24,25
 221 120 221 120 266 93.5 c 128,-1,26
 311 67 311 67 329 62 c 0,27,28
 358 53 358 53 392 53 c 0,29,30
 480 53 480 53 558 120 c 128,-1,31
 636 187 636 187 655 277 c 0,32,33
 670 344 670 344 654 408 c 0,34,35
 641 455 641 455 620 480 c 0,36,37
 592 514 592 514 534 541 c 128,-1,38
 476 568 476 568 409 568 c 2,39,-1
 383 568 l 1,40,-1
 389 594 l 1,41,42
 457 602 457 602 532.5 642 c 128,-1,43
 608 682 608 682 650 737.5 c 128,-1,44
 692 793 692 793 708 859 c 0,45,46
 726 947 726 947 683 1000.5 c 128,-1,47
 640 1054 640 1054 559 1054 c 0,48,49
 427 1054 427 1054 311 914 c 1,50,-1
 284 928 l 1,0,1
EndSplineSet
EndChar

StartChar: four
Encoding: 52 52 16
Width: 865
Flags: W
LayerCount: 2
Fore
SplineSet
894 422 m 1,0,-1
 868 302 l 1,1,-1
 715 302 l 1,2,-1
 652 0 l 1,3,-1
 512 0 l 1,4,-1
 576 302 l 1,5,-1
 91 302 l 1,6,-1
 114 410 l 1,7,-1
 806 1169 l 1,8,-1
 900 1169 l 1,9,-1
 742 422 l 1,10,-1
 894 422 l 1,0,-1
602 422 m 1,11,-1
 722 990 l 1,12,-1
 199 422 l 1,13,-1
 602 422 l 1,11,-1
EndSplineSet
EndChar

StartChar: five
Encoding: 53 53 17
Width: 865
Flags: W
LayerCount: 2
Fore
SplineSet
994 1146 m 1,0,-1
 898 1002 l 1,1,-1
 552 1002 l 1,2,-1
 444 848 l 1,3,4
 662 815 662 815 764 682 c 0,5,6
 853 568 853 568 820 412 c 0,7,8
 800 322 800 322 747 244.5 c 128,-1,9
 694 167 694 167 626.5 113 c 128,-1,10
 559 59 559 59 485 26 c 0,11,12
 377 -20 377 -20 275 -20 c 0,13,14
 172 -20 172 -20 132 14.5 c 128,-1,15
 92 49 92 49 101 92 c 0,16,17
 107 116 107 116 130.5 134 c 128,-1,18
 154 152 154 152 182 152 c 0,19,20
 205 152 205 152 219.5 145 c 128,-1,21
 234 138 234 138 269 110 c 0,22,23
 323 66 323 66 388 66 c 0,24,25
 487 66 487 66 577.5 141 c 128,-1,26
 668 216 668 216 691 323 c 0,27,28
 714 427 714 427 666 517 c 128,-1,29
 618 607 618 607 511 656 c 0,30,31
 427 695 427 695 269 700 c 1,32,-1
 583 1146 l 1,33,-1
 994 1146 l 1,0,-1
EndSplineSet
EndChar

StartChar: six
Encoding: 54 54 18
Width: 865
Flags: W
LayerCount: 2
Fore
SplineSet
1024 1169 m 1,0,-1
 1016 1139 l 1,1,2
 902 1127 902 1127 825 1094 c 128,-1,3
 748 1061 748 1061 664.5 992 c 128,-1,4
 581 923 581 923 517.5 839 c 128,-1,5
 454 755 454 755 400 640 c 1,6,7
 540 724 540 724 662 724 c 0,8,9
 779 724 779 724 845 629 c 128,-1,10
 911 534 911 534 880 385 c 0,11,12
 850 242 850 242 737 124 c 0,13,14
 601 -20 601 -20 428 -20 c 0,15,16
 312 -20 312 -20 246 58 c 0,17,18
 119 209 119 209 169 450 c 0,19,20
 202 602 202 602 293 741.5 c 128,-1,21
 384 881 384 881 521.5 988.5 c 128,-1,22
 659 1096 659 1096 771.5 1132.5 c 128,-1,23
 884 1169 884 1169 974 1169 c 2,24,-1
 1024 1169 l 1,0,-1
373 577 m 1,25,26
 332 463 332 463 318 394 c 0,27,28
 300 312 300 312 310 217 c 128,-1,29
 320 122 320 122 367 66 c 0,30,31
 402 28 402 28 463 28 c 0,32,33
 538 28 538 28 610.5 97 c 128,-1,34
 683 166 683 166 710 294 c 0,35,36
 742 438 742 438 706.5 543.5 c 128,-1,37
 671 649 671 649 565 649 c 0,38,39
 533 649 533 649 493.5 636 c 128,-1,40
 454 623 454 623 373 577 c 1,25,26
EndSplineSet
EndChar

StartChar: seven
Encoding: 55 55 19
Width: 865
Flags: W
LayerCount: 2
Fore
SplineSet
418 1146 m 1,0,-1
 1031 1146 l 1,1,-1
 1025 1114 l 1,2,-1
 401 -23 l 1,3,-1
 306 -23 l 1,4,-1
 866 1008 l 1,5,-1
 552 1008 l 2,6,7
 456 1008 456 1008 412 985 c 0,8,9
 332 946 332 946 272 865 c 1,10,-1
 250 875 l 1,11,-1
 418 1146 l 1,0,-1
EndSplineSet
EndChar

StartChar: eight
Encoding: 56 56 20
Width: 865
Flags: W
LayerCount: 2
Fore
SplineSet
454 576 m 1,0,1
 342 689 342 689 317 756 c 128,-1,2
 292 823 292 823 307 896 c 0,3,4
 330 1008 330 1008 434 1088.5 c 128,-1,5
 538 1169 538 1169 682 1169 c 0,6,7
 820 1169 820 1169 888 1094 c 128,-1,8
 956 1019 956 1019 936 923 c 0,9,10
 922 858 922 858 862 791.5 c 128,-1,11
 802 725 802 725 638 635 c 1,12,13
 762 520 762 520 797 454 c 0,14,15
 842 367 842 367 823 272 c 0,16,17
 797 151 797 151 686.5 65.5 c 128,-1,18
 576 -20 576 -20 427 -20 c 0,19,20
 263 -20 263 -20 194 83 c 0,21,22
 138 163 138 163 160 260 c 0,23,24
 175 337 175 337 242.5 412 c 128,-1,25
 310 487 310 487 454 576 c 1,0,1
606 667 m 1,26,27
 726 758 726 758 764.5 811 c 128,-1,28
 803 864 803 864 817 931 c 0,29,30
 836 1020 836 1020 797 1070.5 c 128,-1,31
 758 1121 758 1121 672 1121 c 256,32,33
 586 1121 586 1121 521 1070.5 c 128,-1,34
 456 1020 456 1020 442 954 c 0,35,36
 433 911 433 911 446.5 866.5 c 128,-1,37
 460 822 460 822 492 782 c 1,38,-1
 606 667 l 1,26,27
487 545 m 1,39,40
 404 486 404 486 355.5 416.5 c 128,-1,41
 307 347 307 347 290 265 c 0,42,43
 268 156 268 156 313 90.5 c 128,-1,44
 358 25 358 25 451 25 c 0,45,46
 541 25 541 25 607 76.5 c 128,-1,47
 673 128 673 128 689 202 c 0,48,49
 701 263 701 263 680 311 c 0,50,51
 638 401 638 401 487 545 c 1,39,40
EndSplineSet
EndChar

StartChar: nine
Encoding: 57 57 21
Width: 865
Flags: W
LayerCount: 2
Fore
SplineSet
85 -23 m 1,0,-1
 92 7 l 1,1,2
 202 10 202 10 307.5 59 c 128,-1,3
 413 108 413 108 527.5 231.5 c 128,-1,4
 642 355 642 355 708 503 c 1,5,6
 557 418 557 418 449 418 c 0,7,8
 329 418 329 418 263 511 c 128,-1,9
 197 604 197 604 229 758 c 0,10,11
 262 910 262 910 372 1026 c 0,12,13
 506 1169 506 1169 673 1169 c 0,14,15
 815 1169 815 1169 890 1052 c 0,16,17
 983 908 983 908 938 696 c 0,18,19
 898 505 898 505 769 340 c 128,-1,20
 640 175 640 175 450 66 c 0,21,22
 295 -23 295 -23 134 -23 c 2,23,-1
 85 -23 l 1,0,-1
734 565 m 1,24,25
 773 674 773 674 787 742 c 0,26,27
 805 823 805 823 796.5 918 c 128,-1,28
 788 1013 788 1013 748 1063.5 c 128,-1,29
 708 1114 708 1114 644 1114 c 0,30,31
 568 1114 568 1114 497.5 1046.5 c 128,-1,32
 427 979 427 979 398 846 c 0,33,34
 360 667 360 667 414 568 c 0,35,36
 454 494 454 494 533 494 c 0,37,38
 572 494 572 494 629 513 c 128,-1,39
 686 532 686 532 734 565 c 1,24,25
EndSplineSet
EndChar

StartChar: less
Encoding: 60 60 22
Width: 983
Flags: W
LayerCount: 2
Fore
SplineSet
829 51 m 1,0,-1
 48 391 l 1,1,-1
 32 470 l 1,2,-1
 668 808 l 1,3,-1
 693 690 l 1,4,-1
 200 430 l 1,5,-1
 804 169 l 1,6,-1
 829 51 l 1,0,-1
EndSplineSet
EndChar

StartChar: equal
Encoding: 61 61 23
Width: 918
Flags: W
LayerCount: 2
Fore
SplineSet
686 493 m 1,0,-1
 30 493 l 1,1,-1
 8 600 l 1,2,-1
 664 600 l 1,3,-1
 686 493 l 1,0,-1
737 254 m 1,4,-1
 81 254 l 1,5,-1
 58 362 l 1,6,-1
 715 362 l 1,7,-1
 737 254 l 1,4,-1
EndSplineSet
EndChar

StartChar: greater
Encoding: 62 62 24
Width: 983
Flags: W
LayerCount: 2
Fore
SplineSet
766 391 m 1,0,-1
 129 51 l 1,1,-1
 105 169 l 1,2,-1
 600 430 l 1,3,-1
 -5 690 l 1,4,-1
 -31 808 l 1,5,-1
 750 470 l 1,6,-1
 766 391 l 1,0,-1
EndSplineSet
EndChar

StartChar: question
Encoding: 63 63 25
Width: 768
Flags: W
LayerCount: 2
Fore
SplineSet
440 270 m 1,0,-1
 406 270 l 1,1,2
 434 377 434 377 469.5 446.5 c 128,-1,3
 505 516 505 516 596 640 c 0,4,5
 668 736 668 736 694 787.5 c 128,-1,6
 720 839 720 839 732 890 c 0,7,8
 754 998 754 998 710.5 1061 c 128,-1,9
 667 1124 667 1124 584 1124 c 0,10,11
 511 1124 511 1124 461.5 1089.5 c 128,-1,12
 412 1055 412 1055 403 1015 c 0,13,14
 396 983 396 983 411.5 938 c 128,-1,15
 427 893 427 893 422 868 c 0,16,17
 416 839 416 839 392 818 c 128,-1,18
 368 797 368 797 340 797 c 0,19,20
 305 797 305 797 283.5 831.5 c 128,-1,21
 262 866 262 866 276 929 c 0,22,23
 295 1025 295 1025 392.5 1098.5 c 128,-1,24
 490 1172 490 1172 630 1172 c 0,25,26
 804 1172 804 1172 865 1070 c 0,27,28
 911 996 911 996 892 906 c 0,29,30
 877 844 877 844 836.5 779 c 128,-1,31
 796 714 796 714 700 626 c 0,32,33
 548 488 548 488 508 430 c 128,-1,34
 468 372 468 372 440 270 c 1,0,-1
407 166 m 0,35,36
 446 166 446 166 468 138 c 128,-1,37
 490 110 490 110 481 71 c 0,38,39
 473 31 473 31 439.5 4 c 128,-1,40
 406 -23 406 -23 366 -23 c 0,41,42
 328 -23 328 -23 306 4 c 128,-1,43
 284 31 284 31 293 71 c 0,44,45
 301 110 301 110 334 138 c 128,-1,46
 367 166 367 166 407 166 c 0,35,36
EndSplineSet
EndChar

StartChar: at
Encoding: 64 64 26
Width: 1594
Flags: W
LayerCount: 2
Fore
SplineSet
1360 809 m 1,0,-1
 1192 472 l 2,1,2
 1096 283 1096 283 1073 232 c 128,-1,3
 1050 181 1050 181 1043 151 c 0,4,5
 1038 125 1038 125 1052.5 105.5 c 128,-1,6
 1067 86 1067 86 1093 86 c 0,7,8
 1156 86 1156 86 1255.5 148 c 128,-1,9
 1355 210 1355 210 1446 349 c 128,-1,10
 1537 488 1537 488 1570 638 c 0,11,12
 1600 782 1600 782 1556 904.5 c 128,-1,13
 1512 1027 1512 1027 1399 1092.5 c 128,-1,14
 1286 1158 1286 1158 1132 1158 c 0,15,16
 937 1158 937 1158 748 1055 c 128,-1,17
 559 952 559 952 420 757.5 c 128,-1,18
 281 563 281 563 235 353 c 0,19,20
 194 158 194 158 246.5 0 c 128,-1,21
 299 -158 299 -158 437.5 -240 c 128,-1,22
 576 -322 576 -322 754 -322 c 0,23,24
 977 -322 977 -322 1181.5 -203 c 128,-1,25
 1386 -84 1386 -84 1532 145 c 1,26,-1
 1582 145 l 1,27,28
 1457 -86 1457 -86 1226 -230 c 128,-1,29
 995 -374 995 -374 738 -374 c 0,30,31
 538 -374 538 -374 385.5 -279 c 128,-1,32
 233 -184 233 -184 175.5 -9 c 128,-1,33
 118 166 118 166 162 374 c 0,34,35
 209 598 209 598 354.5 791 c 128,-1,36
 500 984 500 984 712 1092.5 c 128,-1,37
 924 1201 924 1201 1135 1201 c 0,38,39
 1310 1201 1310 1201 1435.5 1129 c 128,-1,40
 1561 1057 1561 1057 1605.5 918 c 128,-1,41
 1650 779 1650 779 1616 623 c 0,42,43
 1584 468 1584 468 1482.5 316 c 128,-1,44
 1381 164 1381 164 1260.5 95 c 128,-1,45
 1140 26 1140 26 1024 26 c 0,46,47
 959 26 959 26 933 56 c 128,-1,48
 907 86 907 86 919 142 c 0,49,50
 929 190 929 190 960 266 c 1,51,52
 804 115 804 115 719 70 c 128,-1,53
 634 25 634 25 576 25 c 0,54,55
 516 25 516 25 480.5 79 c 128,-1,56
 445 133 445 133 464 222 c 0,57,58
 491 344 491 344 603 496 c 128,-1,59
 715 648 715 648 866 744 c 0,60,61
 979 814 979 814 1056 814 c 0,62,63
 1112 814 1112 814 1144 785 c 128,-1,64
 1176 756 1176 756 1176 698 c 1,65,-1
 1225 791 l 1,66,-1
 1360 809 l 1,0,-1
1058 775 m 0,67,68
 995 775 995 775 914 708 c 0,69,70
 798 611 798 611 696 444 c 0,71,72
 619 322 619 322 602 247 c 0,73,74
 593 194 593 194 615.5 160.5 c 128,-1,75
 638 127 638 127 674 127 c 0,76,77
 725 127 725 127 786.5 164.5 c 128,-1,78
 848 202 848 202 923 279 c 128,-1,79
 998 356 998 356 1043 434 c 0,80,81
 1120 568 1120 568 1138 653 c 0,82,83
 1148 708 1148 708 1125 741.5 c 128,-1,84
 1102 775 1102 775 1058 775 c 0,67,68
EndSplineSet
EndChar

StartChar: A
Encoding: 65 65 27
Width: 1249
Flags: W
LayerCount: 2
Fore
SplineSet
874 383 m 1,0,-1
 430 383 l 1,1,-1
 312 203 l 2,2,3
 270 137 270 137 263 103 c 0,4,5
 258 77 258 77 278.5 57 c 128,-1,6
 299 37 299 37 380 31 c 1,7,-1
 374 0 l 1,8,-1
 13 0 l 1,9,-1
 20 31 l 1,10,11
 94 44 94 44 119 65 c 0,12,13
 172 104 172 104 251 229 c 2,14,-1
 853 1172 l 1,15,-1
 883 1172 l 1,16,-1
 1078 218 l 2,17,18
 1103 103 1103 103 1134.5 69.5 c 128,-1,19
 1166 36 1166 36 1236 31 c 1,20,-1
 1230 0 l 1,21,-1
 779 0 l 1,22,-1
 785 31 l 1,23,24
 854 35 854 35 882 54.5 c 128,-1,25
 910 74 910 74 916 101 c 0,26,27
 923 138 923 138 906 218 c 2,28,-1
 874 383 l 1,0,-1
862 445 m 1,29,-1
 767 910 l 1,30,-1
 468 445 l 1,31,-1
 862 445 l 1,29,-1
EndSplineSet
EndChar

StartChar: B
Encoding: 66 66 28
Width: 1154
Flags: W
LayerCount: 2
Fore
SplineSet
923 586 m 1,0,1
 1037 559 1037 559 1085 504 c 0,2,3
 1148 426 1148 426 1126 313 c 0,4,5
 1106 228 1106 228 1036 150 c 128,-1,6
 966 72 966 72 864 36 c 128,-1,7
 762 0 762 0 569 0 c 2,8,-1
 29 0 l 1,9,-1
 35 31 l 1,10,-1
 78 31 l 2,11,12
 150 31 150 31 191 77 c 0,13,14
 216 107 216 107 236 203 c 2,15,-1
 394 943 l 2,16,17
 418 1050 418 1050 398 1078 c 0,18,19
 374 1114 374 1114 308 1114 c 2,20,-1
 265 1114 l 1,21,-1
 271 1146 l 1,22,-1
 767 1146 l 2,23,24
 905 1146 905 1146 984 1126 c 0,25,26
 1104 1096 1104 1096 1155 1018 c 128,-1,27
 1206 940 1206 940 1183 840 c 0,28,29
 1166 754 1166 754 1099.5 686 c 128,-1,30
 1033 618 1033 618 923 586 c 1,0,1
490 630 m 1,31,32
 520 624 520 624 559.5 621.5 c 128,-1,33
 599 619 599 619 647 619 c 0,34,35
 770 619 770 619 838 645.5 c 128,-1,36
 906 672 906 672 951 726.5 c 128,-1,37
 996 781 996 781 1009 847 c 0,38,39
 1031 947 1031 947 963.5 1017.5 c 128,-1,40
 896 1088 896 1088 740 1088 c 0,41,42
 655 1088 655 1088 584 1070 c 1,43,-1
 490 630 l 1,31,32
374 83 m 1,44,45
 467 60 467 60 563 60 c 0,46,47
 716 60 716 60 810.5 129 c 128,-1,48
 905 198 905 198 928 299 c 0,49,50
 941 365 941 365 917.5 426.5 c 128,-1,51
 894 488 894 488 819.5 523.5 c 128,-1,52
 745 559 745 559 624 559 c 0,53,54
 572 559 572 559 534.5 558 c 128,-1,55
 497 557 497 557 474 552 c 1,56,-1
 374 83 l 1,44,45
EndSplineSet
EndChar

StartChar: C
Encoding: 67 67 29
Width: 1154
Flags: W
LayerCount: 2
Fore
SplineSet
1289 1172 m 1,0,-1
 1234 782 l 1,1,-1
 1207 782 l 1,2,3
 1193 956 1193 956 1112 1033.5 c 128,-1,4
 1031 1111 1031 1111 894 1111 c 0,5,6
 780 1111 780 1111 676 1053 c 128,-1,7
 572 995 572 995 492.5 868.5 c 128,-1,8
 413 742 413 742 373 553 c 0,9,10
 340 398 340 398 365.5 284 c 128,-1,11
 391 170 391 170 478 109 c 128,-1,12
 565 48 565 48 692 48 c 0,13,14
 805 48 805 48 900 96 c 128,-1,15
 995 144 995 144 1128 286 c 1,16,-1
 1150 269 l 1,17,18
 1032 116 1032 116 902 45 c 128,-1,19
 772 -26 772 -26 613 -26 c 0,20,21
 330 -26 330 -26 218 185 c 0,22,23
 134 342 134 342 180 556 c 0,24,25
 216 726 216 726 324 870 c 128,-1,26
 432 1014 432 1014 583 1093 c 128,-1,27
 734 1172 734 1172 893 1172 c 0,28,29
 1018 1172 1018 1172 1126 1111 c 0,30,31
 1157 1092 1157 1092 1172 1092 c 0,32,33
 1195 1092 1195 1092 1217 1109 c 0,34,35
 1243 1130 1243 1130 1260 1172 c 1,36,-1
 1289 1172 l 1,0,-1
EndSplineSet
EndChar

StartChar: D
Encoding: 68 68 30
Width: 1249
Flags: W
LayerCount: 2
Fore
SplineSet
30 0 m 1,0,-1
 36 31 l 1,1,-1
 79 31 l 2,2,3
 152 31 152 31 191 78 c 0,4,5
 216 106 216 106 236 203 c 2,6,-1
 394 943 l 2,7,8
 418 1050 418 1050 400 1078 c 0,9,10
 374 1114 374 1114 310 1114 c 2,11,-1
 266 1114 l 1,12,-1
 272 1146 l 1,13,-1
 739 1146 l 2,14,15
 996 1146 996 1146 1117 1087 c 128,-1,16
 1238 1028 1238 1028 1291 892.5 c 128,-1,17
 1344 757 1344 757 1307 578 c 0,18,19
 1255 340 1255 340 1076 180 c 0,20,21
 876 0 876 0 541 0 c 2,22,-1
 30 0 l 1,0,-1
374 83 m 1,23,24
 475 59 475 59 548 59 c 0,25,26
 744 59 744 59 902.5 197 c 128,-1,27
 1061 335 1061 335 1111 570 c 0,28,29
 1162 808 1162 808 1062 944.5 c 128,-1,30
 962 1081 962 1081 760 1081 c 0,31,32
 683 1081 683 1081 581 1057 c 1,33,-1
 374 83 l 1,23,24
EndSplineSet
EndChar

StartChar: E
Encoding: 69 69 31
Width: 1057
Flags: W
LayerCount: 2
Fore
SplineSet
592 1084 m 1,0,-1
 494 630 l 1,1,-1
 746 630 l 2,2,3
 845 630 845 630 884 660 c 0,4,5
 936 700 936 700 962 797 c 1,6,-1
 994 797 l 1,7,-1
 910 398 l 1,8,-1
 877 398 l 1,9,10
 883 481 883 481 876 505 c 0,11,12
 866 534 866 534 835.5 551 c 128,-1,13
 805 568 805 568 734 568 c 2,14,-1
 481 568 l 1,15,-1
 401 191 l 2,16,17
 385 115 385 115 388 99 c 128,-1,18
 391 83 391 83 406 72.5 c 128,-1,19
 421 62 421 62 469 62 c 2,20,-1
 664 62 l 2,21,22
 761 62 761 62 807.5 76 c 128,-1,23
 854 90 854 90 902 128 c 0,24,25
 966 181 966 181 1043 287 c 1,26,-1
 1078 287 l 1,27,-1
 919 0 l 1,28,-1
 36 0 l 1,29,-1
 42 31 l 1,30,-1
 83 31 l 2,31,32
 122 31 122 31 163 50 c 0,33,34
 192 65 192 65 208 92 c 128,-1,35
 224 119 224 119 242 202 c 2,36,-1
 401 946 l 2,37,38
 424 1055 424 1055 407 1080 c 0,39,40
 383 1114 383 1114 312 1114 c 2,41,-1
 272 1114 l 1,42,-1
 278 1146 l 1,43,-1
 1162 1146 l 1,44,-1
 1122 894 l 1,45,-1
 1087 894 l 1,46,47
 1090 985 1090 985 1075.5 1018.5 c 128,-1,48
 1061 1052 1061 1052 1022 1070 c 0,49,50
 991 1084 991 1084 906 1084 c 2,51,-1
 592 1084 l 1,0,-1
EndSplineSet
EndChar

StartChar: F
Encoding: 70 70 32
Width: 962
Flags: W
LayerCount: 2
Fore
SplineSet
584 1084 m 1,0,-1
 488 632 l 1,1,-1
 697 632 l 2,2,3
 769 632 769 632 809.5 664 c 128,-1,4
 850 696 850 696 878 790 c 1,5,-1
 911 790 l 1,6,-1
 828 402 l 1,7,-1
 797 402 l 1,8,9
 811 469 811 469 800.5 500.5 c 128,-1,10
 790 532 790 532 764.5 547.5 c 128,-1,11
 739 563 739 563 682 563 c 2,12,-1
 473 563 l 1,13,-1
 396 203 l 2,14,15
 378 116 378 116 383 88 c 0,16,17
 388 66 388 66 410 52 c 0,18,19
 444 31 444 31 485 31 c 2,20,-1
 526 31 l 1,21,-1
 520 0 l 1,22,-1
 28 0 l 1,23,-1
 34 31 l 1,24,-1
 74 31 l 2,25,26
 145 31 145 31 186 73 c 0,27,28
 212 100 212 100 234 203 c 2,29,-1
 391 943 l 2,30,31
 410 1030 410 1030 404 1058 c 0,32,33
 401 1079 401 1079 378 1094 c 0,34,35
 347 1114 347 1114 305 1114 c 2,36,-1
 264 1114 l 1,37,-1
 270 1146 l 1,38,-1
 1123 1146 l 1,39,-1
 1080 893 l 1,40,-1
 1051 893 l 1,41,42
 1045 973 1045 973 1024.5 1011.5 c 128,-1,43
 1004 1050 1004 1050 965 1067 c 128,-1,44
 926 1084 926 1084 836 1084 c 2,45,-1
 584 1084 l 1,0,-1
EndSplineSet
EndChar

StartChar: G
Encoding: 71 71 33
Width: 1249
Flags: W
LayerCount: 2
Fore
SplineSet
1310 1172 m 1,0,-1
 1264 810 l 1,1,-1
 1235 810 l 1,2,3
 1218 946 1218 946 1162 1014 c 0,4,5
 1080 1114 1080 1114 919 1114 c 0,6,7
 701 1114 701 1114 550 940 c 0,8,9
 424 793 424 793 382 592 c 0,10,11
 347 427 347 427 381 292 c 128,-1,12
 415 157 415 157 504.5 94 c 128,-1,13
 594 31 594 31 701 31 c 0,14,15
 764 31 764 31 826.5 47.5 c 128,-1,16
 889 64 889 64 952 95 c 1,17,-1
 1021 426 l 2,18,19
 1040 512 1040 512 1032.5 538.5 c 128,-1,20
 1025 565 1025 565 1001 579.5 c 128,-1,21
 977 594 977 594 907 594 c 1,22,-1
 913 625 l 1,23,-1
 1357 625 l 1,24,-1
 1351 594 l 1,25,-1
 1330 594 l 2,26,27
 1264 594 1264 594 1229 550 c 0,28,29
 1206 517 1206 517 1186 426 c 2,30,-1
 1112 74 l 1,31,32
 1003 23 1003 23 903.5 -1.5 c 128,-1,33
 804 -26 804 -26 689 -26 c 0,34,35
 356 -26 356 -26 229 187 c 0,36,37
 134 347 134 347 179 556 c 0,38,39
 211 707 211 707 312 845 c 0,40,41
 434 1009 434 1009 602 1098 c 0,42,43
 744 1172 744 1172 916 1172 c 0,44,45
 978 1172 978 1172 1027 1161.5 c 128,-1,46
 1076 1151 1076 1151 1163 1117 c 0,47,48
 1207 1099 1207 1099 1223 1099 c 0,49,50
 1238 1099 1238 1099 1253 1114 c 128,-1,51
 1268 1129 1268 1129 1279 1172 c 1,52,-1
 1310 1172 l 1,0,-1
EndSplineSet
EndChar

StartChar: H
Encoding: 72 72 34
Width: 1249
Flags: W
LayerCount: 2
Fore
SplineSet
486 614 m 1,0,-1
 1018 614 l 1,1,-1
 1087 942 l 2,2,3
 1106 1031 1106 1031 1100 1058 c 0,4,5
 1097 1079 1097 1079 1074 1094 c 0,6,7
 1042 1114 1042 1114 1001 1114 c 2,8,-1
 961 1114 l 1,9,-1
 967 1146 l 1,10,-1
 1457 1146 l 1,11,-1
 1451 1114 l 1,12,-1
 1410 1114 l 2,13,14
 1370 1114 1370 1114 1328 1096 c 0,15,16
 1298 1080 1298 1080 1283 1054 c 0,17,18
 1267 1025 1267 1025 1249 942 c 2,19,-1
 1092 203 l 2,20,21
 1074 115 1074 115 1079 88 c 0,22,23
 1085 66 1085 66 1106 52 c 0,24,25
 1139 31 1139 31 1180 31 c 2,26,-1
 1220 31 l 1,27,-1
 1214 0 l 1,28,-1
 725 0 l 1,29,-1
 731 31 l 1,30,-1
 770 31 l 2,31,32
 841 31 841 31 882 73 c 0,33,34
 908 100 908 100 930 203 c 2,35,-1
 1004 551 l 1,36,-1
 472 551 l 1,37,-1
 398 203 l 2,38,39
 380 115 380 115 384 88 c 0,40,41
 389 66 389 66 413 52 c 0,42,43
 444 31 444 31 486 31 c 2,44,-1
 527 31 l 1,45,-1
 521 0 l 1,46,-1
 30 0 l 1,47,-1
 36 31 l 1,48,-1
 76 31 l 2,49,50
 148 31 148 31 188 73 c 0,51,52
 214 100 214 100 235 203 c 2,53,-1
 392 942 l 2,54,55
 412 1031 412 1031 407 1058 c 0,56,57
 402 1079 402 1079 380 1094 c 0,58,59
 348 1114 348 1114 306 1114 c 2,60,-1
 266 1114 l 1,61,-1
 272 1146 l 1,62,-1
 763 1146 l 1,63,-1
 757 1114 l 1,64,-1
 716 1114 l 2,65,66
 676 1114 676 1114 635 1096 c 0,67,68
 605 1081 605 1081 589 1054 c 0,69,70
 574 1026 574 1026 556 942 c 2,71,-1
 486 614 l 1,0,-1
EndSplineSet
EndChar

StartChar: I
Encoding: 73 73 35
Width: 576
Flags: W
LayerCount: 2
Fore
SplineSet
541 31 m 1,0,-1
 534 0 l 1,1,-1
 43 0 l 1,2,-1
 49 31 l 1,3,-1
 90 31 l 2,4,5
 161 31 161 31 202 73 c 0,6,7
 227 100 227 100 250 203 c 2,8,-1
 407 943 l 2,9,10
 426 1030 426 1030 420 1058 c 0,11,12
 418 1079 418 1079 394 1094 c 0,13,14
 361 1114 361 1114 320 1114 c 2,15,-1
 280 1114 l 1,16,-1
 286 1146 l 1,17,-1
 778 1146 l 1,18,-1
 770 1114 l 1,19,-1
 728 1114 l 2,20,21
 659 1114 659 1114 618 1073 c 0,22,23
 592 1045 592 1045 569 943 c 2,24,-1
 412 203 l 2,25,26
 394 116 394 116 398 88 c 0,27,28
 402 66 402 66 427 52 c 0,29,30
 458 31 458 31 498 31 c 2,31,-1
 541 31 l 1,0,-1
EndSplineSet
EndChar

StartChar: J
Encoding: 74 74 36
Width: 673
Flags: W
LayerCount: 2
Fore
SplineSet
409 1114 m 1,0,-1
 415 1146 l 1,1,-1
 906 1146 l 1,2,-1
 900 1114 l 1,3,-1
 858 1114 l 2,4,5
 787 1114 787 1114 746 1073 c 0,6,7
 721 1045 721 1045 700 943 c 2,8,-1
 580 383 l 2,9,10
 553 253 553 253 507.5 172.5 c 128,-1,11
 462 92 462 92 380 33 c 128,-1,12
 298 -26 298 -26 199 -26 c 0,13,14
 120 -26 120 -26 83.5 13.5 c 128,-1,15
 47 53 47 53 58 103 c 0,16,17
 66 145 66 145 92 166 c 0,18,19
 125 192 125 192 162 192 c 0,20,21
 190 192 190 192 207 174 c 128,-1,22
 224 156 224 156 241 79 c 0,23,24
 251 34 251 34 281 34 c 0,25,26
 304 34 304 34 330 62 c 128,-1,27
 356 90 356 90 371 161 c 2,28,-1
 536 943 l 2,29,30
 556 1030 556 1030 550 1058 c 0,31,32
 547 1079 547 1079 523 1094 c 0,33,34
 491 1114 491 1114 450 1114 c 2,35,-1
 409 1114 l 1,0,-1
EndSplineSet
EndChar

StartChar: K
Encoding: 75 75 37
Width: 1249
Flags: W
LayerCount: 2
Fore
SplineSet
652 636 m 1,0,-1
 985 216 l 2,1,2
 1067 112 1067 112 1132.5 74 c 128,-1,3
 1198 36 1198 36 1271 31 c 1,4,-1
 1264 0 l 1,5,-1
 719 0 l 1,6,-1
 726 31 l 1,7,8
 774 31 774 31 798.5 48 c 128,-1,9
 823 65 823 65 829 84 c 0,10,11
 833 104 833 104 828 120.5 c 128,-1,12
 823 137 823 137 787 180 c 2,13,-1
 476 572 l 1,14,-1
 397 203 l 2,15,16
 379 116 379 116 383 88 c 0,17,18
 388 66 388 66 412 52 c 0,19,20
 444 31 444 31 485 31 c 2,21,-1
 523 31 l 1,22,-1
 517 0 l 1,23,-1
 29 0 l 1,24,-1
 35 31 l 1,25,-1
 76 31 l 2,26,27
 146 31 146 31 187 73 c 0,28,29
 212 100 212 100 234 203 c 2,30,-1
 391 943 l 2,31,32
 410 1030 410 1030 406 1058 c 0,33,34
 402 1079 402 1079 379 1094 c 0,35,36
 347 1114 347 1114 306 1114 c 2,37,-1
 265 1114 l 1,38,-1
 271 1146 l 1,39,-1
 761 1146 l 1,40,-1
 754 1114 l 1,41,-1
 715 1114 l 2,42,43
 674 1114 674 1114 634 1096 c 0,44,45
 604 1081 604 1081 588 1054 c 128,-1,46
 572 1027 572 1027 554 943 c 2,47,-1
 480 593 l 1,48,49
 500 608 500 608 619 700 c 0,50,51
 919 929 919 929 988 1007 c 0,52,53
 1016 1040 1016 1040 1022 1066 c 0,54,55
 1026 1085 1026 1085 1012 1099.5 c 128,-1,56
 998 1114 998 1114 955 1114 c 2,57,-1
 929 1114 l 1,58,-1
 936 1146 l 1,59,-1
 1356 1146 l 1,60,-1
 1350 1114 l 1,61,62
 1313 1114 1313 1114 1280.5 1105 c 128,-1,63
 1248 1096 1248 1096 1198 1069 c 128,-1,64
 1148 1042 1148 1042 1072 982 c 0,65,66
 1050 965 1050 965 863 809 c 2,67,-1
 652 636 l 1,0,-1
EndSplineSet
EndChar

StartChar: L
Encoding: 76 76 38
Width: 1057
Flags: W
LayerCount: 2
Fore
SplineSet
1058 317 m 1,0,-1
 1086 311 l 1,1,-1
 922 0 l 1,2,-1
 35 0 l 1,3,-1
 41 31 l 1,4,-1
 84 31 l 2,5,6
 156 31 156 31 198 78 c 0,7,8
 222 106 222 106 242 204 c 2,9,-1
 400 943 l 2,10,11
 422 1050 422 1050 403 1078 c 0,12,13
 379 1114 379 1114 314 1114 c 2,14,-1
 271 1114 l 1,15,-1
 277 1146 l 1,16,-1
 797 1146 l 1,17,-1
 790 1114 l 1,18,19
 700 1115 700 1115 659 1097 c 128,-1,20
 618 1079 618 1079 598 1052 c 128,-1,21
 578 1025 578 1025 557 923 c 2,22,-1
 404 204 l 2,23,24
 389 133 389 133 397 108 c 0,25,26
 404 90 404 90 423.5 81.5 c 128,-1,27
 443 73 443 73 553 73 c 2,28,-1
 637 73 l 2,29,30
 769 73 769 73 826 92.5 c 128,-1,31
 883 112 883 112 937.5 161 c 128,-1,32
 992 210 992 210 1058 317 c 1,0,-1
EndSplineSet
EndChar

StartChar: M
Encoding: 77 77 39
Width: 1538
Flags: W
LayerCount: 2
Fore
SplineSet
708 0 m 1,0,-1
 470 964 l 1,1,-1
 306 198 l 2,2,3
 284 92 284 92 302 66 c 0,4,5
 325 31 325 31 392 31 c 2,6,-1
 434 31 l 1,7,-1
 427 0 l 1,8,-1
 29 0 l 1,9,-1
 35 31 l 1,10,-1
 76 31 l 2,11,12
 148 31 148 31 188 74 c 0,13,14
 212 102 212 102 233 198 c 2,15,-1
 391 947 l 2,16,17
 408 1024 408 1024 398 1057 c 0,18,19
 391 1081 391 1081 363.5 1097.5 c 128,-1,20
 336 1114 336 1114 265 1114 c 1,21,-1
 271 1146 l 1,22,-1
 595 1146 l 1,23,-1
 822 250 l 1,24,-1
 1421 1146 l 1,25,-1
 1745 1146 l 1,26,-1
 1738 1114 l 1,27,-1
 1699 1114 l 2,28,29
 1625 1114 1625 1114 1585 1070 c 0,30,31
 1562 1043 1562 1043 1541 947 c 2,32,-1
 1381 198 l 2,33,34
 1360 92 1360 92 1378 66 c 0,35,36
 1402 31 1402 31 1469 31 c 2,37,-1
 1508 31 l 1,38,-1
 1501 0 l 1,39,-1
 1016 0 l 1,40,-1
 1022 31 l 1,41,-1
 1062 31 l 2,42,43
 1136 31 1136 31 1175 74 c 0,44,45
 1199 102 1199 102 1219 198 c 2,46,-1
 1382 964 l 1,47,-1
 736 0 l 1,48,-1
 708 0 l 1,0,-1
EndSplineSet
EndChar

StartChar: N
Encoding: 78 78 40
Width: 1249
Flags: W
LayerCount: 2
Fore
SplineSet
220 1146 m 1,0,-1
 532 1146 l 1,1,-1
 1049 286 l 1,2,-1
 1189 947 l 2,3,4
 1211 1052 1211 1052 1194 1079 c 0,5,6
 1170 1114 1170 1114 1103 1114 c 2,7,-1
 1062 1114 l 1,8,-1
 1069 1146 l 1,9,-1
 1468 1146 l 1,10,-1
 1462 1114 l 1,11,-1
 1421 1114 l 2,12,13
 1349 1114 1349 1114 1308 1070 c 0,14,15
 1284 1043 1284 1043 1262 947 c 2,16,-1
 1058 -19 l 1,17,-1
 1028 -19 l 1,18,-1
 468 904 l 1,19,-1
 318 198 l 2,20,21
 295 92 295 92 313 66 c 0,22,23
 338 31 338 31 406 31 c 2,24,-1
 445 31 l 1,25,-1
 439 0 l 1,26,-1
 40 0 l 1,27,-1
 47 31 l 1,28,-1
 86 31 l 2,29,30
 161 31 161 31 199 74 c 0,31,32
 224 102 224 102 244 198 c 2,33,-1
 414 995 l 1,34,35
 377 1054 377 1054 354.5 1072.5 c 128,-1,36
 332 1091 332 1091 286 1106 c 0,37,38
 264 1114 264 1114 214 1114 c 1,39,-1
 220 1146 l 1,0,-1
EndSplineSet
EndChar

StartChar: O
Encoding: 79 79 41
Width: 1249
Flags: W
LayerCount: 2
Fore
SplineSet
881 1172 m 0,0,1
 1104 1172 1104 1172 1232 1002.5 c 128,-1,2
 1360 833 1360 833 1306 580 c 0,3,4
 1250 319 1250 319 1048.5 146.5 c 128,-1,5
 847 -26 847 -26 612 -26 c 0,6,7
 376 -26 376 -26 251.5 142.5 c 128,-1,8
 127 311 127 311 184 576 c 0,9,10
 242 850 242 850 463 1022 c 0,11,12
 655 1172 655 1172 881 1172 c 0,0,1
852 1110 m 0,13,14
 698 1110 698 1110 581 996 c 0,15,16
 436 854 436 854 377 581 c 0,17,18
 318 300 318 300 404 149 c 0,19,20
 473 34 473 34 624 34 c 0,21,22
 786 34 786 34 918 160 c 128,-1,23
 1050 286 1050 286 1108 557 c 0,24,25
 1170 851 1170 851 1085 995 c 0,26,27
 1016 1110 1016 1110 852 1110 c 0,13,14
EndSplineSet
EndChar

StartChar: P
Encoding: 80 80 42
Width: 962
Flags: W
LayerCount: 2
Fore
SplineSet
468 536 m 1,0,-1
 397 203 l 2,1,2
 374 95 374 95 391 68 c 0,3,4
 418 31 418 31 481 31 c 2,5,-1
 526 31 l 1,6,-1
 520 0 l 1,7,-1
 29 0 l 1,8,-1
 35 31 l 1,9,-1
 78 31 l 2,10,11
 151 31 151 31 191 78 c 0,12,13
 215 104 215 104 234 203 c 2,14,-1
 391 943 l 2,15,16
 415 1051 415 1051 398 1078 c 0,17,18
 374 1114 374 1114 308 1114 c 2,19,-1
 265 1114 l 1,20,-1
 271 1146 l 1,21,-1
 691 1146 l 2,22,23
 845 1146 845 1146 926.5 1114 c 128,-1,24
 1008 1082 1008 1082 1053.5 1006.5 c 128,-1,25
 1099 931 1099 931 1078 829 c 0,26,27
 1048 689 1048 689 936 601.5 c 128,-1,28
 824 514 824 514 655 514 c 0,29,30
 614 514 614 514 567.5 519 c 128,-1,31
 521 524 521 524 468 536 c 1,0,-1
479 586 m 1,32,33
 522 576 522 576 555.5 572 c 128,-1,34
 589 568 589 568 613 568 c 0,35,36
 701 568 701 568 779.5 635.5 c 128,-1,37
 858 703 858 703 881 812 c 0,38,39
 896 886 896 886 880 950 c 128,-1,40
 864 1014 864 1014 814 1046 c 128,-1,41
 764 1078 764 1078 694 1078 c 0,42,43
 650 1078 650 1078 580 1061 c 1,44,-1
 479 586 l 1,32,33
EndSplineSet
EndChar

StartChar: Q
Encoding: 81 81 43
Width: 1249
Flags: W
LayerCount: 2
Fore
SplineSet
760 -13 m 1,0,1
 814 -162 814 -162 899 -232 c 128,-1,2
 984 -302 984 -302 1110 -312 c 1,3,-1
 1104 -338 l 1,4,5
 988 -335 988 -335 864 -292.5 c 128,-1,6
 740 -250 740 -250 637.5 -174 c 128,-1,7
 535 -98 535 -98 468 -13 c 1,8,9
 356 36 356 36 296 91 c 0,10,11
 211 173 211 173 179.5 292.5 c 128,-1,12
 148 412 148 412 182 576 c 0,13,14
 238 832 238 832 440 1002 c 128,-1,15
 642 1172 642 1172 878 1172 c 0,16,17
 1104 1172 1104 1172 1232 1002 c 128,-1,18
 1360 832 1360 832 1306 572 c 0,19,20
 1260 361 1260 361 1109 202.5 c 128,-1,21
 958 44 958 44 760 -13 c 1,0,1
854 1106 m 0,22,23
 701 1106 701 1106 584 997 c 0,24,25
 437 859 437 859 376 576 c 0,26,27
 317 298 317 298 404 146 c 0,28,29
 473 31 473 31 626 31 c 0,30,31
 786 31 786 31 907 146 c 0,32,33
 1051 284 1051 284 1106 551 c 0,34,35
 1151 756 1151 756 1117 896 c 0,36,37
 1093 1004 1093 1004 1024 1055 c 128,-1,38
 955 1106 955 1106 854 1106 c 0,22,23
EndSplineSet
EndChar

StartChar: R
Encoding: 82 82 44
Width: 1154
Flags: W
LayerCount: 2
Fore
SplineSet
1169 0 m 1,0,-1
 864 0 l 1,1,-1
 588 535 l 1,2,3
 546 534 546 534 518 534 c 0,4,5
 508 534 508 534 495 534 c 128,-1,6
 482 534 482 534 469 535 c 1,7,-1
 398 203 l 2,8,9
 376 95 376 95 392 68 c 0,10,11
 418 31 418 31 481 31 c 2,12,-1
 527 31 l 1,13,-1
 521 0 l 1,14,-1
 30 0 l 1,15,-1
 36 31 l 1,16,-1
 79 31 l 2,17,18
 152 31 152 31 192 78 c 0,19,20
 216 104 216 104 236 203 c 2,21,-1
 394 943 l 2,22,23
 418 1051 418 1051 400 1078 c 0,24,25
 374 1114 374 1114 310 1114 c 2,26,-1
 266 1114 l 1,27,-1
 272 1146 l 1,28,-1
 690 1146 l 2,29,30
 872 1146 872 1146 953 1119 c 128,-1,31
 1034 1092 1034 1092 1079 1020.5 c 128,-1,32
 1124 949 1124 949 1104 851 c 0,33,34
 1081 745 1081 745 996 667 c 128,-1,35
 911 589 911 589 760 558 c 1,36,-1
 926 229 l 2,37,38
 983 116 983 116 1033.5 78.5 c 128,-1,39
 1084 41 1084 41 1175 31 c 1,40,-1
 1169 0 l 1,0,-1
480 589 m 1,41,42
 497 589 497 589 508.5 588.5 c 128,-1,43
 520 588 520 588 528 588 c 0,44,45
 691 588 691 588 789 659 c 128,-1,46
 887 730 887 730 911 840 c 0,47,48
 934 947 934 947 881 1014 c 128,-1,49
 828 1081 828 1081 718 1081 c 0,50,51
 668 1081 668 1081 582 1066 c 1,52,-1
 480 589 l 1,41,42
EndSplineSet
EndChar

StartChar: S
Encoding: 83 83 45
Width: 962
Flags: W
LayerCount: 2
Fore
SplineSet
1042 1172 m 1,0,-1
 958 775 l 1,1,-1
 928 775 l 1,2,3
 935 889 935 889 910.5 957 c 128,-1,4
 886 1025 886 1025 821.5 1064.5 c 128,-1,5
 757 1104 757 1104 680 1104 c 0,6,7
 592 1104 592 1104 523 1050.5 c 128,-1,8
 454 997 454 997 439 929 c 0,9,10
 428 876 428 876 455 833 c 0,11,12
 494 770 494 770 668 665 c 0,13,14
 811 577 811 577 859.5 531.5 c 128,-1,15
 908 486 908 486 927 423.5 c 128,-1,16
 946 361 946 361 930 293 c 0,17,18
 902 163 902 163 781.5 68.5 c 128,-1,19
 661 -26 661 -26 503 -26 c 0,20,21
 452 -26 452 -26 410 -19 c 0,22,23
 385 -14 385 -14 308.5 13 c 128,-1,24
 232 40 232 40 209 40 c 0,25,26
 188 40 188 40 173 26.5 c 128,-1,27
 158 13 158 13 144 -26 c 1,28,-1
 113 -26 l 1,29,-1
 197 366 l 1,30,-1
 227 366 l 1,31,32
 223 242 223 242 247.5 181 c 128,-1,33
 272 120 272 120 340 80 c 128,-1,34
 408 40 408 40 499 40 c 0,35,36
 605 40 605 40 678 95.5 c 128,-1,37
 751 151 751 151 767 227 c 0,38,39
 776 269 776 269 762 312.5 c 128,-1,40
 748 356 748 356 707 392 c 0,41,42
 679 418 679 418 549.5 500.5 c 128,-1,43
 420 583 420 583 368.5 632.5 c 128,-1,44
 317 682 317 682 297 740.5 c 128,-1,45
 277 799 277 799 293 870 c 0,46,47
 319 994 319 994 432.5 1083 c 128,-1,48
 546 1172 546 1172 691 1172 c 0,49,50
 782 1172 782 1172 876 1127 c 0,51,52
 919 1105 919 1105 937 1105 c 0,53,54
 960 1105 960 1105 977 1118.5 c 128,-1,55
 994 1132 994 1132 1010 1172 c 1,56,-1
 1042 1172 l 1,0,-1
EndSplineSet
EndChar

StartChar: T
Encoding: 84 84 46
Width: 1057
Flags: W
LayerCount: 2
Fore
SplineSet
1244 1146 m 1,0,-1
 1200 876 l 1,1,-1
 1168 876 l 1,2,3
 1174 948 1174 948 1164 978 c 0,4,5
 1148 1027 1148 1027 1109 1050.5 c 128,-1,6
 1070 1074 1070 1074 1000 1074 c 2,7,-1
 839 1074 l 1,8,-1
 652 198 l 2,9,10
 629 92 629 92 647 66 c 0,11,12
 672 31 672 31 739 31 c 2,13,-1
 779 31 l 1,14,-1
 772 0 l 1,15,-1
 286 0 l 1,16,-1
 293 31 l 1,17,-1
 334 31 l 2,18,19
 406 31 406 31 445 74 c 0,20,21
 470 102 470 102 490 198 c 2,22,-1
 677 1074 l 1,23,-1
 539 1074 l 2,24,25
 458 1074 458 1074 421 1062 c 0,26,27
 374 1045 374 1045 334 1000 c 128,-1,28
 294 955 294 955 270 876 c 1,29,-1
 239 876 l 1,30,-1
 308 1146 l 1,31,-1
 1244 1146 l 1,0,-1
EndSplineSet
EndChar

StartChar: U
Encoding: 85 85 47
Width: 1249
Flags: W
LayerCount: 2
Fore
SplineSet
1062 1114 m 1,0,-1
 1069 1146 l 1,1,-1
 1474 1146 l 1,2,-1
 1468 1114 l 1,3,-1
 1424 1114 l 2,4,5
 1357 1114 1357 1114 1307 1058 c 0,6,7
 1285 1032 1285 1032 1265 936 c 2,8,-1
 1166 470 l 2,9,10
 1130 299 1130 299 1075 204 c 128,-1,11
 1020 109 1020 109 905.5 40.5 c 128,-1,12
 791 -28 791 -28 619 -28 c 0,13,14
 431 -28 431 -28 347.5 37.5 c 128,-1,15
 264 103 264 103 247 214 c 0,16,17
 236 288 236 288 280 496 c 2,18,-1
 374 943 l 2,19,20
 398 1049 398 1049 376 1081.5 c 128,-1,21
 354 1114 354 1114 289 1114 c 2,22,-1
 246 1114 l 1,23,-1
 252 1146 l 1,24,-1
 748 1146 l 1,25,-1
 742 1114 l 1,26,-1
 697 1114 l 2,27,28
 626 1114 626 1114 586 1069 c 0,29,30
 559 1039 559 1039 538 943 c 2,31,-1
 432 444 l 2,32,33
 418 377 418 377 412 291 c 128,-1,34
 406 205 406 205 427.5 156.5 c 128,-1,35
 449 108 449 108 503 77 c 128,-1,36
 557 46 557 46 646 46 c 0,37,38
 757 46 757 46 856 95 c 128,-1,39
 955 144 955 144 1003.5 220 c 128,-1,40
 1052 296 1052 296 1092 480 c 2,41,-1
 1190 943 l 2,42,43
 1213 1050 1213 1050 1194 1078 c 0,44,45
 1170 1114 1170 1114 1104 1114 c 2,46,-1
 1062 1114 l 1,0,-1
EndSplineSet
EndChar

StartChar: V
Encoding: 86 86 48
Width: 1249
Flags: W
LayerCount: 2
Fore
SplineSet
1471 1146 m 1,0,-1
 1465 1114 l 1,1,2
 1403 1104 1403 1104 1364 1075 c 0,3,4
 1312 1034 1312 1034 1258 948 c 2,5,-1
 650 -26 l 1,6,-1
 620 -26 l 1,7,-1
 401 961 l 2,8,9
 383 1037 383 1037 374 1054 c 0,10,11
 358 1080 358 1080 331 1095 c 128,-1,12
 304 1110 304 1110 251 1114 c 1,13,-1
 258 1146 l 1,14,-1
 726 1146 l 1,15,-1
 720 1114 l 1,16,17
 638 1106 638 1106 610.5 1087 c 128,-1,18
 583 1068 583 1068 576 1037 c 0,19,20
 568 995 568 995 587 906 c 2,21,-1
 736 234 l 1,22,-1
 1147 898 l 2,23,24
 1208 995 1208 995 1216 1033 c 0,25,26
 1220 1058 1220 1058 1201 1080.5 c 128,-1,27
 1182 1103 1182 1103 1124 1112 c 0,28,29
 1122 1114 1122 1114 1112 1114 c 1,30,-1
 1118 1146 l 1,31,-1
 1471 1146 l 1,0,-1
EndSplineSet
EndChar

StartChar: W
Encoding: 87 87 49
Width: 1632
Flags: W
LayerCount: 2
Fore
SplineSet
1862 1146 m 1,0,-1
 1856 1114 l 1,1,2
 1811 1114 1811 1114 1779 1098 c 128,-1,3
 1747 1082 1747 1082 1712 1038 c 0,4,5
 1690 1008 1690 1008 1631 898 c 2,6,-1
 1115 -26 l 1,7,-1
 1081 -26 l 1,8,-1
 976 707 l 1,9,-1
 560 -26 l 1,10,-1
 530 -26 l 1,11,-1
 392 925 l 2,12,13
 377 1032 377 1032 371 1051 c 0,14,15
 361 1084 361 1084 335.5 1099 c 128,-1,16
 310 1114 310 1114 259 1114 c 1,17,-1
 266 1146 l 1,18,-1
 690 1146 l 1,19,-1
 683 1114 l 1,20,-1
 664 1114 l 2,21,22
 619 1114 619 1114 591 1094 c 128,-1,23
 563 1074 563 1074 557 1045 c 0,24,25
 550 1016 550 1016 565 910 c 2,26,-1
 654 266 l 1,27,-1
 960 814 l 1,28,-1
 947 910 l 1,29,-1
 936 986 l 2,30,31
 928 1028 928 1028 911 1061 c 0,32,33
 904 1076 904 1076 890 1087 c 0,34,35
 872 1103 872 1103 853 1109 c 0,36,37
 839 1114 839 1114 804 1114 c 1,38,-1
 810 1146 l 1,39,-1
 1255 1146 l 1,40,-1
 1249 1114 l 1,41,-1
 1219 1114 l 2,42,43
 1172 1114 1172 1114 1146 1094 c 128,-1,44
 1120 1074 1120 1074 1112 1039 c 0,45,46
 1103 996 1103 996 1117 889 c 2,47,-1
 1205 266 l 1,48,-1
 1556 898 l 2,49,50
 1616 1002 1616 1002 1625 1043 c 0,51,52
 1630 1062 1630 1062 1621 1079 c 128,-1,53
 1612 1096 1612 1096 1595 1103 c 0,54,55
 1565 1114 1565 1114 1514 1114 c 1,56,-1
 1520 1146 l 1,57,-1
 1862 1146 l 1,0,-1
EndSplineSet
EndChar

StartChar: X
Encoding: 88 88 50
Width: 1249
Flags: W
LayerCount: 2
Fore
SplineSet
840 635 m 1,0,-1
 1008 269 l 2,1,2
 1078 116 1078 116 1119 76 c 128,-1,3
 1160 36 1160 36 1236 31 c 1,4,-1
 1229 0 l 1,5,-1
 737 0 l 1,6,-1
 744 31 l 1,7,8
 793 31 793 31 818 41 c 0,9,10
 838 48 838 48 853 64 c 128,-1,11
 868 80 868 80 871 96 c 0,12,13
 876 116 876 116 871 136 c 0,14,15
 869 150 869 150 840 209 c 2,16,-1
 708 504 l 1,17,-1
 403 197 l 2,18,19
 355 146 355 146 343.5 130 c 128,-1,20
 332 114 332 114 330 96 c 0,21,22
 324 70 324 70 342.5 52 c 128,-1,23
 361 34 361 34 426 31 c 1,24,-1
 419 0 l 1,25,-1
 13 0 l 1,26,-1
 19 31 l 1,27,28
 64 36 64 36 96 48 c 0,29,30
 154 71 154 71 209.5 108 c 128,-1,31
 265 145 265 145 341 222 c 2,32,-1
 684 564 l 1,33,-1
 529 893 l 2,34,35
 466 1028 466 1028 410.5 1070 c 128,-1,36
 355 1112 355 1112 272 1114 c 1,37,-1
 278 1146 l 1,38,-1
 808 1146 l 1,39,-1
 802 1114 l 1,40,41
 733 1112 733 1112 703.5 1092.5 c 128,-1,42
 674 1073 674 1073 671 1050 c 0,43,44
 664 1018 664 1018 691 958 c 2,45,-1
 811 695 l 1,46,-1
 1069 953 l 2,47,48
 1115 998 1115 998 1126.5 1015.5 c 128,-1,49
 1138 1033 1138 1033 1141 1050 c 0,50,51
 1145 1068 1145 1068 1139 1081 c 0,52,53
 1130 1099 1130 1099 1112 1106.5 c 128,-1,54
 1094 1114 1094 1114 1033 1114 c 1,55,-1
 1039 1146 l 1,56,-1
 1446 1146 l 1,57,-1
 1439 1114 l 1,58,59
 1391 1112 1391 1112 1358 1099 c 0,60,61
 1308 1079 1308 1079 1263.5 1046.5 c 128,-1,62
 1219 1014 1219 1014 1130 925 c 2,63,-1
 840 635 l 1,0,-1
EndSplineSet
EndChar

StartChar: Y
Encoding: 89 89 51
Width: 1249
Flags: W
LayerCount: 2
Fore
SplineSet
1068 1146 m 1,0,-1
 1466 1146 l 1,1,-1
 1460 1114 l 1,2,-1
 1439 1114 l 2,3,4
 1417 1114 1417 1114 1371 1094.5 c 128,-1,5
 1325 1075 1325 1075 1281.5 1039 c 128,-1,6
 1238 1003 1238 1003 1171 920 c 2,7,-1
 802 486 l 1,8,-1
 740 198 l 2,9,10
 718 92 718 92 737 66 c 0,11,12
 761 31 761 31 832 31 c 2,13,-1
 868 31 l 1,14,-1
 862 0 l 1,15,-1
 374 0 l 1,16,-1
 382 31 l 1,17,-1
 422 31 l 2,18,19
 494 31 494 31 534 74 c 0,20,21
 559 102 559 102 578 198 c 2,22,-1
 637 470 l 1,23,-1
 425 949 l 2,24,25
 386 1034 386 1034 371 1055 c 128,-1,26
 356 1076 356 1076 300 1105 c 0,27,28
 286 1114 286 1114 252 1114 c 1,29,-1
 259 1146 l 1,30,-1
 749 1146 l 1,31,-1
 743 1114 l 1,32,-1
 718 1114 l 2,33,34
 678 1114 678 1114 640 1096 c 128,-1,35
 602 1078 602 1078 594 1040 c 0,36,37
 588 1009 588 1009 623 930 c 2,38,-1
 784 560 l 1,39,-1
 1084 914 l 2,40,41
 1151 994 1151 994 1158 1033 c 0,42,43
 1164 1056 1164 1056 1155.5 1074.5 c 128,-1,44
 1147 1093 1147 1093 1126.5 1103.5 c 128,-1,45
 1106 1114 1106 1114 1061 1114 c 1,46,-1
 1068 1146 l 1,0,-1
EndSplineSet
EndChar

StartChar: Z
Encoding: 90 90 52
Width: 1057
Flags: W
LayerCount: 2
Fore
SplineSet
1237 1146 m 1,0,-1
 258 70 l 1,1,-1
 726 70 l 2,2,3
 835 70 835 70 902.5 116.5 c 128,-1,4
 970 163 970 163 1046 308 c 1,5,-1
 1073 304 l 1,6,-1
 955 0 l 1,7,-1
 22 0 l 1,8,-1
 29 31 l 1,9,-1
 985 1078 l 1,10,-1
 619 1078 l 2,11,12
 527 1078 527 1078 482 1057.5 c 128,-1,13
 437 1037 437 1037 407.5 999.5 c 128,-1,14
 378 962 378 962 338 859 c 1,15,-1
 307 859 l 1,16,-1
 391 1146 l 1,17,-1
 1237 1146 l 1,0,-1
EndSplineSet
EndChar

StartChar: bracketleft
Encoding: 91 91 53
Width: 647
Flags: W
LayerCount: 2
Fore
SplineSet
512 -233 m 1,0,-1
 140 -233 l 1,1,-1
 548 1686 l 1,2,-1
 919 1686 l 1,3,-1
 899 1589 l 1,4,-1
 666 1589 l 1,5,-1
 300 -137 l 1,6,-1
 533 -137 l 1,7,-1
 512 -233 l 1,0,-1
EndSplineSet
EndChar

StartChar: backslash
Encoding: 92 92 54
Width: 607
Flags: W
LayerCount: 2
Fore
SplineSet
502 -378 m 1,0,-1
 383 -378 l 1,1,-1
 256 935 l 1,2,-1
 377 935 l 1,3,-1
 502 -378 l 1,0,-1
EndSplineSet
EndChar

StartChar: bracketright
Encoding: 93 93 55
Width: 647
Flags: W
LayerCount: 2
Fore
SplineSet
181 -137 m 1,0,-1
 414 -137 l 1,1,-1
 780 1589 l 1,2,-1
 548 1589 l 1,3,-1
 569 1686 l 1,4,-1
 941 1686 l 1,5,-1
 533 -233 l 1,6,-1
 162 -233 l 1,7,-1
 181 -137 l 1,0,-1
EndSplineSet
EndChar

StartChar: asciicircum
Encoding: 94 94 56
Width: 982
Flags: W
LayerCount: 2
Fore
SplineSet
989 451 m 1,0,-1
 858 451 l 1,1,-1
 673 862 l 1,2,-1
 312 450 l 1,3,-1
 181 450 l 1,4,-1
 658 980 l 1,5,-1
 740 980 l 1,6,-1
 989 451 l 1,0,-1
EndSplineSet
EndChar

StartChar: underscore
Encoding: 95 95 57
Width: 920
Flags: W
LayerCount: 2
Fore
SplineSet
881 -247 m 1,0,-1
 -65 -247 l 1,1,-1
 -42 -140 l 1,2,-1
 902 -140 l 1,3,-1
 881 -247 l 1,0,-1
EndSplineSet
EndChar

StartChar: grave
Encoding: 96 96 58
Width: 212
Flags: W
LayerCount: 2
Fore
SplineSet
120 1002 m 1,0,1
 155 922 155 922 176 851 c 1,2,3
 183 799 183 799 172 805 c 1,4,5
 150 837 150 837 102.5 927 c 128,-1,6
 55 1017 55 1017 46 1049 c 1,7,8
 43 1086 43 1086 120 1002 c 1,0,1
EndSplineSet
EndChar

StartChar: a
Encoding: 97 97 59
Width: 768
Flags: W
LayerCount: 2
Fore
SplineSet
515 112 m 1,0,1
 377 19 377 19 344 5 c 0,2,3
 294 -16 294 -16 242 -16 c 0,4,5
 162 -16 162 -16 121 39 c 128,-1,6
 80 94 80 94 100 184 c 0,7,8
 112 240 112 240 145 281 c 0,9,10
 193 338 193 338 289.5 389 c 128,-1,11
 386 440 386 440 601 514 c 1,12,-1
 607 542 l 2,13,14
 631 659 631 659 604 702 c 128,-1,15
 577 745 577 745 506 745 c 0,16,17
 454 745 454 745 416 716 c 0,18,19
 378 688 378 688 370 650 c 2,20,-1
 362 602 l 2,21,22
 354 563 354 563 329 542 c 128,-1,23
 304 521 304 521 272 521 c 0,24,25
 241 521 241 521 225.5 542.5 c 128,-1,26
 210 564 210 564 218 602 c 0,27,28
 233 674 233 674 321 735.5 c 128,-1,29
 409 797 409 797 542 797 c 0,30,31
 647 797 647 797 704 762 c 0,32,33
 750 736 750 736 761 680 c 0,34,35
 768 644 768 644 744 532 c 2,36,-1
 688 269 l 2,37,38
 665 158 665 158 663.5 133 c 128,-1,39
 662 108 662 108 670.5 99.5 c 128,-1,40
 679 91 679 91 691 91 c 0,41,42
 706 91 706 91 716 97 c 0,43,44
 736 108 736 108 797 158 c 1,45,-1
 787 112 l 1,46,47
 666 -14 666 -14 581 -14 c 0,48,49
 540 -14 540 -14 521 14 c 128,-1,50
 502 42 502 42 515 112 c 1,0,1
527 167 m 1,51,-1
 589 462 l 1,52,53
 452 410 452 410 409 390 c 0,54,55
 335 353 335 353 297.5 312 c 128,-1,56
 260 271 260 271 251 223 c 0,57,58
 238 163 238 163 266 123 c 128,-1,59
 294 83 294 83 340 83 c 0,60,61
 404 83 404 83 527 167 c 1,51,-1
EndSplineSet
EndChar

StartChar: b
Encoding: 98 98 60
Width: 865
Flags: W
LayerCount: 2
Fore
SplineSet
401 640 m 1,0,1
 547 797 547 797 678 797 c 0,2,3
 797 797 797 797 863.5 695.5 c 128,-1,4
 930 594 930 594 893 416 c 0,5,6
 850 210 850 210 686 84 c 0,7,8
 546 -23 546 -23 401 -23 c 0,9,10
 334 -23 334 -23 269.5 1 c 128,-1,11
 205 25 205 25 142 74 c 1,12,-1
 312 876 l 2,13,14
 340 1008 340 1008 340.5 1038.5 c 128,-1,15
 341 1069 341 1069 329.5 1080 c 128,-1,16
 318 1091 318 1091 298 1091 c 0,17,18
 275 1091 275 1091 235 1078 c 1,19,-1
 230 1106 l 1,20,-1
 482 1201 l 1,21,-1
 521 1201 l 1,22,-1
 401 640 l 1,0,1
390 586 m 1,23,-1
 292 124 l 1,24,25
 326 82 326 82 367.5 60 c 128,-1,26
 409 38 409 38 457 38 c 0,27,28
 533 38 533 38 617.5 122 c 128,-1,29
 702 206 702 206 737 368 c 0,30,31
 769 517 769 517 719.5 597 c 128,-1,32
 670 677 670 677 586 677 c 0,33,34
 541 677 541 677 491 654 c 0,35,36
 454 637 454 637 390 586 c 1,23,-1
EndSplineSet
EndChar

StartChar: c
Encoding: 99 99 61
Width: 768
Flags: W
LayerCount: 2
Fore
SplineSet
774 294 m 1,0,1
 709 142 709 142 600.5 59.5 c 128,-1,2
 492 -23 492 -23 382 -23 c 0,3,4
 251 -23 251 -23 176 87.5 c 128,-1,5
 101 198 101 198 140 386 c 0,6,7
 180 568 180 568 312.5 682.5 c 128,-1,8
 445 797 445 797 598 797 c 0,9,10
 712 797 712 797 772.5 736.5 c 128,-1,11
 833 676 833 676 818 611 c 0,12,13
 812 578 812 578 787 558.5 c 128,-1,14
 762 539 762 539 725 539 c 0,15,16
 674 539 674 539 655 571 c 0,17,18
 647 589 647 589 652.5 639 c 128,-1,19
 658 689 658 689 634 715 c 0,20,21
 611 740 611 740 558 740 c 0,22,23
 473 740 473 740 408 678 c 0,24,25
 322 594 322 594 294 458 c 0,26,27
 264 320 264 320 309 214 c 128,-1,28
 354 108 354 108 470 108 c 0,29,30
 552 108 552 108 631 164 c 0,31,32
 686 204 686 204 751 306 c 1,33,-1
 774 294 l 1,0,1
EndSplineSet
EndChar

StartChar: d
Encoding: 100 100 62
Width: 865
Flags: W
LayerCount: 2
Fore
SplineSet
619 86 m 1,0,1
 550 28 550 28 490.5 2.5 c 128,-1,2
 431 -23 431 -23 368 -23 c 0,3,4
 242 -23 242 -23 169 82.5 c 128,-1,5
 96 188 96 188 132 355 c 256,6,7
 168 522 168 522 302 659.5 c 128,-1,8
 436 797 436 797 601 797 c 0,9,10
 703 797 703 797 756 733 c 1,11,-1
 787 876 l 2,12,13
 814 1008 814 1008 814.5 1038.5 c 128,-1,14
 815 1069 815 1069 803.5 1080 c 128,-1,15
 792 1091 792 1091 772 1091 c 0,16,17
 750 1091 750 1091 710 1078 c 1,18,-1
 706 1106 l 1,19,-1
 956 1201 l 1,20,-1
 995 1201 l 1,21,-1
 805 306 l 2,22,23
 776 172 776 172 776 141 c 128,-1,24
 776 110 776 110 787 98 c 128,-1,25
 798 86 798 86 817 86 c 0,26,27
 840 86 840 86 881 101 c 1,28,-1
 884 72 l 1,29,-1
 635 -23 l 1,30,-1
 595 -23 l 1,31,-1
 619 86 l 1,0,1
631 145 m 1,32,-1
 716 545 l 1,33,34
 724 602 724 602 708 649.5 c 128,-1,35
 692 697 692 697 656 721 c 128,-1,36
 620 745 620 745 580 745 c 0,37,38
 506 745 506 745 433 678 c 0,39,40
 337 590 337 590 301 421 c 0,41,42
 265 251 265 251 320.5 160.5 c 128,-1,43
 376 70 376 70 467 70 c 0,44,45
 544 70 544 70 631 145 c 1,32,-1
EndSplineSet
EndChar

StartChar: e
Encoding: 101 101 63
Width: 768
Flags: W
LayerCount: 2
Fore
SplineSet
286 482 m 1,0,1
 250 311 250 311 312 212 c 0,2,3
 376 114 376 114 490 114 c 0,4,5
 566 114 566 114 631 156 c 128,-1,6
 696 198 696 198 756 299 c 1,7,-1
 779 282 l 1,8,9
 736 167 736 167 630 72 c 128,-1,10
 524 -23 524 -23 397 -23 c 0,11,12
 258 -23 258 -23 181 85 c 128,-1,13
 104 193 104 193 144 377 c 0,14,15
 186 576 186 576 311.5 686.5 c 128,-1,16
 437 797 437 797 590 797 c 0,17,18
 720 797 720 797 786 711.5 c 128,-1,19
 852 626 852 626 822 482 c 1,20,-1
 286 482 l 1,0,1
295 532 m 1,21,-1
 655 532 l 1,22,23
 667 606 667 606 659 636 c 0,24,25
 648 683 648 683 612 710 c 128,-1,26
 576 737 576 737 530 737 c 0,27,28
 461 737 461 737 393.5 683 c 128,-1,29
 326 629 326 629 295 532 c 1,21,-1
EndSplineSet
EndChar

StartChar: f
Encoding: 102 102 64
Width: 576
Flags: W
LayerCount: 2
Fore
SplineSet
508 713 m 1,0,-1
 401 205 l 2,1,2
 377 96 377 96 394 67 c 0,3,4
 418 31 418 31 470 31 c 2,5,-1
 541 31 l 1,6,-1
 534 0 l 1,7,-1
 72 0 l 1,8,-1
 78 31 l 1,9,-1
 113 31 l 2,10,11
 146 31 146 31 177.5 48 c 128,-1,12
 209 65 209 65 225.5 93 c 128,-1,13
 242 121 242 121 260 205 c 2,14,-1
 368 713 l 1,15,-1
 217 713 l 1,16,-1
 230 774 l 1,17,-1
 382 774 l 1,18,-1
 392 824 l 2,19,20
 418 940 418 940 471 1020 c 128,-1,21
 524 1100 524 1100 612 1150 c 128,-1,22
 700 1200 700 1200 794 1200 c 0,23,24
 883 1200 883 1200 946 1142 c 0,25,26
 986 1104 986 1104 976 1057 c 0,27,28
 971 1032 971 1032 944 1009 c 128,-1,29
 917 986 917 986 892 986 c 0,30,31
 872 986 872 986 853.5 1000.5 c 128,-1,32
 835 1015 835 1015 813.5 1060.5 c 128,-1,33
 792 1106 792 1106 769 1122 c 0,34,35
 746 1139 746 1139 715 1139 c 0,36,37
 676 1139 676 1139 644 1118 c 128,-1,38
 612 1097 612 1097 591.5 1053.5 c 128,-1,39
 571 1010 571 1010 533 830 c 2,40,-1
 521 774 l 1,41,-1
 719 774 l 1,42,-1
 707 713 l 1,43,-1
 508 713 l 1,0,-1
EndSplineSet
EndChar

StartChar: g
Encoding: 103 103 65
Width: 865
Flags: W
LayerCount: 2
Fore
SplineSet
320 282 m 1,0,1
 257 317 257 317 231.5 379.5 c 128,-1,2
 206 442 206 442 223 516 c 0,3,4
 248 631 248 631 352 714 c 128,-1,5
 456 797 456 797 592 797 c 0,6,7
 702 797 702 797 772 743 c 1,8,-1
 936 743 l 2,9,10
 972 743 972 743 977 740.5 c 128,-1,11
 982 738 982 738 984 733 c 0,12,13
 989 726 989 726 984 707 c 0,14,15
 979 684 979 684 973 676 c 0,16,17
 970 672 970 672 962.5 669 c 128,-1,18
 955 666 955 666 919 666 c 2,19,-1
 820 666 l 1,20,21
 853 606 853 606 832 511 c 0,22,23
 810 403 810 403 711 326.5 c 128,-1,24
 612 250 612 250 473 250 c 0,25,26
 415 250 415 250 358 266 c 1,27,28
 314 234 314 234 295.5 210 c 128,-1,29
 277 186 277 186 275 169 c 0,30,31
 271 154 271 154 282.5 140.5 c 128,-1,32
 294 127 294 127 332 121 c 0,33,34
 356 119 356 119 450 116 c 0,35,36
 623 112 623 112 673 103 c 0,37,38
 749 92 749 92 786 45 c 128,-1,39
 823 -2 823 -2 808 -71 c 0,40,41
 787 -167 787 -167 680 -251 c 0,42,43
 522 -374 522 -374 311 -374 c 0,44,45
 146 -374 146 -374 50 -300 c 0,46,47
 -2 -258 -2 -258 6 -212 c 0,48,49
 11 -192 11 -192 24 -172 c 0,50,51
 44 -140 44 -140 101 -84 c 0,52,53
 109 -77 109 -77 206 6 c 1,54,55
 169 32 169 32 154.5 53 c 128,-1,56
 140 74 140 74 146 101 c 0,57,58
 154 130 154 130 186 169.5 c 128,-1,59
 218 209 218 209 320 282 c 1,0,1
568 756 m 0,60,61
 506 756 506 756 453.5 706 c 128,-1,62
 401 656 401 656 378 553 c 0,63,64
 349 420 349 420 391 347 c 0,65,66
 424 290 424 290 491 290 c 0,67,68
 556 290 556 290 607 338 c 128,-1,69
 658 386 658 386 680 490 c 0,70,71
 708 624 708 624 666 700 c 0,72,73
 636 756 636 756 568 756 c 0,60,61
252 0 m 1,74,75
 204 -43 204 -43 175 -80.5 c 128,-1,76
 146 -118 146 -118 140 -149 c 0,77,78
 131 -190 131 -190 174 -220 c 0,79,80
 248 -272 248 -272 408 -272 c 0,81,82
 559 -272 559 -272 642.5 -218 c 128,-1,83
 726 -164 726 -164 740 -103 c 0,84,85
 749 -60 749 -60 709 -41 c 0,86,87
 670 -23 670 -23 541 -19 c 0,88,89
 352 -14 352 -14 252 0 c 1,74,75
EndSplineSet
EndChar

StartChar: h
Encoding: 104 104 66
Width: 865
Flags: W
LayerCount: 2
Fore
SplineSet
535 1201 m 1,0,-1
 415 636 l 1,1,2
 532 738 532 738 593 767.5 c 128,-1,3
 654 797 654 797 708 797 c 0,4,5
 775 797 775 797 814 761 c 128,-1,6
 853 725 853 725 860 647 c 0,7,8
 865 593 865 593 834 449 c 2,9,-1
 776 175 l 2,10,11
 761 101 761 101 766 74 c 0,12,13
 770 54 770 54 788 42.5 c 128,-1,14
 806 31 806 31 860 31 c 1,15,-1
 854 0 l 1,16,-1
 474 0 l 1,17,-1
 480 31 l 1,18,-1
 498 31 l 2,19,20
 552 31 552 31 576.5 47.5 c 128,-1,21
 601 64 601 64 617 95 c 0,22,23
 620 109 620 109 636 175 c 2,24,-1
 694 449 l 2,25,26
 720 576 720 576 715 615.5 c 128,-1,27
 710 655 710 655 686 675 c 128,-1,28
 662 695 662 695 622 695 c 0,29,30
 580 695 580 695 530.5 672.5 c 128,-1,31
 481 650 481 650 404 584 c 1,32,-1
 318 175 l 2,33,34
 301 95 301 95 306 76.5 c 128,-1,35
 311 58 311 58 332.5 44.5 c 128,-1,36
 354 31 354 31 413 31 c 1,37,-1
 407 0 l 1,38,-1
 23 0 l 1,39,-1
 30 31 l 1,40,41
 80 31 80 31 113 47 c 0,42,43
 132 55 132 55 147.5 78.5 c 128,-1,44
 163 102 163 102 179 175 c 2,45,-1
 328 876 l 2,46,47
 355 1008 355 1008 355.5 1038.5 c 128,-1,48
 356 1069 356 1069 345 1080 c 128,-1,49
 334 1091 334 1091 312 1091 c 0,50,51
 294 1091 294 1091 251 1078 c 1,52,-1
 245 1106 l 1,53,-1
 497 1201 l 1,54,-1
 535 1201 l 1,0,-1
EndSplineSet
EndChar

StartChar: i
Encoding: 105 105 67
Width: 480
Flags: W
LayerCount: 2
Fore
SplineSet
506 1201 m 0,0,1
 541 1201 541 1201 560.5 1176 c 128,-1,2
 580 1151 580 1151 572 1116 c 0,3,4
 565 1080 565 1080 535 1055 c 128,-1,5
 505 1030 505 1030 470 1030 c 0,6,7
 434 1030 434 1030 414 1055 c 128,-1,8
 394 1080 394 1080 401 1116 c 0,9,10
 409 1151 409 1151 439 1176 c 128,-1,11
 469 1201 469 1201 506 1201 c 0,0,1
490 797 m 1,12,-1
 358 175 l 2,13,14
 342 102 342 102 347.5 78 c 128,-1,15
 353 54 353 54 371.5 42.5 c 128,-1,16
 390 31 390 31 444 31 c 1,17,-1
 438 0 l 1,18,-1
 62 0 l 1,19,-1
 68 31 l 1,20,21
 126 31 126 31 147.5 42 c 128,-1,22
 169 53 169 53 185.5 78 c 128,-1,23
 202 103 202 103 217 175 c 2,24,-1
 281 473 l 2,25,26
 307 599 307 599 307 636 c 0,27,28
 307 664 307 664 296.5 674 c 128,-1,29
 286 684 286 684 265 684 c 0,30,31
 241 684 241 684 205 672 c 1,32,-1
 199 702 l 1,33,-1
 454 797 l 1,34,-1
 490 797 l 1,12,-1
EndSplineSet
EndChar

StartChar: j
Encoding: 106 106 68
Width: 480
Flags: W
LayerCount: 2
Fore
SplineSet
505 1201 m 256,0,1
 541 1201 541 1201 561 1176 c 128,-1,2
 581 1151 581 1151 574 1115 c 0,3,4
 566 1079 566 1079 535.5 1053.5 c 128,-1,5
 505 1028 505 1028 469 1028 c 256,6,7
 433 1028 433 1028 412.5 1053.5 c 128,-1,8
 392 1079 392 1079 401 1115 c 0,9,10
 408 1151 408 1151 438.5 1176 c 128,-1,11
 469 1201 469 1201 505 1201 c 256,0,1
492 797 m 1,12,-1
 326 18 l 2,13,14
 284 -180 284 -180 179 -277 c 128,-1,15
 74 -374 74 -374 -60 -374 c 0,16,17
 -137 -374 -137 -374 -168 -346 c 128,-1,18
 -199 -318 -199 -318 -194 -288 c 0,19,20
 -188 -259 -188 -259 -162.5 -237.5 c 128,-1,21
 -137 -216 -137 -216 -109 -216 c 0,22,23
 -86 -216 -86 -216 -66 -227 c 0,24,25
 -53 -233 -53 -233 -20 -269.5 c 128,-1,26
 13 -306 13 -306 40 -306 c 0,27,28
 60 -306 60 -306 83 -291 c 128,-1,29
 106 -276 106 -276 123 -239 c 128,-1,30
 140 -202 140 -202 167 -79 c 2,31,-1
 283 470 l 2,32,33
 311 599 311 599 310 636 c 0,34,35
 311 664 311 664 300 674 c 128,-1,36
 289 684 289 684 268 684 c 0,37,38
 244 684 244 684 208 672 c 1,39,-1
 202 702 l 1,40,-1
 455 797 l 1,41,-1
 492 797 l 1,12,-1
EndSplineSet
EndChar

StartChar: k
Encoding: 107 107 69
Width: 865
Flags: W
LayerCount: 2
Fore
SplineSet
538 1201 m 1,0,-1
 374 431 l 1,1,-1
 608 611 l 2,2,3
 684 668 684 668 697 683 c 0,4,5
 707 694 707 694 708 703 c 0,6,7
 712 720 712 720 701 732.5 c 128,-1,8
 690 745 690 745 658 746 c 1,9,-1
 664 774 l 1,10,-1
 998 774 l 1,11,-1
 994 746 l 1,12,13
 925 745 925 745 874 726 c 128,-1,14
 823 707 823 707 758 656 c 2,15,-1
 521 473 l 1,16,-1
 665 222 l 2,17,18
 726 119 726 119 750 91 c 0,19,20
 781 50 781 50 809 40 c 0,21,22
 829 31 829 31 882 31 c 1,23,-1
 876 0 l 1,24,-1
 499 0 l 1,25,-1
 506 31 l 1,26,27
 538 31 538 31 551 39.5 c 128,-1,28
 564 48 564 48 568 66 c 256,29,30
 572 84 572 84 547 127 c 2,31,-1
 374 431 l 1,32,-1
 320 174 l 2,33,34
 304 100 304 100 309 76 c 128,-1,35
 314 52 314 52 331.5 41.5 c 128,-1,36
 349 31 349 31 414 31 c 1,37,-1
 408 0 l 1,38,-1
 14 0 l 1,39,-1
 22 31 l 1,40,41
 80 31 80 31 112 44 c 0,42,43
 131 54 131 54 145 74 c 0,44,45
 163 101 163 101 179 170 c 2,46,-1
 328 875 l 2,47,48
 356 1008 356 1008 357 1038.5 c 128,-1,49
 358 1069 358 1069 346.5 1080.5 c 128,-1,50
 335 1092 335 1092 313 1092 c 0,51,52
 295 1092 295 1092 257 1078 c 1,53,-1
 250 1106 l 1,54,-1
 498 1201 l 1,55,-1
 538 1201 l 1,0,-1
EndSplineSet
EndChar

StartChar: l
Encoding: 108 108 70
Width: 480
Flags: W
LayerCount: 2
Fore
SplineSet
575 1201 m 1,0,-1
 356 175 l 2,1,2
 341 102 341 102 347 78.5 c 128,-1,3
 353 55 353 55 372 43 c 128,-1,4
 391 31 391 31 452 31 c 1,5,-1
 445 0 l 1,6,-1
 66 0 l 1,7,-1
 72 31 l 1,8,9
 126 31 126 31 147.5 42 c 128,-1,10
 169 53 169 53 184.5 78 c 128,-1,11
 200 103 200 103 216 175 c 2,12,-1
 365 877 l 2,13,14
 392 1008 392 1008 393.5 1038.5 c 128,-1,15
 395 1069 395 1069 384 1080 c 128,-1,16
 373 1091 373 1091 353 1091 c 0,17,18
 330 1091 330 1091 294 1078 c 1,19,-1
 286 1106 l 1,20,-1
 536 1201 l 1,21,-1
 575 1201 l 1,0,-1
EndSplineSet
EndChar

StartChar: m
Encoding: 109 109 71
Width: 1345
Flags: W
LayerCount: 2
Fore
SplineSet
418 631 m 1,0,1
 521 716 521 716 538 728 c 0,2,3
 583 761 583 761 630.5 779 c 128,-1,4
 678 797 678 797 721 797 c 0,5,6
 794 797 794 797 837.5 754.5 c 128,-1,7
 881 712 881 712 882 631 c 1,8,9
 990 733 990 733 1056.5 765 c 128,-1,10
 1123 797 1123 797 1187 797 c 0,11,12
 1248 797 1248 797 1289.5 765 c 128,-1,13
 1331 733 1331 733 1343 661 c 0,14,15
 1351 612 1351 612 1330 508 c 2,16,-1
 1259 175 l 2,17,18
 1243 102 1243 102 1248 74 c 0,19,20
 1253 58 1253 58 1272.5 44.5 c 128,-1,21
 1292 31 1292 31 1344 31 c 1,22,-1
 1338 0 l 1,23,-1
 956 0 l 1,24,-1
 964 31 l 1,25,-1
 979 31 l 2,26,27
 1028 31 1028 31 1060 49 c 0,28,29
 1082 64 1082 64 1097 92 c 0,30,31
 1104 108 1104 108 1118 175 c 2,32,-1
 1189 508 l 2,33,34
 1210 602 1210 602 1194 641 c 0,35,36
 1172 695 1172 695 1099 695 c 0,37,38
 1055 695 1055 695 1005 672.5 c 128,-1,39
 955 650 955 650 878 589 c 1,40,-1
 875 581 l 1,41,-1
 869 544 l 1,42,-1
 791 175 l 2,43,44
 774 95 774 95 778 76.5 c 128,-1,45
 782 58 782 58 804.5 44.5 c 128,-1,46
 827 31 827 31 886 31 c 1,47,-1
 880 0 l 1,48,-1
 488 0 l 1,49,-1
 494 31 l 1,50,51
 559 31 559 31 586 46 c 128,-1,52
 613 61 613 61 629 91 c 0,53,54
 637 106 637 106 652 175 c 2,55,-1
 722 508 l 2,56,57
 743 602 743 602 722 644 c 0,58,59
 697 698 697 698 630 698 c 0,60,61
 586 698 586 698 534 673 c 0,62,63
 456 636 456 636 409 589 c 1,64,-1
 322 175 l 2,65,66
 304 100 304 100 310 76.5 c 128,-1,67
 316 53 316 53 334.5 42 c 128,-1,68
 353 31 353 31 416 31 c 1,69,-1
 409 0 l 1,70,-1
 28 0 l 1,71,-1
 34 31 l 1,72,73
 86 31 86 31 109.5 42 c 128,-1,74
 133 53 133 53 149.5 78 c 128,-1,75
 166 103 166 103 181 175 c 2,76,-1
 244 470 l 2,77,78
 271 598 271 598 271 636 c 0,79,80
 271 664 271 664 261 674 c 128,-1,81
 251 684 251 684 228 684 c 256,82,83
 205 684 205 684 170 672 c 1,84,-1
 163 702 l 1,85,-1
 416 797 l 1,86,-1
 454 797 l 1,87,-1
 418 631 l 1,0,1
EndSplineSet
EndChar

StartChar: n
Encoding: 110 110 72
Width: 865
Flags: W
LayerCount: 2
Fore
SplineSet
414 632 m 1,0,1
 586 797 586 797 708 797 c 0,2,3
 770 797 770 797 810 765 c 128,-1,4
 850 733 850 733 860 661 c 0,5,6
 868 611 868 611 846 505 c 2,7,-1
 776 175 l 2,8,9
 761 101 761 101 767 74 c 0,10,11
 770 54 770 54 789 42.5 c 128,-1,12
 808 31 808 31 864 31 c 1,13,-1
 858 0 l 1,14,-1
 475 0 l 1,15,-1
 481 31 l 1,16,-1
 497 31 l 2,17,18
 551 31 551 31 576 47.5 c 128,-1,19
 601 64 601 64 617 95 c 0,20,21
 622 108 622 108 637 175 c 2,22,-1
 704 492 l 2,23,24
 726 598 726 598 708.5 645 c 128,-1,25
 691 692 691 692 626 692 c 0,26,27
 526 692 526 692 403 583 c 1,28,-1
 317 175 l 2,29,30
 300 96 300 96 305 78 c 0,31,32
 312 53 312 53 330 42 c 128,-1,33
 348 31 348 31 412 31 c 1,34,-1
 406 0 l 1,35,-1
 23 0 l 1,36,-1
 30 31 l 1,37,-1
 47 31 l 2,38,39
 106 31 106 31 133 61 c 128,-1,40
 160 91 160 91 178 175 c 2,41,-1
 239 462 l 2,42,43
 269 602 269 602 269 632 c 128,-1,44
 269 662 269 662 257.5 673 c 128,-1,45
 246 684 246 684 224 684 c 0,46,47
 200 684 200 684 166 672 c 1,48,-1
 160 702 l 1,49,-1
 412 797 l 1,50,-1
 449 797 l 1,51,-1
 414 632 l 1,0,1
EndSplineSet
EndChar

StartChar: o
Encoding: 111 111 73
Width: 865
Flags: W
LayerCount: 2
Fore
SplineSet
602 797 m 0,0,1
 778 797 778 797 856 664 c 0,2,3
 920 550 920 550 889 401 c 0,4,5
 866 298 866 298 795 191 c 128,-1,6
 724 84 724 84 624 30.5 c 128,-1,7
 524 -23 524 -23 418 -23 c 0,8,9
 242 -23 242 -23 170 116 c 0,10,11
 107 233 107 233 138 379 c 0,12,13
 161 486 161 486 236.5 591 c 128,-1,14
 312 696 312 696 408.5 746.5 c 128,-1,15
 505 797 505 797 602 797 c 0,0,1
564 742 m 0,16,17
 518 742 518 742 468 715.5 c 128,-1,18
 418 689 418 689 375 622.5 c 128,-1,19
 332 556 332 556 311 450 c 0,20,21
 275 281 275 281 315.5 158.5 c 128,-1,22
 356 36 356 36 467 36 c 0,23,24
 550 36 550 36 617 104 c 128,-1,25
 684 172 684 172 719 336 c 0,26,27
 763 542 763 542 700 661 c 0,28,29
 656 742 656 742 564 742 c 0,16,17
EndSplineSet
EndChar

StartChar: p
Encoding: 112 112 74
Width: 865
Flags: W
LayerCount: 2
Fore
SplineSet
145 697 m 1,0,-1
 404 793 l 1,1,-1
 436 793 l 1,2,-1
 398 612 l 1,3,4
 480 715 480 715 549.5 756 c 128,-1,5
 619 797 619 797 685 797 c 0,6,7
 802 797 802 797 859 706 c 0,8,9
 931 594 931 594 893 415 c 0,10,11
 851 215 851 215 708 84 c 0,12,13
 592 -23 592 -23 448 -23 c 0,14,15
 385 -23 385 -23 342 -6 c 0,16,17
 312 6 312 6 277 44 c 1,18,-1
 227 -191 l 2,19,20
 210 -270 210 -270 215.5 -291.5 c 128,-1,21
 221 -313 221 -313 242 -325.5 c 128,-1,22
 263 -338 263 -338 326 -338 c 1,23,-1
 320 -370 l 1,24,-1
 -84 -370 l 1,25,-1
 -78 -338 l 1,26,-1
 -58 -338 l 2,27,28
 -11 -340 -11 -340 26 -322 c 0,29,30
 44 -312 44 -312 57.5 -291 c 128,-1,31
 71 -270 71 -270 89 -186 c 2,32,-1
 244 546 l 2,33,34
 259 620 259 620 257.5 640.5 c 128,-1,35
 256 661 256 661 243 671.5 c 128,-1,36
 230 682 230 682 205 682 c 0,37,38
 185 682 185 682 150 670 c 1,39,-1
 145 697 l 1,0,-1
388 563 m 1,40,-1
 326 274 l 2,41,42
 306 180 306 180 308 150 c 0,43,44
 310 101 310 101 347.5 64.5 c 128,-1,45
 385 28 385 28 455 28 c 0,46,47
 540 28 540 28 606 92 c 0,48,49
 694 180 694 180 726 336 c 0,50,51
 764 514 764 514 707 608 c 0,52,53
 666 673 666 673 593 673 c 0,54,55
 551 673 551 673 508 654 c 0,56,57
 474 638 474 638 388 563 c 1,40,-1
EndSplineSet
EndChar

StartChar: q
Encoding: 113 113 75
Width: 865
Flags: W
LayerCount: 2
Fore
SplineSet
908 797 m 1,0,-1
 697 -198 l 2,1,2
 682 -272 682 -272 686.5 -293 c 128,-1,3
 691 -314 691 -314 710.5 -326 c 128,-1,4
 730 -338 730 -338 792 -338 c 1,5,-1
 786 -370 l 1,6,-1
 396 -370 l 1,7,-1
 402 -338 l 1,8,-1
 418 -338 l 2,9,10
 466 -338 466 -338 493 -325 c 0,11,12
 512 -316 512 -316 527 -292.5 c 128,-1,13
 542 -269 542 -269 558 -198 c 2,14,-1
 628 134 l 1,15,16
 532 43 532 43 467 10 c 128,-1,17
 402 -23 402 -23 341 -23 c 0,18,19
 229 -23 229 -23 162 78.5 c 128,-1,20
 95 180 95 180 131 353 c 0,21,22
 173 550 173 550 316.5 673.5 c 128,-1,23
 460 797 460 797 624 797 c 0,24,25
 673 797 673 797 710.5 783.5 c 128,-1,26
 748 770 748 770 774 743 c 1,27,28
 828 767 828 767 880 797 c 1,29,-1
 908 797 l 1,0,-1
638 188 m 1,30,-1
 716 551 l 2,31,32
 730 614 730 614 721.5 650 c 128,-1,33
 713 686 713 686 675.5 711.5 c 128,-1,34
 638 737 638 737 586 737 c 0,35,36
 491 737 491 737 406.5 656.5 c 128,-1,37
 322 576 322 576 287 414 c 0,38,39
 253 258 253 258 304.5 176.5 c 128,-1,40
 356 95 356 95 454 95 c 0,41,42
 504 95 504 95 547 116.5 c 128,-1,43
 590 138 590 138 638 188 c 1,30,-1
EndSplineSet
EndChar

StartChar: r
Encoding: 114 114 76
Width: 635
Flags: W
LayerCount: 2
Fore
SplineSet
450 797 m 1,0,-1
 407 594 l 1,1,2
 577 784 577 784 679 784 c 0,3,4
 726 784 726 784 750.5 755.5 c 128,-1,5
 775 727 775 727 768 691 c 0,6,7
 761 656 761 656 734 634 c 128,-1,8
 707 612 707 612 677 612 c 256,9,10
 647 612 647 612 616.5 641 c 128,-1,11
 586 670 586 670 568 670 c 0,12,13
 552 670 552 670 532 653 c 0,14,15
 486 619 486 619 391 522 c 1,16,-1
 319 180 l 2,17,18
 305 116 305 116 313 84 c 0,19,20
 320 61 320 61 345 46 c 128,-1,21
 370 31 370 31 422 31 c 1,22,-1
 416 0 l 1,23,-1
 19 0 l 1,24,-1
 25 31 l 1,25,26
 84 31 84 31 118 48 c 0,27,28
 142 62 142 62 156 92 c 0,29,30
 163 107 163 107 179 174 c 2,31,-1
 242 474 l 2,32,33
 270 610 270 610 270 635.5 c 128,-1,34
 270 661 270 661 257.5 672.5 c 128,-1,35
 245 684 245 684 223 684 c 0,36,37
 198 684 198 684 162 672 c 1,38,-1
 160 702 l 1,39,-1
 414 797 l 1,40,-1
 450 797 l 1,0,-1
EndSplineSet
EndChar

StartChar: s
Encoding: 115 115 77
Width: 673
Flags: W
LayerCount: 2
Fore
SplineSet
724 797 m 1,0,-1
 667 533 l 1,1,-1
 638 533 l 1,2,3
 634 656 634 656 593 701 c 128,-1,4
 552 746 552 746 474 746 c 0,5,6
 415 746 415 746 372 715 c 128,-1,7
 329 684 329 684 322 647 c 0,8,9
 311 599 311 599 330 565 c 0,10,11
 349 530 349 530 422 492 c 2,12,-1
 533 432 l 2,13,14
 686 348 686 348 656 211 c 0,15,16
 635 106 635 106 541.5 41.5 c 128,-1,17
 448 -23 448 -23 348 -23 c 0,18,19
 277 -23 277 -23 192 2 c 0,20,21
 166 11 166 11 148 11 c 0,22,23
 128 11 128 11 113 -12 c 1,24,-1
 84 -12 l 1,25,-1
 144 264 l 1,26,-1
 172 264 l 1,27,28
 170 145 170 145 223.5 85.5 c 128,-1,29
 277 26 277 26 361 26 c 0,30,31
 419 26 419 26 463.5 60.5 c 128,-1,32
 508 95 508 95 517 143 c 0,33,34
 530 200 530 200 497 240.5 c 128,-1,35
 464 281 464 281 354.5 341.5 c 128,-1,36
 245 402 245 402 217 451 c 0,37,38
 190 499 190 499 206 572 c 0,39,40
 226 668 226 668 305 732.5 c 128,-1,41
 384 797 384 797 488 797 c 0,42,43
 534 797 534 797 594 778 c 0,44,45
 635 764 635 764 649 764 c 0,46,47
 662 764 662 764 672 770 c 128,-1,48
 682 776 682 776 695 797 c 1,49,-1
 724 797 l 1,0,-1
EndSplineSet
EndChar

StartChar: t
Encoding: 116 116 78
Width: 480
Flags: W
LayerCount: 2
Fore
SplineSet
497 1028 m 1,0,-1
 443 774 l 1,1,-1
 623 774 l 1,2,-1
 611 715 l 1,3,-1
 430 715 l 1,4,-1
 323 214 l 2,5,6
 307 137 307 137 323.5 111 c 128,-1,7
 340 85 340 85 374 85 c 0,8,9
 401 85 401 85 431.5 102.5 c 128,-1,10
 462 120 462 120 482 154 c 1,11,-1
 516 154 l 1,12,13
 469 71 469 71 405.5 29 c 128,-1,14
 342 -13 342 -13 286 -13 c 0,15,16
 246 -13 246 -13 213.5 9 c 128,-1,17
 181 31 181 31 172 70.5 c 128,-1,18
 163 110 163 110 180 194 c 2,19,-1
 290 715 l 1,20,-1
 168 715 l 1,21,-1
 174 743 l 1,22,23
 224 761 224 761 282.5 805.5 c 128,-1,24
 341 850 341 850 391 911 c 0,25,26
 418 943 418 943 470 1028 c 1,27,-1
 497 1028 l 1,0,-1
EndSplineSet
EndChar

StartChar: u
Encoding: 117 117 79
Width: 865
Flags: W
LayerCount: 2
Fore
SplineSet
896 774 m 1,0,-1
 797 305 l 2,1,2
 769 172 769 172 769 141 c 128,-1,3
 769 110 769 110 780 98 c 128,-1,4
 791 86 791 86 810 86 c 0,5,6
 835 86 835 86 872 101 c 1,7,-1
 877 72 l 1,8,-1
 626 -23 l 1,9,-1
 588 -23 l 1,10,-1
 623 140 l 1,11,12
 499 31 499 31 441 4 c 128,-1,13
 383 -23 383 -23 325 -23 c 0,14,15
 259 -23 259 -23 219.5 14.5 c 128,-1,16
 180 52 180 52 174.5 111 c 128,-1,17
 169 170 169 170 191 277 c 2,18,-1
 265 623 l 2,19,20
 277 678 277 678 268.5 699 c 128,-1,21
 260 720 260 720 240 732 c 128,-1,22
 220 744 220 744 160 743 c 1,23,-1
 166 774 l 1,24,-1
 436 774 l 1,25,-1
 326 256 l 2,26,27
 304 148 304 148 334.5 114 c 128,-1,28
 365 80 365 80 418 80 c 0,29,30
 454 80 454 80 505.5 103 c 128,-1,31
 557 126 557 126 634 190 c 1,32,-1
 726 629 l 2,33,34
 740 695 740 695 721 718.5 c 128,-1,35
 702 742 702 742 626 743 c 1,36,-1
 632 774 l 1,37,-1
 896 774 l 1,0,-1
EndSplineSet
EndChar

StartChar: v
Encoding: 118 118 80
Width: 865
Flags: W
LayerCount: 2
Fore
SplineSet
179 774 m 1,0,-1
 541 774 l 1,1,-1
 535 743 l 1,2,-1
 512 743 l 2,3,4
 480 743 480 743 459 726.5 c 128,-1,5
 438 710 438 710 432 683 c 0,6,7
 426 654 426 654 436 613 c 2,8,-1
 523 186 l 1,9,-1
 798 629 l 2,10,11
 829 677 829 677 834 701 c 0,12,13
 836 713 836 713 830 720 c 0,14,15
 824 733 824 733 810.5 738 c 128,-1,16
 797 743 797 743 754 743 c 1,17,-1
 761 774 l 1,18,-1
 1013 774 l 1,19,-1
 1007 743 l 1,20,21
 961 739 961 739 941 725 c 0,22,23
 906 700 906 700 870 640 c 2,24,-1
 455 -23 l 1,25,-1
 420 -23 l 1,26,-1
 283 629 l 2,27,28
 274 674 274 674 261 694.5 c 128,-1,29
 248 715 248 715 224 728 c 0,30,31
 214 736 214 736 172 743 c 1,32,-1
 179 774 l 1,0,-1
EndSplineSet
EndChar

StartChar: w
Encoding: 119 119 81
Width: 1249
Flags: W
LayerCount: 2
Fore
SplineSet
174 774 m 1,0,-1
 499 774 l 1,1,-1
 493 743 l 1,2,3
 446 739 446 739 430 726.5 c 128,-1,4
 414 714 414 714 409 691 c 0,5,6
 403 665 403 665 409 628 c 2,7,-1
 480 181 l 1,8,-1
 725 544 l 1,9,-1
 704 658 l 2,10,11
 695 708 695 708 666 728 c 0,12,13
 650 740 650 740 600 743 c 1,14,-1
 606 774 l 1,15,-1
 974 774 l 1,16,-1
 968 743 l 1,17,18
 907 740 907 740 876 720 c 0,19,20
 858 708 858 708 851 678 c 0,21,22
 848 661 848 661 851 643 c 2,23,-1
 931 198 l 1,24,-1
 1187 628 l 2,25,26
 1213 673 1213 673 1219 700 c 0,27,28
 1223 716 1223 716 1208.5 729 c 128,-1,29
 1194 742 1194 742 1147 743 c 1,30,-1
 1153 774 l 1,31,-1
 1397 774 l 1,32,-1
 1391 743 l 1,33,34
 1315 732 1315 732 1262 643 c 2,35,-1
 862 -23 l 1,36,-1
 827 -23 l 1,37,-1
 738 470 l 1,38,-1
 408 -23 l 1,39,-1
 377 -23 l 1,40,-1
 266 628 l 2,41,42
 254 689 254 689 235 710.5 c 128,-1,43
 216 732 216 732 168 743 c 1,44,-1
 174 774 l 1,0,-1
EndSplineSet
EndChar

StartChar: x
Encoding: 120 120 82
Width: 865
Flags: W
LayerCount: 2
Fore
SplineSet
187 774 m 1,0,-1
 550 774 l 1,1,-1
 544 743 l 1,2,3
 510 743 510 743 493 731 c 128,-1,4
 476 719 476 719 472 700 c 0,5,6
 468 679 468 679 488 637 c 0,7,8
 496 623 496 623 508 594 c 2,9,-1
 545 506 l 1,10,-1
 626 594 l 2,11,12
 704 678 704 678 708 700 c 0,13,14
 713 718 713 718 701.5 730.5 c 128,-1,15
 690 743 690 743 658 743 c 1,16,-1
 665 774 l 1,17,-1
 926 774 l 1,18,-1
 919 743 l 1,19,20
 877 740 877 740 842 720 c 0,21,22
 796 691 796 691 702 594 c 2,23,-1
 568 454 l 1,24,-1
 701 176 l 2,25,26
 750 74 750 74 776.5 53 c 128,-1,27
 803 32 803 32 850 31 c 1,28,-1
 844 0 l 1,29,-1
 480 0 l 1,30,-1
 486 31 l 1,31,32
 523 31 523 31 548 48 c 0,33,34
 566 59 566 59 570 78 c 0,35,36
 575 98 575 98 538 176 c 2,37,-1
 458 342 l 1,38,-1
 300 176 l 2,39,40
 224 100 224 100 223 85 c 0,41,42
 218 66 218 66 234 48.5 c 128,-1,43
 250 31 250 31 287 31 c 1,44,-1
 281 0 l 1,45,-1
 29 0 l 1,46,-1
 35 31 l 1,47,48
 66 35 66 35 92 52 c 0,49,50
 130 76 130 76 227 176 c 2,51,-1
 436 391 l 1,52,-1
 332 605 l 2,53,54
 290 696 290 696 261 719.5 c 128,-1,55
 232 743 232 743 180 743 c 1,56,-1
 187 774 l 1,0,-1
EndSplineSet
EndChar

StartChar: y
Encoding: 121 121 83
Width: 865
Flags: W
LayerCount: 2
Fore
SplineSet
174 774 m 1,0,-1
 534 774 l 1,1,-1
 528 743 l 1,2,-1
 510 743 l 2,3,4
 472 743 472 743 449.5 726 c 128,-1,5
 427 709 427 709 421 685 c 0,6,7
 415 653 415 653 431 594 c 2,8,-1
 536 204 l 1,9,-1
 800 631 l 2,10,11
 822 665 822 665 829 700 c 0,12,13
 832 715 832 715 828 722 c 0,14,15
 823 732 823 732 810 737.5 c 128,-1,16
 797 743 797 743 761 743 c 1,17,-1
 767 774 l 1,18,-1
 1019 774 l 1,19,-1
 1013 743 l 1,20,21
 980 739 980 739 961 729 c 128,-1,22
 942 719 942 719 917 691 c 0,23,24
 906 679 906 679 875 626 c 2,25,-1
 394 -145 l 2,26,27
 324 -259 324 -259 238 -316.5 c 128,-1,28
 152 -374 152 -374 84 -374 c 0,29,30
 34 -374 34 -374 8.5 -345 c 128,-1,31
 -17 -316 -17 -316 -10 -278 c 0,32,33
 -1 -242 -1 -242 26 -221 c 128,-1,34
 53 -200 53 -200 94 -200 c 0,35,36
 121 -200 121 -200 167 -218 c 0,37,38
 198 -232 198 -232 206 -232 c 0,39,40
 232 -232 232 -232 266.5 -206 c 128,-1,41
 301 -180 301 -180 348 -103 c 2,42,-1
 432 31 l 1,43,-1
 277 614 l 2,44,45
 270 640 270 640 251 679 c 0,46,47
 236 708 236 708 224 719 c 0,48,49
 208 733 208 733 168 743 c 1,50,-1
 174 774 l 1,0,-1
EndSplineSet
EndChar

StartChar: z
Encoding: 122 122 84
Width: 768
Flags: W
LayerCount: 2
Fore
SplineSet
776 238 m 1,0,-1
 718 0 l 1,1,-1
 35 0 l 1,2,-1
 41 31 l 1,3,-1
 700 715 l 1,4,-1
 445 715 l 2,5,6
 365 715 365 715 337.5 704.5 c 128,-1,7
 310 694 310 694 286 665 c 0,8,9
 256 622 256 622 239 559 c 1,10,-1
 205 559 l 1,11,-1
 254 774 l 1,12,-1
 904 774 l 1,13,-1
 898 743 l 1,14,-1
 233 58 l 1,15,-1
 515 58 l 2,16,17
 604 58 604 58 638.5 72 c 128,-1,18
 673 86 673 86 700 124 c 0,19,20
 720 150 720 150 748 238 c 1,21,-1
 776 238 l 1,0,-1
EndSplineSet
EndChar

StartChar: braceleft
Encoding: 123 123 85
Width: 830
Flags: W
LayerCount: 2
Fore
SplineSet
637 -344 m 1,0,-1
 630 -374 l 1,1,2
 493 -354 493 -354 425.5 -258.5 c 128,-1,3
 358 -163 358 -163 383 -48 c 0,4,5
 395 13 395 13 432 93.5 c 128,-1,6
 469 174 469 174 478 218 c 0,7,8
 491 280 491 280 450.5 332.5 c 128,-1,9
 410 385 410 385 322 397 c 1,10,-1
 330 432 l 1,11,12
 424 444 424 444 486 496 c 128,-1,13
 548 548 548 548 560 611 c 0,14,15
 570 655 570 655 568 735 c 128,-1,16
 566 815 566 815 578 876 c 0,17,18
 602 991 602 991 711.5 1087 c 128,-1,19
 821 1183 821 1183 965 1201 c 1,20,-1
 959 1172 l 1,21,22
 856 1148 856 1148 798 1095 c 128,-1,23
 740 1042 740 1042 726 977 c 0,24,25
 716 928 716 928 717.5 845.5 c 128,-1,26
 719 763 719 763 708 707 c 0,27,28
 689 620 689 620 609.5 540.5 c 128,-1,29
 530 461 530 461 396 416 c 1,30,31
 508 372 508 372 554.5 290 c 128,-1,32
 601 208 601 208 583 122 c 0,33,34
 571 66 571 66 534.5 -16 c 128,-1,35
 498 -98 498 -98 488 -148 c 0,36,37
 474 -212 474 -212 508 -265.5 c 128,-1,38
 542 -319 542 -319 637 -344 c 1,0,-1
EndSplineSet
EndChar

StartChar: bar
Encoding: 124 124 86
Width: 347
Flags: W
LayerCount: 2
Fore
SplineSet
461 1201 m 1,0,-1
 126 -374 l 1,1,-1
 56 -374 l 1,2,-1
 391 1201 l 1,3,-1
 461 1201 l 1,0,-1
EndSplineSet
EndChar

StartChar: asciitilde
Encoding: 126 126 87
Width: 936
Flags: W
LayerCount: 2
Fore
SplineSet
1001 570 m 1,0,-1
 1039 570 l 1,1,2
 1012 461 1012 461 939 398.5 c 128,-1,3
 866 336 866 336 782 336 c 0,4,5
 744 336 744 336 701.5 349 c 128,-1,6
 659 362 659 362 488 438 c 0,7,8
 371 492 371 492 316 492 c 0,9,10
 257 492 257 492 208.5 456 c 128,-1,11
 160 420 160 420 126 338 c 1,12,-1
 89 338 l 1,13,14
 118 452 118 452 188.5 512 c 128,-1,15
 259 572 259 572 336 572 c 0,16,17
 373 572 373 572 409 560 c 0,18,19
 491 535 491 535 621.5 474 c 128,-1,20
 752 413 752 413 811 413 c 0,21,22
 875 413 875 413 926 453.5 c 128,-1,23
 977 494 977 494 1001 570 c 1,0,-1
EndSplineSet
EndChar

StartChar: ccedilla
Encoding: 231 231 90
Width: 805
Flags: W
LayerCount: 2
Fore
SplineSet
775 198 m 1,0,-1
 764 142 l 1,1,2
 616 37 616 37 445 -9 c 1,3,-1
 408 -65 l 1,4,5
 481 -86 481 -86 481 -146 c 0,6,7
 481 -197 481 -197 424.5 -240.5 c 128,-1,8
 368 -284 368 -284 301 -284 c 0,9,10
 272 -284 272 -284 232 -277 c 1,11,-1
 287 -201 l 1,12,13
 322 -223 322 -223 348 -223 c 0,14,15
 412 -223 412 -223 412 -172 c 0,16,17
 412 -117 412 -117 311 -111 c 1,18,-1
 376 -19 l 1,19,20
 145 5 145 5 145 228 c 0,21,22
 145 445 145 445 302 622 c 128,-1,23
 459 799 459 799 652 799 c 0,24,25
 736 799 736 799 819 762 c 1,26,-1
 770 578 l 1,27,-1
 725 578 l 1,28,-1
 728 589 l 2,29,30
 735 622 735 622 735 638 c 0,31,32
 735 737 735 737 599 737 c 0,33,34
 475 737 475 737 382.5 595 c 128,-1,35
 290 453 290 453 290 263 c 0,36,37
 290 62 290 62 446 62 c 0,38,39
 563 62 563 62 775 198 c 1,0,-1
EndSplineSet
EndChar

StartChar: icircumflex
Encoding: 238 238 95
Width: 468
Flags: W
LayerCount: 2
Fore
SplineSet
328 0 m 1,0,-1
 140 0 l 1,1,-1
 140 1117 l 1,2,-1
 328 1117 l 1,3,-1
 328 0 l 1,0,-1
521 1297 m 1,4,-1
 370 1297 l 1,5,-1
 231 1560 l 1,6,-1
 93 1297 l 1,7,-1
 -54 1297 l 1,8,-1
 120 1676 l 1,9,-1
 347 1676 l 1,10,-1
 521 1297 l 1,4,-1
EndSplineSet
EndChar

StartChar: idieresis
Encoding: 239 239 96
Width: 468
Flags: W
LayerCount: 2
Fore
SplineSet
328 0 m 1,0,-1
 140 0 l 1,1,-1
 140 1117 l 1,2,-1
 328 1117 l 1,3,-1
 328 0 l 1,0,-1
506 1304 m 1,4,-1
 317 1304 l 1,5,-1
 317 1499 l 1,6,-1
 506 1499 l 1,7,-1
 506 1304 l 1,4,-1
151 1304 m 1,8,-1
 -38 1304 l 1,9,-1
 -38 1499 l 1,10,-1
 151 1499 l 1,11,-1
 151 1304 l 1,8,-1
EndSplineSet
EndChar

StartChar: dagger
Encoding: 8224 8224 101
Width: 932
Flags: W
LayerCount: 2
Fore
SplineSet
347 -231 m 1,0,-1
 567 622 l 1,1,-1
 248 592 l 1,2,-1
 297 700 l 1,3,-1
 576 668 l 1,4,-1
 607 1066 l 1,5,-1
 755 1093 l 1,6,-1
 621 668 l 1,7,-1
 941 700 l 1,8,-1
 895 592 l 1,9,-1
 612 622 l 1,10,-1
 496 -213 l 1,11,-1
 347 -231 l 1,0,-1
EndSplineSet
EndChar

StartChar: degree
Encoding: 176 176 102
Width: 409
Flags: W
LayerCount: 2
Fore
SplineSet
395 844 m 0,0,1
 344 844 344 844 307.5 880 c 128,-1,2
 271 916 271 916 271 968 c 0,3,4
 271 1021 271 1021 307.5 1057 c 128,-1,5
 344 1093 344 1093 395 1093 c 0,6,7
 447 1093 447 1093 483 1057 c 128,-1,8
 519 1021 519 1021 519 968 c 0,9,10
 519 916 519 916 483 880 c 128,-1,11
 447 844 447 844 395 844 c 0,0,1
395 888 m 256,12,13
 427 888 427 888 450.5 912 c 128,-1,14
 474 936 474 936 474 968 c 256,15,16
 474 1000 474 1000 450.5 1024 c 128,-1,17
 427 1048 427 1048 395 1048 c 256,18,19
 363 1048 363 1048 339 1024 c 128,-1,20
 315 1000 315 1000 315 968 c 256,21,22
 315 936 315 936 339 912 c 128,-1,23
 363 888 363 888 395 888 c 256,12,13
EndSplineSet
EndChar

StartChar: cent
Encoding: 162 162 103
Width: 693
Flags: W
LayerCount: 2
Fore
SplineSet
365 -18 m 1,0,-1
 404 176 l 1,1,2
 142 195 142 195 142 355 c 0,3,4
 142 459 142 459 242 534.5 c 128,-1,5
 342 610 342 610 492 622 c 1,6,-1
 527 799 l 1,7,-1
 572 799 l 1,8,-1
 537 622 l 1,9,10
 637 617 637 617 715 601 c 1,11,-1
 689 471 l 1,12,-1
 644 471 l 1,13,14
 644 477 644 477 645 488 c 0,15,16
 648 509 648 509 648 517 c 0,17,18
 648 572 648 572 528 578 c 1,19,-1
 459 229 l 1,20,21
 567 229 567 229 661 280 c 1,22,-1
 650 229 l 1,23,24
 544 176 544 176 448 176 c 1,25,-1
 409 -18 l 1,26,-1
 365 -18 l 1,0,-1
415 232 m 1,27,-1
 484 578 l 1,28,29
 272 547 272 547 272 383 c 0,30,31
 272 255 272 255 415 232 c 1,27,-1
EndSplineSet
EndChar

StartChar: sterling
Encoding: 163 163 104
Width: 874
Flags: W
LayerCount: 2
Fore
SplineSet
17 0 m 1,0,-1
 109 88 l 1,1,-1
 122 88 l 2,2,3
 229 88 229 88 272.5 136.5 c 128,-1,4
 316 185 316 185 347 343 c 2,5,-1
 356 391 l 1,6,-1
 196 391 l 1,7,-1
 205 436 l 1,8,-1
 365 436 l 1,9,-1
 378 499 l 2,10,11
 407 642 407 642 496.5 721 c 128,-1,12
 586 800 586 800 718 800 c 0,13,14
 797 800 797 800 892 765 c 1,15,-1
 858 586 l 1,16,-1
 808 586 l 1,17,-1
 810 598 l 2,18,19
 812 608 812 608 812 620 c 0,20,21
 812 746 812 746 679 746 c 0,22,23
 614 746 614 746 584.5 710 c 128,-1,24
 555 674 555 674 535 569 c 2,25,-1
 508 436 l 1,26,-1
 748 436 l 1,27,-1
 739 391 l 1,28,-1
 499 391 l 1,29,-1
 492 359 l 2,30,31
 473 265 473 265 427.5 208 c 128,-1,32
 382 151 382 151 275 88 c 1,33,-1
 480 88 l 2,34,35
 617 88 617 88 679 102.5 c 128,-1,36
 741 117 741 117 819 167 c 1,37,-1
 808 113 l 1,38,39
 735 35 735 35 665.5 7.5 c 128,-1,40
 596 -20 596 -20 470 -20 c 1,41,-1
 442 -19 l 1,42,-1
 17 0 l 1,0,-1
EndSplineSet
EndChar

StartChar: section
Encoding: 167 167 105
Width: 932
Flags: W
LayerCount: 2
Fore
SplineSet
107 -153 m 1,0,-1
 232 -80 l 1,1,2
 348 -178 348 -178 481 -178 c 0,3,4
 564 -178 564 -178 621.5 -127.5 c 128,-1,5
 679 -77 679 -77 679 -5 c 0,6,7
 679 48 679 48 645.5 80.5 c 128,-1,8
 612 113 612 113 513 160 c 2,9,-1
 440 193 l 2,10,11
 247 283 247 283 247 409 c 0,12,13
 247 528 247 528 409 652 c 1,14,15
 328 717 328 717 328 815 c 0,16,17
 328 938 328 938 440 1015.5 c 128,-1,18
 552 1093 552 1093 727 1093 c 0,19,20
 814 1093 814 1093 933 1060 c 1,21,-1
 897 879 l 1,22,-1
 853 879 l 1,23,24
 857 904 857 904 857 916 c 0,25,26
 857 1039 857 1039 652 1039 c 0,27,28
 560 1039 560 1039 500.5 987 c 128,-1,29
 441 935 441 935 441 853 c 0,30,31
 441 798 441 798 466 774.5 c 128,-1,32
 491 751 491 751 613 686 c 2,33,-1
 674 652 l 2,34,35
 854 553 854 553 854 444 c 0,36,37
 854 319 854 319 703 200 c 1,38,39
 801 136 801 136 801 40 c 0,40,41
 801 -75 801 -75 684.5 -153 c 128,-1,42
 568 -231 568 -231 397 -231 c 0,43,44
 244 -231 244 -231 107 -153 c 1,0,-1
667 229 m 1,45,46
 747 319 747 319 747 394 c 0,47,48
 747 470 747 470 628 527 c 2,49,-1
 558 562 l 2,50,51
 495 593 495 593 445 625 c 1,52,53
 355 545 355 545 355 456 c 0,54,55
 355 382 355 382 474 326 c 2,56,-1
 571 279 l 2,57,58
 607 263 607 263 667 229 c 1,45,46
EndSplineSet
EndChar

StartChar: bullet
Encoding: 8226 8226 106
Width: 931
Flags: W
LayerCount: 2
Fore
SplineSet
817 662 m 256,0,1
 817 517 817 517 713.5 414 c 128,-1,2
 610 311 610 311 465 311 c 256,3,4
 320 311 320 311 217 414 c 128,-1,5
 114 517 114 517 114 662 c 256,6,7
 114 807 114 807 217 910 c 128,-1,8
 320 1013 320 1013 465 1013 c 256,9,10
 610 1013 610 1013 713.5 910 c 128,-1,11
 817 807 817 807 817 662 c 256,0,1
EndSplineSet
EndChar

StartChar: paragraph
Encoding: 182 182 107
Width: 932
Flags: W
LayerCount: 2
Fore
SplineSet
365 -239 m 1,0,-1
 511 496 l 1,1,2
 241 542 241 542 241 747 c 0,3,4
 241 876 241 876 346.5 968 c 128,-1,5
 452 1060 452 1060 628 1085 c 1,6,-1
 660 1244 l 1,7,-1
 704 1244 l 1,8,-1
 673 1085 l 1,9,-1
 703 1086 l 2,10,11
 744 1086 744 1086 796 1080 c 1,12,-1
 828 1244 l 1,13,-1
 873 1244 l 1,14,-1
 839 1071 l 1,15,16
 891 1057 891 1057 948 1036 c 1,17,-1
 938 988 l 1,18,19
 898 1005 898 1005 830 1024 c 1,20,-1
 742 586 l 1,21,22
 794 603 794 603 869 643 c 1,23,-1
 859 586 l 1,24,25
 794 549 794 549 732 530 c 1,26,-1
 578 -239 l 1,27,-1
 534 -239 l 1,28,-1
 684 514 l 1,29,30
 597 496 597 496 556 496 c 1,31,-1
 409 -239 l 1,32,-1
 365 -239 l 1,0,-1
695 568 m 1,33,-1
 787 1031 l 1,34,35
 738 1040 738 1040 704 1040 c 0,36,37
 691 1040 691 1040 664 1039 c 1,38,-1
 567 553 l 1,39,40
 625 553 625 553 695 568 c 1,33,-1
EndSplineSet
EndChar

StartChar: registered
Encoding: 174 174 108
Width: 897
Flags: W
LayerCount: 2
Fore
SplineSet
580 445 m 0,0,1
 448 445 448 445 354.5 538.5 c 128,-1,2
 261 632 261 632 261 764 c 256,3,4
 261 896 261 896 354.5 990 c 128,-1,5
 448 1084 448 1084 580 1084 c 0,6,7
 714 1084 714 1084 807 990 c 128,-1,8
 900 896 900 896 900 764 c 256,9,10
 900 632 900 632 806.5 538.5 c 128,-1,11
 713 445 713 445 580 445 c 0,0,1
580 484 m 0,12,13
 695 484 695 484 777.5 567 c 128,-1,14
 860 650 860 650 860 764 c 256,15,16
 860 878 860 878 777.5 961 c 128,-1,17
 695 1044 695 1044 580 1044 c 0,18,19
 466 1044 466 1044 383.5 961 c 128,-1,20
 301 878 301 878 301 764 c 256,21,22
 301 650 301 650 383.5 567 c 128,-1,23
 466 484 466 484 580 484 c 0,12,13
529 737 m 1,24,-1
 501 596 l 1,25,-1
 394 596 l 1,26,-1
 403 639 l 1,27,-1
 456 639 l 1,28,-1
 511 915 l 1,29,-1
 458 915 l 1,30,-1
 466 959 l 1,31,-1
 598 959 l 2,32,33
 751 959 751 959 751 875 c 0,34,35
 751 800 751 800 650 750 c 1,36,-1
 685 639 l 1,37,-1
 747 639 l 1,38,-1
 738 596 l 1,39,-1
 641 596 l 1,40,-1
 591 737 l 1,41,-1
 529 737 l 1,24,-1
538 782 m 1,42,-1
 574 782 l 2,43,44
 697 782 697 782 697 866 c 0,45,46
 697 915 697 915 607 915 c 2,47,-1
 564 915 l 1,48,-1
 538 782 l 1,42,-1
EndSplineSet
EndChar

StartChar: copyright
Encoding: 169 169 109
Width: 1244
Flags: W
LayerCount: 2
Fore
SplineSet
725 -27 m 0,0,1
 495 -27 495 -27 330.5 137 c 128,-1,2
 166 301 166 301 166 533 c 256,3,4
 166 765 166 765 330.5 929 c 128,-1,5
 495 1093 495 1093 725 1093 c 0,6,7
 958 1093 958 1093 1122 929 c 128,-1,8
 1286 765 1286 765 1286 533 c 256,9,10
 1286 301 1286 301 1122 137 c 128,-1,11
 958 -27 958 -27 725 -27 c 0,0,1
725 18 m 0,12,13
 939 18 939 18 1090 169 c 128,-1,14
 1241 320 1241 320 1241 533 c 256,15,16
 1241 746 1241 746 1090 897 c 128,-1,17
 939 1048 939 1048 725 1048 c 0,18,19
 513 1048 513 1048 362 897 c 128,-1,20
 211 746 211 746 211 533 c 256,21,22
 211 320 211 320 362 169 c 128,-1,23
 513 18 513 18 725 18 c 0,12,13
890 246 m 1,24,25
 785 213 785 213 704 213 c 0,26,27
 580 213 580 213 508 279.5 c 128,-1,28
 436 346 436 346 436 462 c 0,29,30
 436 625 436 625 541 734.5 c 128,-1,31
 646 844 646 844 805 844 c 0,32,33
 896 844 896 844 1003 814 c 1,34,-1
 967 675 l 1,35,-1
 915 684 l 1,36,-1
 923 766 l 1,37,38
 854 798 854 798 792 798 c 0,39,40
 688 798 688 798 616 700 c 128,-1,41
 544 602 544 602 544 462 c 0,42,43
 544 271 544 271 722 271 c 0,44,45
 823 271 823 271 902 307 c 1,46,-1
 890 246 l 1,24,25
EndSplineSet
EndChar

StartChar: trademark
Encoding: 8482 8482 110
Width: 1333
Flags: W
LayerCount: 2
Fore
SplineSet
440 1021 m 1,0,-1
 307 1021 l 1,1,-1
 288 923 l 1,2,-1
 225 923 l 1,3,-1
 254 1066 l 1,4,-1
 751 1066 l 1,5,-1
 723 923 l 1,6,-1
 661 923 l 1,7,-1
 679 1021 l 1,8,-1
 546 1021 l 1,9,-1
 456 569 l 1,10,-1
 554 569 l 1,11,-1
 545 524 l 1,12,-1
 243 524 l 1,13,-1
 253 569 l 1,14,-1
 350 569 l 1,15,-1
 440 1021 l 1,0,-1
1011 569 m 1,16,-1
 942 956 l 1,17,-1
 857 524 l 1,18,-1
 688 524 l 1,19,-1
 697 569 l 1,20,-1
 794 569 l 1,21,-1
 884 1021 l 1,22,-1
 787 1021 l 1,23,-1
 796 1066 l 1,24,-1
 1036 1066 l 1,25,-1
 1092 747 l 1,26,-1
 1265 1066 l 1,27,-1
 1481 1066 l 1,28,-1
 1473 1021 l 1,29,-1
 1375 1021 l 1,30,-1
 1285 569 l 1,31,-1
 1383 569 l 1,32,-1
 1373 524 l 1,33,-1
 1178 524 l 1,34,-1
 1270 985 l 1,35,-1
 1041 569 l 1,36,-1
 1011 569 l 1,16,-1
EndSplineSet
EndChar

StartChar: acute
Encoding: 180 180 111
Width: 256
Flags: W
LayerCount: 2
Fore
SplineSet
118 999 m 1,0,1
 195 1083 195 1083 192 1046 c 1,2,3
 183 1014 183 1014 135.5 924 c 128,-1,4
 88 834 88 834 66 802 c 1,5,6
 55 796 55 796 62 848 c 1,7,8
 83 919 83 919 118 999 c 1,0,1
EndSplineSet
EndChar

StartChar: dieresis
Encoding: 168 168 112
Width: 862
Flags: W
LayerCount: 2
Fore
SplineSet
495 923 m 1,0,-1
 408 1033 l 1,1,-1
 520 1119 l 1,2,-1
 607 1003 l 1,3,-1
 495 923 l 1,0,-1
841 923 m 1,4,-1
 752 1035 l 1,5,-1
 866 1119 l 1,6,-1
 951 1004 l 1,7,-1
 841 923 l 1,4,-1
EndSplineSet
EndChar

StartChar: plusminus
Encoding: 177 177 113
Width: 932
Flags: W
LayerCount: 2
Fore
SplineSet
76 0 m 1,0,-1
 92 80 l 1,1,-1
 873 80 l 1,2,-1
 858 0 l 1,3,-1
 76 0 l 1,0,-1
469 213 m 1,4,-1
 525 493 l 1,5,-1
 174 493 l 1,6,-1
 189 573 l 1,7,-1
 541 573 l 1,8,-1
 596 852 l 1,9,-1
 676 852 l 1,10,-1
 621 573 l 1,11,-1
 971 573 l 1,12,-1
 956 493 l 1,13,-1
 605 493 l 1,14,-1
 549 213 l 1,15,-1
 469 213 l 1,4,-1
EndSplineSet
EndChar

StartChar: yen
Encoding: 165 165 114
Width: 965
Flags: W
LayerCount: 2
Fore
SplineSet
156 0 m 1,0,-1
 247 99 l 1,1,2
 269 97 269 97 279 97 c 0,3,4
 415 97 415 97 477 257 c 1,5,-1
 272 257 l 1,6,-1
 280 301 l 1,7,-1
 489 301 l 1,8,9
 495 346 495 346 499 409 c 1,10,-1
 301 409 l 1,11,-1
 310 453 l 1,12,-1
 499 453 l 1,13,14
 499 465 499 465 499 470 c 0,15,16
 499 567 499 567 463.5 631 c 128,-1,17
 428 695 428 695 375 695 c 256,18,19
 322 695 322 695 250 638 c 128,-1,20
 178 581 178 581 139 509 c 1,21,-1
 106 534 l 1,22,23
 172 650 172 650 268.5 724.5 c 128,-1,24
 365 799 365 799 452 799 c 0,25,26
 612 799 612 799 612 518 c 1,27,-1
 611 472 l 1,28,29
 736 799 736 799 971 799 c 0,30,31
 1045 799 1045 799 1100 765 c 1,32,-1
 1016 653 l 1,33,34
 967 684 967 684 915 684 c 0,35,36
 742 684 742 684 651 453 c 1,37,-1
 835 453 l 1,38,-1
 826 409 l 1,39,-1
 643 409 l 1,40,-1
 634 369 l 2,41,42
 627 335 627 335 609 301 c 1,43,-1
 805 301 l 1,44,-1
 796 257 l 1,45,-1
 585 257 l 1,46,47
 519 138 519 138 389 91 c 1,48,-1
 624 77 l 1,49,-1
 534 -18 l 1,50,-1
 156 0 l 1,0,-1
EndSplineSet
EndChar

StartChar: mu1
Encoding: 181 181 115
Width: 992
Flags: W
LayerCount: 2
Fore
SplineSet
100 -302 m 1,0,-1
 155 -76 l 1,1,-1
 270 500 l 2,2,3
 282 560 282 560 282 611 c 0,4,5
 282 693 282 693 206 782 c 1,6,-1
 368 790 l 1,7,8
 427 740 427 740 427 623 c 0,9,10
 427 576 427 576 409 481 c 2,11,-1
 355 213 l 2,12,13
 347 176 347 176 347 161 c 0,14,15
 347 106 347 106 391 106 c 0,16,17
 446 106 446 106 553.5 229 c 128,-1,18
 661 352 661 352 753 519 c 1,19,-1
 805 782 l 1,20,-1
 958 790 l 1,21,-1
 905 569 l 1,22,-1
 834 213 l 2,23,24
 818 132 818 132 818 106 c 0,25,26
 818 53 818 53 861 53 c 0,27,28
 931 53 931 53 1075 218 c 1,29,-1
 1062 151 l 1,30,31
 905 -18 905 -18 779 -18 c 0,32,33
 675 -18 675 -18 675 91 c 0,34,35
 675 128 675 128 692 213 c 2,36,-1
 727 391 l 1,37,-1
 717 391 l 1,38,39
 517 0 517 0 312 0 c 1,40,-1
 255 -284 l 1,41,-1
 100 -302 l 1,0,-1
EndSplineSet
EndChar

StartChar: logicalnot
Encoding: 172 172 116
Width: 932
Flags: W
LayerCount: 2
Fore
SplineSet
177 510 m 1,0,-1
 193 590 l 1,1,-1
 975 590 l 1,2,-1
 906 248 l 1,3,-1
 814 248 l 1,4,-1
 866 510 l 1,5,-1
 177 510 l 1,0,-1
EndSplineSet
EndChar

StartChar: florin
Encoding: 402 402 117
Width: 679
Flags: W
LayerCount: 2
Fore
SplineSet
158 -231 m 1,0,-1
 210 -18 l 1,1,-1
 286 364 l 1,2,-1
 108 364 l 1,3,-1
 117 409 l 1,4,-1
 294 409 l 1,5,-1
 298 427 l 2,6,7
 330 586 330 586 463 692.5 c 128,-1,8
 596 799 596 799 761 799 c 0,9,10
 818 799 818 799 860 784 c 1,11,-1
 764 678 l 1,12,13
 712 729 712 729 643 729 c 0,14,15
 500 729 500 729 457 512 c 2,16,-1
 436 409 l 1,17,-1
 623 409 l 1,18,-1
 614 364 l 1,19,-1
 427 364 l 1,20,-1
 313 -213 l 1,21,-1
 158 -231 l 1,0,-1
EndSplineSet
EndChar

StartChar: ellipsis
Encoding: 8230 8230 118
Width: 1474
Flags: W
LayerCount: 2
Fore
SplineSet
178 0 m 1,0,-1
 206 142 l 1,1,-1
 348 142 l 1,2,-1
 319 0 l 1,3,-1
 178 0 l 1,0,-1
667 0 m 1,4,-1
 695 142 l 1,5,-1
 837 142 l 1,6,-1
 808 0 l 1,7,-1
 667 0 l 1,4,-1
1155 0 m 1,8,-1
 1183 142 l 1,9,-1
 1326 142 l 1,10,-1
 1297 0 l 1,11,-1
 1155 0 l 1,8,-1
EndSplineSet
EndChar

StartChar: OE
Encoding: 338 338 119
Width: 1477
Flags: W
LayerCount: 2
Fore
SplineSet
816 0 m 1,0,-1
 831 70 l 1,1,2
 711 -27 711 -27 549 -27 c 0,3,4
 371 -27 371 -27 269 81 c 128,-1,5
 167 189 167 189 167 378 c 0,6,7
 167 661 167 661 358 877 c 128,-1,8
 549 1093 549 1093 799 1093 c 0,9,10
 931 1093 931 1093 1017 1007 c 1,11,-1
 1029 1066 l 1,12,-1
 1593 1066 l 1,13,-1
 1529 862 l 1,14,-1
 1484 862 l 1,15,16
 1490 891 1490 891 1490 913 c 0,17,18
 1490 969 1490 969 1424.5 990.5 c 128,-1,19
 1359 1012 1359 1012 1187 1012 c 2,20,-1
 1165 1012 l 1,21,-1
 1082 586 l 1,22,-1
 1402 586 l 1,23,-1
 1329 512 l 1,24,25
 1165 533 1165 533 1107 533 c 2,26,-1
 1071 533 l 1,27,-1
 1012 218 l 2,28,29
 1002 167 1002 167 1002 156 c 0,30,31
 1002 80 1002 80 1228 80 c 0,32,33
 1348 80 1348 80 1453 160 c 1,34,-1
 1442 103 l 1,35,36
 1318 -23 1318 -23 1203 -23 c 0,37,38
 1183 -23 1183 -23 1161 -21 c 2,39,-1
 816 0 l 1,0,-1
888 361 m 2,40,-1
 961 723 l 2,41,42
 974 786 974 786 974 841 c 0,43,44
 974 933 974 933 916.5 990.5 c 128,-1,45
 859 1048 859 1048 769 1048 c 0,46,47
 604 1048 604 1048 466.5 844 c 128,-1,48
 329 640 329 640 329 395 c 0,49,50
 329 218 329 218 396.5 117.5 c 128,-1,51
 464 17 464 17 585 17 c 0,52,53
 818 17 818 17 888 361 c 2,40,-1
EndSplineSet
EndChar

StartChar: oe
Encoding: 339 339 120
Width: 1350
Flags: W
LayerCount: 2
Fore
SplineSet
706 145 m 1,0,1
 535 -18 535 -18 370 -18 c 0,2,3
 273 -18 273 -18 209 55 c 128,-1,4
 145 128 145 128 145 237 c 0,5,6
 145 448 145 448 302.5 623.5 c 128,-1,7
 460 799 460 799 650 799 c 0,8,9
 794 799 794 799 859 630 c 1,10,11
 1025 799 1025 799 1183 799 c 0,12,13
 1246 799 1246 799 1286.5 758 c 128,-1,14
 1327 717 1327 717 1327 651 c 0,15,16
 1327 508 1327 508 1192.5 414 c 128,-1,17
 1058 320 1058 320 841 311 c 1,18,-1
 840 278 l 1,19,20
 840 66 840 66 998 66 c 0,21,22
 1113 66 1113 66 1327 200 c 1,23,-1
 1316 146 l 1,24,25
 1083 -18 1083 -18 917 -18 c 0,26,27
 758 -18 758 -18 706 145 c 1,0,1
431 35 m 0,28,29
 544 35 544 35 636 178.5 c 128,-1,30
 728 322 728 322 728 499 c 0,31,32
 728 607 728 607 689 672 c 128,-1,33
 650 737 650 737 584 737 c 0,34,35
 472 737 472 737 382 594 c 128,-1,36
 292 451 292 451 292 272 c 0,37,38
 292 35 292 35 431 35 c 0,28,29
844 355 m 1,39,40
 1004 368 1004 368 1097.5 438.5 c 128,-1,41
 1191 509 1191 509 1191 620 c 0,42,43
 1191 733 1191 733 1110 733 c 0,44,45
 1024 733 1024 733 941.5 616 c 128,-1,46
 859 499 859 499 844 355 c 1,39,40
EndSplineSet
EndChar

StartChar: endash
Encoding: 8211 8211 121
Width: 434
Flags: W
LayerCount: 2
Fore
SplineSet
434 154 m 1,0,-1
 0 154 l 1,1,-1
 0 234 l 1,2,-1
 434 234 l 1,3,-1
 434 154 l 1,0,-1
EndSplineSet
EndChar

StartChar: emdash
Encoding: 8212 8212 122
Width: 1862
Flags: W
LayerCount: 2
Fore
SplineSet
1866 572 m 1,0,-1
 -4 572 l 1,1,-1
 -4 732 l 1,2,-1
 1866 732 l 1,3,-1
 1866 572 l 1,0,-1
EndSplineSet
EndChar

StartChar: quotedblleft
Encoding: 8220 8220 123
Width: 583
Flags: W
LayerCount: 2
Fore
SplineSet
22 1084 m 1,0,1
 -6 1057 -6 1057 -22.5 1025 c 128,-1,2
 -39 993 -39 993 -30 949 c 0,3,4
 -24 923 -24 923 -10.5 893.5 c 128,-1,5
 3 864 3 864 11 830 c 0,6,7
 16 804 16 804 4.5 783.5 c 128,-1,8
 -7 763 -7 763 -33 763 c 0,9,10
 -74 763 -74 763 -95 791 c 128,-1,11
 -116 819 -116 819 -124 857 c 0,12,13
 -132 896 -132 896 -124 932.5 c 128,-1,14
 -116 969 -116 969 -97.5 1000.5 c 128,-1,15
 -79 1032 -79 1032 -52 1057.5 c 128,-1,16
 -25 1083 -25 1083 4 1100 c 1,17,-1
 22 1084 l 1,0,1
270 1084 m 1,18,19
 243 1057 243 1057 227.5 1025.5 c 128,-1,20
 212 994 212 994 221 949 c 0,21,22
 227 923 227 923 240.5 893.5 c 128,-1,23
 254 864 254 864 261 830 c 0,24,25
 266 804 266 804 254.5 783.5 c 128,-1,26
 243 763 243 763 217 763 c 0,27,28
 176 763 176 763 154 791 c 128,-1,29
 132 819 132 819 123 857 c 0,30,31
 115 895 115 895 123.5 932 c 128,-1,32
 132 969 132 969 151 1001.5 c 128,-1,33
 170 1034 170 1034 197 1059.5 c 128,-1,34
 224 1085 224 1085 254 1100 c 1,35,-1
 270 1084 l 1,18,19
EndSplineSet
EndChar

StartChar: quotedblright
Encoding: 8221 8221 124
Width: 583
Flags: W
LayerCount: 2
Fore
SplineSet
169 765 m 1,0,1
 195 792 195 792 212 823 c 128,-1,2
 229 854 229 854 219 898 c 0,3,4
 214 924 214 924 200 953.5 c 128,-1,5
 186 983 186 983 178 1019 c 0,6,7
 173 1045 173 1045 184.5 1065.5 c 128,-1,8
 196 1086 196 1086 219 1086 c 0,9,10
 263 1086 263 1086 285 1058 c 128,-1,11
 307 1030 307 1030 315 992 c 0,12,13
 323 953 323 953 314.5 916 c 128,-1,14
 306 879 306 879 286.5 847.5 c 128,-1,15
 267 816 267 816 240 790.5 c 128,-1,16
 213 765 213 765 185 749 c 1,17,-1
 169 765 l 1,0,1
-81 765 m 1,18,19
 -68 778 -68 778 -57 792.5 c 128,-1,20
 -46 807 -46 807 -39 823 c 128,-1,21
 -32 839 -32 839 -30 857.5 c 128,-1,22
 -28 876 -28 876 -33 898 c 0,23,24
 -38 924 -38 924 -51 953.5 c 128,-1,25
 -64 983 -64 983 -72 1019 c 0,26,27
 -77 1045 -77 1045 -66 1065.5 c 128,-1,28
 -55 1086 -55 1086 -29 1086 c 0,29,30
 -8 1086 -8 1086 8 1078.5 c 128,-1,31
 24 1071 24 1071 35 1058 c 128,-1,32
 46 1045 46 1045 53 1028 c 128,-1,33
 60 1011 60 1011 64 992 c 0,34,35
 72 953 72 953 64 915.5 c 128,-1,36
 56 878 56 878 37 846.5 c 128,-1,37
 18 815 18 815 -9 789.5 c 128,-1,38
 -36 764 -36 764 -65 749 c 1,39,-1
 -81 765 l 1,18,19
EndSplineSet
EndChar

StartChar: divide
Encoding: 247 247 125
Width: 962
Flags: W
LayerCount: 2
Fore
SplineSet
549 593 m 1,0,-1
 410 593 l 1,1,-1
 410 752 l 1,2,-1
 549 752 l 1,3,-1
 549 593 l 1,0,-1
821 337 m 1,4,-1
 138 337 l 1,5,-1
 138 430 l 1,6,-1
 821 430 l 1,7,-1
 821 337 l 1,4,-1
549 15 m 1,8,-1
 410 15 l 1,9,-1
 410 174 l 1,10,-1
 549 174 l 1,11,-1
 549 15 l 1,8,-1
EndSplineSet
EndChar

StartChar: lozenge
Encoding: 9674 9674 126
Width: 1118
Flags: W
LayerCount: 2
Fore
SplineSet
1003 699 m 1,0,-1
 560 197 l 1,1,-1
 117 699 l 1,2,-1
 560 1202 l 1,3,-1
 1003 699 l 1,0,-1
848 699 m 1,4,-1
 560 1036 l 1,5,-1
 271 699 l 1,6,-1
 560 364 l 1,7,-1
 848 699 l 1,4,-1
EndSplineSet
EndChar

StartChar: Euro
Encoding: 8364 8364 128
Width: 812
Flags: W
LayerCount: 2
Fore
SplineSet
210 464 m 1,0,1
 252 596 252 596 371.5 697.5 c 128,-1,2
 491 799 491 799 674 799 c 0,3,4
 773 799 773 799 885 769 c 1,5,-1
 845 624 l 1,6,-1
 795 624 l 1,7,8
 801 653 801 653 801 665 c 0,9,10
 801 701 801 701 757 726 c 128,-1,11
 713 751 713 751 649 751 c 0,12,13
 445 751 445 751 349 464 c 1,14,-1
 686 464 l 1,15,-1
 677 420 l 1,16,-1
 337 420 l 2,17,18
 335 418 335 418 332 404 c 2,19,-1
 325 365 l 1,20,-1
 325 360 l 1,21,-1
 665 360 l 1,22,-1
 656 315 l 1,23,-1
 319 315 l 1,24,-1
 319 289 l 2,25,26
 319 178 319 178 370 115.5 c 128,-1,27
 421 53 421 53 512 53 c 0,28,29
 636 53 636 53 765 135 c 1,30,-1
 755 72 l 1,31,32
 604 -18 604 -18 459 -18 c 0,33,34
 324 -18 324 -18 249.5 59 c 128,-1,35
 175 136 175 136 175 274 c 0,36,37
 175 300 175 300 175 315 c 1,38,-1
 111 315 l 1,39,-1
 120 360 l 1,40,-1
 182 360 l 1,41,-1
 182 364 l 1,42,43
 189 401 189 401 194 420 c 1,44,-1
 118 420 l 1,45,-1
 127 464 l 1,46,-1
 210 464 l 1,0,1
EndSplineSet
EndChar

StartChar: guilsinglleft
Encoding: 8249 8249 129
Width: 560
Flags: W
LayerCount: 2
Fore
SplineSet
375 71 m 1,0,1
 304 237 304 237 167 391 c 1,2,3
 358 507 358 507 437 653 c 1,4,-1
 587 711 l 1,5,6
 536 589 536 589 315 441 c 1,7,8
 423 310 423 310 499 138 c 1,9,-1
 375 71 l 1,0,1
EndSplineSet
EndChar

StartChar: guilsinglright
Encoding: 8250 8250 130
Width: 560
Flags: W
LayerCount: 2
Fore
SplineSet
339 711 m 1,0,1
 410 545 410 545 546 391 c 1,2,3
 356 275 356 275 276 128 c 1,4,-1
 128 71 l 1,5,6
 178 193 178 193 400 341 c 1,7,8
 293 470 293 470 215 643 c 1,9,-1
 339 711 l 1,0,1
EndSplineSet
EndChar

StartChar: daggerdbl
Encoding: 8225 8225 133
Width: 932
Flags: W
LayerCount: 2
Fore
SplineSet
349 -231 m 1,0,-1
 481 185 l 1,1,-1
 161 154 l 1,2,-1
 211 261 l 1,3,-1
 490 229 l 1,4,-1
 567 616 l 1,5,-1
 247 586 l 1,6,-1
 297 693 l 1,7,-1
 575 661 l 1,8,-1
 608 1066 l 1,9,-1
 758 1093 l 1,10,-1
 620 661 l 1,11,-1
 940 693 l 1,12,-1
 889 586 l 1,13,-1
 611 616 l 1,14,-1
 535 229 l 1,15,-1
 855 261 l 1,16,-1
 804 154 l 1,17,-1
 525 185 l 1,18,-1
 499 -213 l 1,19,-1
 349 -231 l 1,0,-1
EndSplineSet
EndChar

StartChar: middot.001
Encoding: 8729 8729 134
Width: 620
Flags: W
LayerCount: 2
Fore
SplineSet
429 516 m 1,0,-1
 190 516 l 1,1,-1
 190 789 l 1,2,-1
 429 789 l 1,3,-1
 429 516 l 1,0,-1
EndSplineSet
EndChar

StartChar: quotesinglbase
Encoding: 8218 8218 135
Width: 368
Flags: W
LayerCount: 2
Fore
SplineSet
91 113 m 1,0,-1
 217 203 l 1,1,-1
 311 79 l 1,2,3
 304 -49 304 -49 231 -118 c 128,-1,4
 158 -187 158 -187 32 -187 c 1,5,-1
 67 -148 l 1,6,7
 166 -139 166 -139 186 -16 c 1,8,-1
 91 113 l 1,0,-1
EndSplineSet
EndChar

StartChar: quotedblbase
Encoding: 8222 8222 136
Width: 684
Flags: W
LayerCount: 2
Fore
SplineSet
91 92 m 1,0,-1
 204 178 l 1,1,-1
 292 64 l 1,2,3
 270 -213 270 -213 31 -213 c 1,4,-1
 60 -168 l 1,5,6
 166 -148 166 -148 179 -16 c 1,7,-1
 91 92 l 1,0,-1
401 92 m 1,8,-1
 516 178 l 1,9,-1
 602 64 l 1,10,11
 581 -213 581 -213 341 -213 c 1,12,-1
 372 -168 l 1,13,14
 476 -148 476 -148 490 -16 c 1,15,-1
 401 92 l 1,8,-1
EndSplineSet
EndChar

StartChar: perthousand
Encoding: 8240 8240 137
Width: 1571
Flags: W
LayerCount: 2
Fore
SplineSet
385 533 m 0,0,1
 304 533 304 533 254.5 584.5 c 128,-1,2
 205 636 205 636 205 722 c 0,3,4
 205 865 205 865 286.5 965.5 c 128,-1,5
 368 1066 368 1066 483 1066 c 0,6,7
 567 1066 567 1066 617.5 1014.5 c 128,-1,8
 668 963 668 963 668 877 c 0,9,10
 668 733 668 733 585.5 633 c 128,-1,11
 503 533 503 533 385 533 c 0,0,1
311 715 m 0,12,13
 311 578 311 578 398 578 c 0,14,15
 463 578 463 578 517 671.5 c 128,-1,16
 571 765 571 765 571 881 c 0,17,18
 571 1022 571 1022 483 1022 c 0,19,20
 416 1022 416 1022 363.5 928 c 128,-1,21
 311 834 311 834 311 715 c 0,12,13
850 0 m 0,22,23
 769 0 769 0 719.5 51.5 c 128,-1,24
 670 103 670 103 670 189 c 0,25,26
 670 331 670 331 751 432 c 128,-1,27
 832 533 832 533 947 533 c 0,28,29
 1031 533 1031 533 1081.5 481.5 c 128,-1,30
 1132 430 1132 430 1132 344 c 0,31,32
 1132 200 1132 200 1049.5 100 c 128,-1,33
 967 0 967 0 850 0 c 0,22,23
776 182 m 0,34,35
 776 44 776 44 862 44 c 0,36,37
 929 44 929 44 982 138 c 128,-1,38
 1035 232 1035 232 1035 348 c 0,39,40
 1035 490 1035 490 948 490 c 0,41,42
 880 490 880 490 828 395.5 c 128,-1,43
 776 301 776 301 776 182 c 0,34,35
131 -27 m 1,44,-1
 1111 1093 l 1,45,-1
 1206 1093 l 1,46,-1
 225 -27 l 1,47,-1
 131 -27 l 1,44,-1
1376 0 m 0,48,49
 1294 0 1294 0 1244.5 51.5 c 128,-1,50
 1195 103 1195 103 1195 189 c 0,51,52
 1195 331 1195 331 1276.5 432 c 128,-1,53
 1358 533 1358 533 1473 533 c 0,54,55
 1557 533 1557 533 1607.5 481.5 c 128,-1,56
 1658 430 1658 430 1658 344 c 0,57,58
 1658 200 1658 200 1575.5 100 c 128,-1,59
 1493 0 1493 0 1376 0 c 0,48,49
1301 183 m 0,60,61
 1301 44 1301 44 1389 44 c 0,62,63
 1453 44 1453 44 1507 138 c 128,-1,64
 1561 232 1561 232 1561 347 c 0,65,66
 1561 490 1561 490 1473 490 c 0,67,68
 1406 490 1406 490 1353.5 395.5 c 128,-1,69
 1301 301 1301 301 1301 183 c 0,60,61
EndSplineSet
EndChar

StartChar: circumflex
Encoding: 710 710 139
Width: 862
Flags: W
LayerCount: 2
Fore
SplineSet
870 976 m 1,0,-1
 783 923 l 1,1,2
 729 984 729 984 693 1082 c 1,3,4
 652 1032 652 1032 574 953 c 0,5,6
 571 949 571 949 553 931 c 1,7,-1
 452 923 l 1,8,9
 607 1037 607 1037 674 1120 c 1,10,-1
 772 1182 l 1,11,12
 805 1069 805 1069 870 976 c 1,0,-1
EndSplineSet
EndChar

StartChar: cedilla
Encoding: 184 184 140
Width: 862
Flags: W
LayerCount: 2
Fore
SplineSet
456 0 m 1,0,-1
 414 -64 l 1,1,2
 485 -86 485 -86 485 -147 c 0,3,4
 485 -198 485 -198 428.5 -241 c 128,-1,5
 372 -284 372 -284 303 -284 c 0,6,7
 272 -284 272 -284 237 -277 c 1,8,-1
 292 -201 l 1,9,10
 326 -223 326 -223 352 -223 c 0,11,12
 416 -223 416 -223 416 -171 c 0,13,14
 416 -112 416 -112 318 -112 c 1,15,-1
 394 0 l 1,16,-1
 456 0 l 1,0,-1
EndSplineSet
EndChar

StartChar: brokenbar
Encoding: 166 166 141
Width: 355
Flags: W
LayerCount: 2
Fore
SplineSet
86 -213 m 1,0,-1
 203 373 l 1,1,-1
 301 373 l 1,2,-1
 184 -213 l 1,3,-1
 86 -213 l 1,0,-1
238 551 m 1,4,-1
 355 1137 l 1,5,-1
 453 1137 l 1,6,-1
 337 551 l 1,7,-1
 238 551 l 1,4,-1
EndSplineSet
EndChar

StartChar: minus
Encoding: 8722 8722 142
Width: 1490
Flags: W
LayerCount: 2
Fore
SplineSet
1308 572 m 1,0,-1
 182 572 l 1,1,-1
 182 732 l 1,2,-1
 1308 732 l 1,3,-1
 1308 572 l 1,0,-1
EndSplineSet
EndChar

StartChar: multiply
Encoding: 215 215 143
Width: 686
Flags: W
LayerCount: 2
Fore
SplineSet
285 260 m 1,0,-1
 157 99 l 2,1,2
 147 86 147 86 133 86 c 128,-1,3
 119 86 119 86 107 93 c 2,4,-1
 65 132 l 2,5,6
 55 137 55 137 51.5 153.5 c 128,-1,7
 48 170 48 170 57 180 c 2,8,-1
 185 342 l 1,9,-1
 -13 504 l 2,10,11
 -27 519 -27 519 -31 534.5 c 128,-1,12
 -35 550 -35 550 -28 555 c 2,13,-1
 -2 593 l 2,14,15
 5 602 5 602 19.5 600 c 128,-1,16
 34 598 34 598 49 590 c 2,17,-1
 251 422 l 1,18,-1
 384 593 l 2,19,20
 392 604 392 604 407 604 c 128,-1,21
 422 604 422 604 432 595 c 2,22,-1
 473 561 l 2,23,24
 484 552 484 552 488 537.5 c 128,-1,25
 492 523 492 523 482 510 c 2,26,-1
 347 341 l 1,27,-1
 550 177 l 2,28,29
 561 165 561 165 565 150.5 c 128,-1,30
 569 136 569 136 564 126 c 2,31,-1
 536 90 l 2,32,33
 531 81 531 81 515.5 82 c 128,-1,34
 500 83 500 83 482 93 c 1,35,-1
 285 260 l 1,0,-1
EndSplineSet
EndChar

StartChar: onesuperior
Encoding: 185 185 144
Width: 596
Flags: W
LayerCount: 2
Fore
SplineSet
573 1093 m 1,0,-1
 487 657 l 2,1,2
 476 607 476 607 476 589 c 0,3,4
 476 570 476 570 532 563 c 1,5,-1
 591 560 l 1,6,-1
 582 516 l 1,7,-1
 210 516 l 1,8,-1
 218 560 l 1,9,-1
 279 563 l 2,10,11
 328 567 328 567 337.5 578 c 128,-1,12
 347 589 347 589 362 657 c 2,13,-1
 418 938 l 2,14,15
 423 960 423 960 423 978 c 0,16,17
 423 1004 423 1004 355 1013 c 2,18,-1
 310 1021 l 1,19,-1
 319 1066 l 1,20,-1
 573 1093 l 1,0,-1
EndSplineSet
EndChar

StartChar: twosuperior
Encoding: 178 178 145
Width: 596
Flags: W
LayerCount: 2
Fore
SplineSet
187 516 m 1,0,-1
 207 617 l 1,1,2
 362 712 362 712 454.5 803.5 c 128,-1,3
 547 895 547 895 547 952 c 0,4,5
 547 1046 547 1046 463 1046 c 0,6,7
 352 1046 352 1046 331 928 c 1,8,-1
 278 928 l 1,9,-1
 304 1059 l 1,10,11
 400 1093 400 1093 484 1093 c 0,12,13
 674 1093 674 1093 674 959 c 0,14,15
 674 887 674 887 624.5 842 c 128,-1,16
 575 797 575 797 297 617 c 1,17,-1
 607 617 l 1,18,-1
 587 516 l 1,19,-1
 187 516 l 1,0,-1
EndSplineSet
EndChar

StartChar: threesuperior
Encoding: 179 179 146
Width: 596
Flags: W
LayerCount: 2
Fore
SplineSet
185 545 m 1,0,-1
 257 620 l 1,1,2
 337 556 337 556 418 556 c 0,3,4
 460 556 460 556 490.5 587 c 128,-1,5
 521 618 521 618 521 661 c 0,6,7
 521 776 521 776 345 776 c 0,8,9
 323 776 323 776 301 773 c 1,10,-1
 331 859 l 1,11,12
 350 860 350 860 365 860 c 0,13,14
 412 860 412 860 466 849 c 1,15,16
 547 886 547 886 547 961 c 0,17,18
 547 1046 547 1046 454 1046 c 0,19,20
 365 1046 365 1046 342 941 c 1,21,-1
 289 941 l 1,22,-1
 311 1057 l 1,23,24
 398 1093 398 1093 484 1093 c 0,25,26
 662 1093 662 1093 662 984 c 0,27,28
 662 893 662 893 520 829 c 1,29,30
 625 790 625 790 625 693 c 0,31,32
 625 616 625 616 554.5 563 c 128,-1,33
 484 510 484 510 378 510 c 0,34,35
 289 510 289 510 185 545 c 1,0,-1
EndSplineSet
EndChar

StartChar: onehalf
Encoding: 189 189 147
Width: 1262
Flags: W
LayerCount: 2
Fore
SplineSet
528 1093 m 1,0,-1
 442 657 l 2,1,2
 432 606 432 606 432 589 c 0,3,4
 432 570 432 570 488 563 c 1,5,-1
 547 560 l 1,6,-1
 538 516 l 1,7,-1
 165 516 l 1,8,-1
 174 560 l 1,9,-1
 235 563 l 2,10,11
 283 567 283 567 293 578 c 128,-1,12
 303 589 303 589 318 657 c 2,13,-1
 373 938 l 2,14,15
 378 960 378 960 378 978 c 0,16,17
 378 1004 378 1004 310 1013 c 2,18,-1
 265 1021 l 1,19,-1
 274 1066 l 1,20,-1
 528 1093 l 1,0,-1
160 -27 m 1,21,-1
 1180 1093 l 1,22,-1
 1280 1093 l 1,23,-1
 257 -27 l 1,24,-1
 160 -27 l 1,21,-1
778 0 m 1,25,-1
 797 103 l 1,26,27
 952 197 952 197 1045 288 c 128,-1,28
 1138 379 1138 379 1138 436 c 0,29,30
 1138 530 1138 530 1053 530 c 0,31,32
 942 530 942 530 922 413 c 1,33,-1
 868 413 l 1,34,-1
 895 544 l 1,35,36
 989 578 989 578 1075 578 c 0,37,38
 1264 578 1264 578 1264 445 c 0,39,40
 1264 373 1264 373 1214.5 328 c 128,-1,41
 1165 283 1165 283 887 103 c 1,42,-1
 1197 103 l 1,43,-1
 1177 0 l 1,44,-1
 778 0 l 1,25,-1
EndSplineSet
EndChar

StartChar: onequarter
Encoding: 188 188 148
Width: 1262
Flags: W
LayerCount: 2
Fore
SplineSet
546 1093 m 1,0,-1
 460 657 l 2,1,2
 450 606 450 606 450 589 c 0,3,4
 450 570 450 570 506 563 c 1,5,-1
 565 560 l 1,6,-1
 556 516 l 1,7,-1
 183 516 l 1,8,-1
 192 560 l 1,9,-1
 253 563 l 2,10,11
 301 567 301 567 311 578 c 128,-1,12
 321 589 321 589 336 657 c 2,13,-1
 391 938 l 2,14,15
 396 960 396 960 396 978 c 0,16,17
 396 1004 396 1004 328 1013 c 2,18,-1
 283 1021 l 1,19,-1
 292 1066 l 1,20,-1
 546 1093 l 1,0,-1
178 -27 m 1,21,-1
 1198 1093 l 1,22,-1
 1298 1093 l 1,23,-1
 275 -27 l 1,24,-1
 178 -27 l 1,21,-1
981 164 m 1,25,-1
 732 182 l 1,26,-1
 747 261 l 1,27,-1
 1102 578 l 1,28,-1
 1170 578 l 1,29,-1
 1102 236 l 1,30,-1
 1212 229 l 1,31,-1
 1168 149 l 1,32,-1
 1086 157 l 1,33,34
 1076 102 1076 102 1076 74 c 0,35,36
 1076 52 1076 52 1129 49 c 2,37,-1
 1189 45 l 1,38,-1
 1180 0 l 1,39,-1
 820 0 l 1,40,-1
 829 45 l 1,41,-1
 886 49 l 2,42,43
 937 52 937 52 952 64 c 128,-1,44
 967 76 967 76 973 117 c 0,45,46
 976 134 976 134 981 164 c 1,25,-1
997 244 m 1,47,-1
 1038 446 l 1,48,-1
 823 255 l 1,49,-1
 997 244 l 1,47,-1
EndSplineSet
EndChar

StartChar: threequarters
Encoding: 190 190 149
Width: 1262
Flags: W
LayerCount: 2
Fore
SplineSet
174 545 m 1,0,-1
 247 620 l 1,1,2
 326 556 326 556 407 556 c 0,3,4
 448 556 448 556 478.5 587 c 128,-1,5
 509 618 509 618 509 661 c 0,6,7
 509 776 509 776 333 776 c 0,8,9
 311 776 311 776 289 773 c 1,10,-1
 319 859 l 1,11,12
 338 860 338 860 355 860 c 0,13,14
 401 860 401 860 455 849 c 1,15,16
 535 886 535 886 535 961 c 0,17,18
 535 1046 535 1046 442 1046 c 0,19,20
 354 1046 354 1046 330 941 c 1,21,-1
 277 941 l 1,22,-1
 301 1057 l 1,23,24
 387 1093 387 1093 472 1093 c 0,25,26
 651 1093 651 1093 651 984 c 0,27,28
 651 893 651 893 508 829 c 1,29,30
 614 790 614 790 614 693 c 0,31,32
 614 616 614 616 543 563 c 128,-1,33
 472 510 472 510 366 510 c 0,34,35
 277 510 277 510 174 545 c 1,0,-1
178 -27 m 1,36,-1
 1198 1093 l 1,37,-1
 1298 1093 l 1,38,-1
 275 -27 l 1,39,-1
 178 -27 l 1,36,-1
981 164 m 1,40,-1
 732 182 l 1,41,-1
 747 261 l 1,42,-1
 1102 578 l 1,43,-1
 1170 578 l 1,44,-1
 1102 236 l 1,45,-1
 1212 229 l 1,46,-1
 1168 149 l 1,47,-1
 1086 157 l 1,48,49
 1076 102 1076 102 1076 74 c 0,50,51
 1076 52 1076 52 1129 49 c 2,52,-1
 1189 45 l 1,53,-1
 1180 0 l 1,54,-1
 820 0 l 1,55,-1
 829 45 l 1,56,-1
 886 49 l 2,57,58
 938 52 938 52 952.5 64 c 128,-1,59
 967 76 967 76 973 117 c 0,60,61
 976 134 976 134 981 164 c 1,40,-1
997 244 m 1,62,-1
 1038 446 l 1,63,-1
 823 255 l 1,64,-1
 997 244 l 1,62,-1
EndSplineSet
EndChar

StartChar: macron
Encoding: 175 175 150
Width: 1118
Flags: W
LayerCount: 2
Fore
SplineSet
1134 1659 m 1,0,-1
 -16 1659 l 1,1,-1
 -16 1789 l 1,2,-1
 1134 1789 l 1,3,-1
 1134 1659 l 1,0,-1
EndSplineSet
EndChar

StartChar: periodcentered
Encoding: 183 183 151
Width: 724
Flags: W
LayerCount: 2
Fore
SplineSet
482 832 m 1,0,-1
 243 832 l 1,1,-1
 243 1117 l 1,2,-1
 482 1117 l 1,3,-1
 482 832 l 1,0,-1
EndSplineSet
EndChar

StartChar: H22073
Encoding: 9633 9633 152
Width: 1237
Flags: W
LayerCount: 2
Fore
SplineSet
146 944 m 1,0,-1
 1090 944 l 1,1,-1
 1090 0 l 1,2,-1
 146 0 l 1,3,-1
 146 944 l 1,0,-1
222 868 m 1,4,-1
 222 76 l 1,5,-1
 1014 76 l 1,6,-1
 1014 868 l 1,7,-1
 222 868 l 1,4,-1
EndSplineSet
EndChar

StartChar: H18543
Encoding: 9642 9642 153
Width: 1089
Flags: W
LayerCount: 2
Fore
SplineSet
886 994 m 1,0,-1
 886 300 l 1,1,-1
 192 300 l 1,2,-1
 192 994 l 1,3,-1
 886 994 l 1,0,-1
EndSplineSet
EndChar

StartChar: H18551
Encoding: 9643 9643 154
Width: 1089
Flags: W
LayerCount: 2
Fore
SplineSet
888 996 m 1,0,-1
 888 301 l 1,1,-1
 193 301 l 1,2,-1
 193 996 l 1,3,-1
 888 996 l 1,0,-1
774 882 m 1,4,-1
 307 882 l 1,5,-1
 307 415 l 1,6,-1
 774 415 l 1,7,-1
 774 882 l 1,4,-1
EndSplineSet
EndChar

StartChar: H18533
Encoding: 9679 9679 155
Width: 1339
Flags: W
LayerCount: 2
Fore
SplineSet
204 719 m 0,0,1
 204 920 204 920 345 1061 c 128,-1,2
 486 1202 486 1202 685 1202 c 0,3,4
 885 1202 885 1202 1026 1061 c 128,-1,5
 1167 920 1167 920 1167 719 c 0,6,7
 1167 521 1167 521 1026 380 c 128,-1,8
 885 239 885 239 685 239 c 0,9,10
 486 239 486 239 345 380 c 128,-1,11
 204 521 204 521 204 719 c 0,0,1
EndSplineSet
EndChar

StartChar: openbullet
Encoding: 9702 9702 156
Width: 1089
Flags: W
LayerCount: 2
Fore
SplineSet
544 1171 m 0,0,1
 700 1171 700 1171 810.5 1060.5 c 128,-1,2
 921 950 921 950 921 794 c 256,3,4
 921 638 921 638 810.5 528 c 128,-1,5
 700 418 700 418 544 418 c 256,6,7
 388 418 388 418 278 528 c 128,-1,8
 168 638 168 638 168 794 c 256,9,10
 168 950 168 950 277.5 1060.5 c 128,-1,11
 387 1171 387 1171 544 1171 c 0,0,1
544 1057 m 0,12,13
 435 1057 435 1057 358.5 979.5 c 128,-1,14
 282 902 282 902 282 794 c 0,15,16
 282 685 282 685 359 608.5 c 128,-1,17
 436 532 436 532 544 532 c 256,18,19
 652 532 652 532 729.5 608.5 c 128,-1,20
 807 685 807 685 807 794 c 0,21,22
 807 902 807 902 730.5 979.5 c 128,-1,23
 654 1057 654 1057 544 1057 c 0,12,13
EndSplineSet
EndChar

StartChar: currency
Encoding: 164 164 157
Width: 932
Flags: W
LayerCount: 2
Fore
SplineSet
769 322 m 1,0,-1
 879 184 l 1,1,-1
 841 153 l 1,2,-1
 732 292 l 1,3,4
 616 214 616 214 504 214 c 0,5,6
 394 214 394 214 310 292 c 1,7,-1
 145 153 l 1,8,-1
 120 184 l 1,9,-1
 286 322 l 1,10,11
 243 397 243 397 243 470 c 0,12,13
 243 613 243 613 369 743 c 1,14,-1
 259 882 l 1,15,-1
 297 913 l 1,16,-1
 407 775 l 1,17,18
 521 852 521 852 634 852 c 0,19,20
 744 852 744 852 828 775 c 1,21,-1
 994 913 l 1,22,-1
 1019 882 l 1,23,-1
 852 743 l 1,24,25
 895 668 895 668 895 596 c 0,26,27
 895 455 895 455 769 322 c 1,0,-1
818 579 m 0,28,29
 818 666 818 666 762 721.5 c 128,-1,30
 706 777 706 777 620 777 c 0,31,32
 502 777 502 777 411 688 c 128,-1,33
 320 599 320 599 320 485 c 0,34,35
 320 400 320 400 376.5 344.5 c 128,-1,36
 433 289 433 289 519 289 c 0,37,38
 635 289 635 289 726.5 377.5 c 128,-1,39
 818 466 818 466 818 579 c 0,28,29
EndSplineSet
EndChar

StartChar: uniFFFC
Encoding: 65532 65532 158
Width: 2048
Flags: W
LayerCount: 2
Fore
SplineSet
2048 1150 m 1,0,-1
 1948 1150 l 1,1,-1
 1948 1373 l 1,2,-1
 1725 1373 l 1,3,-1
 1725 1473 l 1,4,-1
 2048 1473 l 1,5,-1
 2048 1150 l 1,0,-1
1473 1373 m 1,6,-1
 1150 1373 l 1,7,-1
 1150 1473 l 1,8,-1
 1473 1473 l 1,9,-1
 1473 1373 l 1,6,-1
2048 575 m 1,10,-1
 1948 575 l 1,11,-1
 1948 898 l 1,12,-1
 2048 898 l 1,13,-1
 2048 575 l 1,10,-1
1782 611 m 2,14,15
 1782 370 1782 370 1571 370 c 0,16,17
 1485 370 1485 370 1433 415 c 1,18,-1
 1506 494 l 1,19,20
 1531 468 1531 468 1571 468 c 0,21,22
 1666 468 1666 468 1666 606 c 2,23,-1
 1666 1090 l 1,24,-1
 1782 1090 l 1,25,-1
 1782 611 l 2,14,15
898 1373 m 1,26,-1
 575 1373 l 1,27,-1
 575 1473 l 1,28,-1
 898 1473 l 1,29,-1
 898 1373 l 1,26,-1
2048 0 m 1,30,-1
 1725 0 l 1,31,-1
 1725 100 l 1,32,-1
 1948 100 l 1,33,-1
 1948 323 l 1,34,-1
 2048 323 l 1,35,-1
 2048 0 l 1,30,-1
1423 591 m 0,36,37
 1423 382 1423 382 1149 382 c 2,38,-1
 909 382 l 1,39,-1
 909 1090 l 1,40,-1
 1144 1090 l 2,41,42
 1393 1090 1393 1090 1393 904 c 0,43,44
 1393 813 1393 813 1304 759 c 1,45,46
 1423 713 1423 713 1423 591 c 0,36,37
323 1373 m 1,47,-1
 100 1373 l 1,48,-1
 100 1150 l 1,49,-1
 0 1150 l 1,50,-1
 0 1473 l 1,51,-1
 323 1473 l 1,52,-1
 323 1373 l 1,47,-1
1473 0 m 1,53,-1
 1150 0 l 1,54,-1
 1150 100 l 1,55,-1
 1473 100 l 1,56,-1
 1473 0 l 1,53,-1
854 735 m 0,57,58
 854 562 854 562 772 466 c 128,-1,59
 690 370 690 370 537 370 c 256,60,61
 384 370 384 370 303.5 466 c 128,-1,62
 223 562 223 562 223 735 c 0,63,64
 223 910 223 910 303.5 1006 c 128,-1,65
 384 1102 384 1102 537 1102 c 256,66,67
 690 1102 690 1102 772 1006 c 128,-1,68
 854 910 854 910 854 735 c 0,57,58
100 575 m 1,69,-1
 0 575 l 1,70,-1
 0 898 l 1,71,-1
 100 898 l 1,72,-1
 100 575 l 1,69,-1
898 0 m 1,73,-1
 575 0 l 1,74,-1
 575 100 l 1,75,-1
 898 100 l 1,76,-1
 898 0 l 1,73,-1
323 0 m 1,77,-1
 0 0 l 1,78,-1
 0 323 l 1,79,-1
 100 323 l 1,80,-1
 100 100 l 1,81,-1
 323 100 l 1,82,-1
 323 0 l 1,77,-1
1277 893 m 0,83,84
 1277 992 1277 992 1114 992 c 2,85,-1
 1025 992 l 1,86,-1
 1025 798 l 1,87,-1
 1126 798 l 2,88,89
 1277 798 1277 798 1277 893 c 0,83,84
1307 591 m 0,90,91
 1307 700 1307 700 1136 700 c 2,92,-1
 1025 700 l 1,93,-1
 1025 480 l 1,94,-1
 1149 480 l 2,95,96
 1307 480 1307 480 1307 591 c 0,90,91
738 735 m 0,97,98
 738 1004 738 1004 537 1004 c 0,99,100
 339 1004 339 1004 339 735 c 0,101,102
 339 468 339 468 537 468 c 0,103,104
 738 468 738 468 738 735 c 0,97,98
EndSplineSet
EndChar

StartChar: dotbelowcomb
Encoding: 65538 -1 160
Width: 0
Flags: W
LayerCount: 2
Fore
SplineSet
657 -336 m 1,0,-1
 469 -336 l 1,1,-1
 432 -165 l 1,2,-1
 620 -165 l 1,3,-1
 657 -336 l 1,0,-1
EndSplineSet
EndChar

StartChar: zerowidthnonjoiner
Encoding: 8204 8204 175
Width: 0
GlyphClass: 2
Flags: W
LayerCount: 2
Fore
SplineSet
36 1289 m 1,0,-1
 36 -275 l 1,1,-1
 -36 -275 l 1,2,-1
 -36 1289 l 1,3,-1
 36 1289 l 1,0,-1
EndSplineSet
EndChar

StartChar: zerowidthjoiner
Encoding: 8205 8205 176
Width: 0
GlyphClass: 2
Flags: W
LayerCount: 2
Fore
SplineSet
36 -275 m 1,0,-1
 -36 -275 l 1,1,-1
 -36 1114 l 1,2,-1
 -170 978 l 1,3,-1
 -219 1027 l 1,4,-1
 -48 1196 l 1,5,-1
 -219 1364 l 1,6,-1
 -170 1413 l 1,7,-1
 0 1242 l 1,8,-1
 170 1413 l 1,9,-1
 219 1364 l 1,10,-1
 48 1196 l 1,11,-1
 219 1027 l 1,12,-1
 170 978 l 1,13,-1
 36 1114 l 1,14,-1
 36 -275 l 1,0,-1
EndSplineSet
EndChar

StartChar: lefttorightmark
Encoding: 8206 8206 177
Width: 0
GlyphClass: 2
Flags: W
LayerCount: 2
Fore
SplineSet
430 1198 m 1,0,-1
 213 984 l 1,1,-1
 164 1033 l 1,2,-1
 301 1163 l 1,3,-1
 35 1163 l 1,4,-1
 35 -275 l 1,5,-1
 -36 -275 l 1,6,-1
 -36 1234 l 1,7,-1
 301 1234 l 1,8,-1
 164 1364 l 1,9,-1
 213 1413 l 1,10,-1
 430 1198 l 1,0,-1
EndSplineSet
EndChar

StartChar: righttoleftmark
Encoding: 8207 8207 178
Width: 0
GlyphClass: 2
Flags: W
LayerCount: 2
Fore
SplineSet
35 -275 m 1,0,-1
 -36 -275 l 1,1,-1
 -36 1163 l 1,2,-1
 -302 1163 l 1,3,-1
 -165 1033 l 1,4,-1
 -214 984 l 1,5,-1
 -431 1198 l 1,6,-1
 -214 1413 l 1,7,-1
 -165 1364 l 1,8,-1
 -302 1234 l 1,9,-1
 35 1234 l 1,10,-1
 35 -275 l 1,0,-1
EndSplineSet
EndChar

StartChar: afii57388.001
Encoding: 1644 1644 179
Width: 311
GlyphClass: 2
Flags: W
LayerCount: 2
Fore
SplineSet
62 576 m 0,0,1
 60 564 60 564 57 552.5 c 128,-1,2
 54 541 54 541 49 531 c 0,3,4
 42 520 42 520 31 519.5 c 128,-1,5
 20 519 20 519 23 531 c 0,6,7
 40 581 40 581 44 628 c 128,-1,8
 48 675 48 675 41 704 c 1,9,10
 19 709 19 709 4 718 c 128,-1,11
 -11 727 -11 727 -20.5 737 c 128,-1,12
 -30 747 -30 747 -34.5 756 c 128,-1,13
 -39 765 -39 765 -40 769 c 0,14,15
 -43 783 -43 783 -41.5 798 c 128,-1,16
 -40 813 -40 813 -34 825 c 128,-1,17
 -28 837 -28 837 -18 844.5 c 128,-1,18
 -8 852 -8 852 6 852 c 0,19,20
 58 852 58 852 76 769 c 0,21,22
 79 756 79 756 79.5 735 c 128,-1,23
 80 714 80 714 78.5 688 c 128,-1,24
 77 662 77 662 73 633 c 128,-1,25
 69 604 69 604 62 576 c 0,0,1
EndSplineSet
EndChar

StartChar: afii57409
Encoding: 1569 1569 180
Width: 627
GlyphClass: 2
Flags: W
AnchorPoint: "Anchor-3" 330 -255 basechar 0
AnchorPoint: "Anchor-2" 195 630 basechar 0
LayerCount: 2
Fore
SplineSet
497 267 m 1,0,-1
 480 150 l 1,1,2
 250 132 250 132 83 -11 c 1,3,-1
 76 88 l 1,4,5
 117 117 117 117 204 162 c 1,6,-1
 204 165 l 1,7,8
 77 194 77 194 57 289 c 0,9,10
 54 304 54 304 56 335 c 1,11,12
 150 501 150 501 245 501 c 0,13,14
 318 501 318 501 413 427 c 1,15,-1
 340 357 l 1,16,17
 288 402 288 402 238 402 c 0,18,19
 160 402 160 402 137 323 c 1,20,21
 162 238 162 238 313 216 c 1,22,23
 379 243 379 243 497 267 c 1,0,-1
EndSplineSet
EndChar

StartChar: afii57440
Encoding: 1600 1600 181
Width: 397
GlyphClass: 2
Flags: W
LayerCount: 2
Fore
SplineSet
428 24 m 1,0,1
 432 0 432 0 407 0 c 2,2,-1
 -11 0 l 2,3,4
 -36 0 -36 0 -40 24 c 2,5,-1
 -59 110 l 2,6,7
 -65 139 -65 139 -40 139 c 2,8,-1
 378 139 l 2,9,10
 403 139 403 139 409 110 c 2,11,-1
 428 24 l 1,12,-1
 428 24 l 1,0,1
EndSplineSet
EndChar

StartChar: afii57453
Encoding: 1613 1613 182
Width: 0
GlyphClass: 4
Flags: W
AnchorPoint: "Anchor-3" 0 0 mark 0
AnchorPoint: "Anchor-1" 0 0 mark 0
LayerCount: 2
Fore
SplineSet
-136 -159 m 1,0,-1
 -151 -88 l 1,1,-1
 151 44 l 1,2,-1
 166 -28 l 1,3,-1
 -136 -159 l 1,0,-1
-169 -4 m 1,4,-1
 -185 68 l 1,5,-1
 118 199 l 1,6,-1
 134 127 l 1,7,-1
 -169 -4 l 1,4,-1
EndSplineSet
EndChar

StartChar: afii57455.001
Encoding: 65539 -1 183
Width: 387
GlyphClass: 4
Flags: W
LayerCount: 2
Fore
SplineSet
-40 1424 m 1,0,1
 -94 1306 -94 1306 -255 1245 c 1,2,-1
 -275 1338 l 1,3,4
 -210 1349 -210 1349 -169 1376 c 128,-1,5
 -128 1403 -128 1403 -105 1441 c 1,6,7
 -147 1454 -147 1454 -179.5 1470.5 c 128,-1,8
 -212 1487 -212 1487 -238 1510 c 1,9,10
 -241 1550 -241 1550 -233 1584.5 c 128,-1,11
 -225 1619 -225 1619 -208 1643.5 c 128,-1,12
 -191 1668 -191 1668 -165 1682 c 128,-1,13
 -139 1696 -139 1696 -106 1696 c 1,14,15
 -47 1672 -47 1672 -29 1586 c 0,16,17
 -20 1547 -20 1547 -28 1485 c 1,18,19
 -12 1478 -12 1478 2 1473.5 c 128,-1,20
 16 1469 16 1469 28 1467 c 1,21,-1
 44 1391 l 1,22,-1
 -40 1424 l 1,0,1
-72 1553 m 0,23,24
 -83 1606 -83 1606 -121 1618 c 1,25,26
 -184 1618 -184 1618 -187 1541 c 1,27,28
 -169 1527 -169 1527 -141 1514 c 128,-1,29
 -113 1501 -113 1501 -77 1489 c 1,30,31
 -69 1503 -69 1503 -68.5 1519 c 128,-1,32
 -68 1535 -68 1535 -72 1553 c 0,23,24
EndSplineSet
EndChar

StartChar: afii57458.001
Encoding: 65540 -1 184
Width: 0
GlyphClass: 4
Flags: W
LayerCount: 2
Fore
SplineSet
-114 1173 m 0,0,1
 -109 1144 -109 1144 -115 1107 c 1,2,3
 -164 1045 -164 1045 -228 1045 c 0,4,5
 -279 1045 -279 1045 -316 1073 c 128,-1,6
 -353 1101 -353 1101 -363 1145 c 0,7,8
 -370 1179 -370 1179 -357.5 1234 c 128,-1,9
 -345 1289 -345 1289 -310 1364 c 1,10,11
 -138 1285 -138 1285 -114 1173 c 0,0,1
-158 1162 m 1,12,13
 -190 1236 -190 1236 -291 1276 c 1,14,15
 -328 1203 -328 1203 -319 1170 c 0,16,17
 -310 1128 -310 1128 -238 1128 c 0,18,19
 -182 1128 -182 1128 -158 1162 c 1,12,13
EndSplineSet
EndChar

StartChar: afii57381
Encoding: 1642 1642 185
Width: 901
GlyphClass: 2
Flags: W
LayerCount: 2
Fore
SplineSet
218 -116 m 1,0,-1
 437 1175 l 1,1,-1
 519 1145 l 1,2,-1
 301 -146 l 1,3,-1
 218 -116 l 1,0,-1
816 46 m 0,4,5
 824 10 824 10 803.5 -16 c 128,-1,6
 783 -42 783 -42 747 -42 c 0,7,8
 710 -42 710 -42 678.5 -16 c 128,-1,9
 647 10 647 10 639 47 c 0,10,11
 632 83 632 83 652 109 c 128,-1,12
 672 135 672 135 708 135 c 0,13,14
 746 135 746 135 777.5 109 c 128,-1,15
 809 83 809 83 816 46 c 0,4,5
70 999 m 0,16,17
 77 964 77 964 56.5 938 c 128,-1,18
 36 912 36 912 0 912 c 256,19,20
 -36 912 -36 912 -67.5 938 c 128,-1,21
 -99 964 -99 964 -106 1001 c 0,22,23
 -114 1037 -114 1037 -93.5 1063 c 128,-1,24
 -73 1089 -73 1089 -37 1089 c 0,25,26
 0 1089 0 1089 31 1063 c 128,-1,27
 62 1037 62 1037 70 999 c 0,16,17
EndSplineSet
EndChar

StartChar: afii57461
Encoding: 1643 1643 186
Width: 867
GlyphClass: 2
Flags: W
LayerCount: 2
Fore
SplineSet
201 -458 m 1,0,-1
 584 442 l 1,1,-1
 685 442 l 1,2,-1
 301 -458 l 1,3,-1
 201 -458 l 1,0,-1
EndSplineSet
EndChar

StartChar: afii63167
Encoding: 1645 1645 187
Width: 984
GlyphClass: 2
Flags: W
LayerCount: 2
Fore
SplineSet
611 642 m 1,0,-1
 930 645 l 1,1,-1
 930 537 l 1,2,-1
 618 539 l 1,3,-1
 854 310 l 1,4,-1
 777 232 l 1,5,-1
 542 474 l 1,6,-1
 548 148 l 1,7,-1
 438 148 l 1,8,-1
 442 474 l 1,9,-1
 208 232 l 1,10,-1
 129 310 l 1,11,-1
 371 540 l 1,12,-1
 55 537 l 1,13,-1
 55 645 l 1,14,-1
 370 642 l 1,15,-1
 150 858 l 1,16,-1
 227 937 l 1,17,-1
 442 719 l 1,18,-1
 438 1035 l 1,19,-1
 548 1035 l 1,20,-1
 542 715 l 1,21,-1
 757 937 l 1,22,-1
 834 858 l 1,23,-1
 611 642 l 1,0,-1
EndSplineSet
EndChar

StartChar: afii57459
Encoding: 65541 -1 188
Width: 555
GlyphClass: 2
Flags: W
LayerCount: 2
Fore
SplineSet
436 392 m 0,0,1
 453 313 453 313 454.5 240 c 128,-1,2
 456 167 456 167 444 101 c 1,3,4
 423 83 423 83 380.5 66 c 128,-1,5
 338 49 338 49 272 33 c 0,6,7
 203 16 203 16 139 8 c 128,-1,8
 75 0 75 0 11 0 c 2,9,-1
 -11 0 l 2,10,11
 -36 0 -36 0 -40 24 c 2,12,-1
 -59 110 l 2,13,14
 -65 139 -65 139 -40 139 c 2,15,-1
 -20 139 l 2,16,17
 49 139 49 139 112 144.5 c 128,-1,18
 175 150 175 150 233 162 c 0,19,20
 287 173 287 173 320 184 c 128,-1,21
 353 195 353 195 368 208 c 1,22,23
 378 239 378 239 379 277 c 128,-1,24
 380 315 380 315 371 363 c 1,25,26
 321 312 321 312 203 312 c 0,27,28
 103 312 103 312 27 363 c 1,29,30
 4 426 4 426 -7 473 c 0,31,32
 -49 675 -49 675 83 803 c 1,33,34
 360 742 360 742 436 392 c 0,0,1
329 488 m 1,35,36
 317 543 317 543 246 597 c 0,37,38
 172 652 172 652 93 652 c 1,39,40
 43 602 43 602 68 488 c 1,41,42
 112 451 112 451 198 451 c 0,43,44
 286 451 286 451 329 488 c 1,35,36
EndSplineSet
EndChar

StartChar: afii57543
Encoding: 65542 -1 189
Width: 501
Flags: W
LayerCount: 2
Fore
SplineSet
-59 110 m 1,0,1
 -62 127 -62 127 -58.5 133 c 128,-1,2
 -55 139 -55 139 -40 139 c 2,3,-1
 -20 139 l 2,4,5
 7 139 7 139 42 144.5 c 128,-1,6
 77 150 77 150 105.5 168.5 c 128,-1,7
 134 187 134 187 148.5 223 c 128,-1,8
 163 259 163 259 150 321 c 2,9,-1
 143 351 l 1,10,11
 146 356 146 356 153.5 357.5 c 128,-1,12
 161 359 161 359 171 359 c 0,13,14
 182 359 182 359 188.5 357 c 128,-1,15
 195 355 195 355 206 349 c 1,16,-1
 213 319 l 2,17,18
 225 263 225 263 242.5 228 c 128,-1,19
 260 193 260 193 289 173 c 128,-1,20
 318 153 318 153 360 146 c 128,-1,21
 402 139 402 139 462 139 c 2,22,-1
 482 139 l 2,23,24
 497 139 497 139 503.5 133 c 128,-1,25
 510 127 510 127 513 110 c 2,26,-1
 532 24 l 2,27,28
 536 0 536 0 512 0 c 2,29,-1
 492 0 l 2,30,31
 430 0 430 0 383 11.5 c 128,-1,32
 336 23 336 23 302.5 41.5 c 128,-1,33
 269 60 269 60 249.5 83 c 128,-1,34
 230 106 230 106 223 129 c 1,35,-1
 215 129 l 1,36,37
 215 99 215 99 200 75.5 c 128,-1,38
 185 52 185 52 161.5 35 c 128,-1,39
 138 18 138 18 108.5 9 c 128,-1,40
 79 0 79 0 50 0 c 2,41,-1
 -11 0 l 2,42,43
 -36 0 -36 0 -40 24 c 2,44,-1
 -59 110 l 1,45,-1
 -59 110 l 1,0,1
EndSplineSet
EndChar

StartChar: afii57534
Encoding: 1749 1749 190
Width: 638
GlyphClass: 2
Flags: W
LayerCount: 2
Fore
SplineSet
509 241 m 1,0,1
 510 195 510 195 500.5 149 c 128,-1,2
 491 103 491 103 474 55 c 1,3,4
 373 -11 373 -11 272 -11 c 0,5,6
 231 -11 231 -11 196 0 c 128,-1,7
 161 11 161 11 130 31 c 0,8,9
 97 54 97 54 76 83.5 c 128,-1,10
 55 113 55 113 47 150 c 0,11,12
 15 294 15 294 119 612 c 1,13,14
 457 458 457 458 509 241 c 1,0,1
444 186 m 1,15,16
 431 246 431 246 361 317 c 0,17,18
 319 358 319 358 268.5 391.5 c 128,-1,19
 218 425 218 425 155 451 c 1,20,-1
 129 344 l 2,21,22
 121 303 121 303 118.5 270 c 128,-1,23
 116 237 116 237 122 209 c 0,24,25
 130 175 130 175 172.5 151.5 c 128,-1,26
 215 128 215 128 281 128 c 0,27,28
 303 128 303 128 327 132.5 c 128,-1,29
 351 137 351 137 373.5 145 c 128,-1,30
 396 153 396 153 414.5 163.5 c 128,-1,31
 433 174 433 174 444 186 c 1,15,16
EndSplineSet
EndChar

StartChar: afii64240
Encoding: 65543 -1 191
Width: 273
Flags: W
LayerCount: 2
Fore
SplineSet
143 2 m 1,0,-1
 1 103 l 1,1,-1
 87 212 l 1,2,-1
 228 110 l 1,3,-1
 143 2 l 1,0,-1
EndSplineSet
EndChar

StartChar: afii64241
Encoding: 65544 -1 192
Width: 498
Flags: W
LayerCount: 2
Fore
SplineSet
369 20 m 1,0,-1
 225 121 l 1,1,-1
 312 231 l 1,2,-1
 452 128 l 1,3,-1
 369 20 l 1,0,-1
131 0 m 1,4,-1
 -9 99 l 1,5,-1
 77 209 l 1,6,-1
 216 106 l 1,7,-1
 131 0 l 1,4,-1
EndSplineSet
EndChar

StartChar: afii63954
Encoding: 65545 -1 193
Width: 479
Flags: W
LayerCount: 2
Fore
SplineSet
204 208 m 1,0,-1
 90 301 l 1,1,-1
 164 399 l 1,2,-1
 281 301 l 1,3,-1
 204 208 l 1,0,-1
360 11 m 1,4,-1
 245 106 l 1,5,-1
 319 204 l 1,6,-1
 436 106 l 1,7,-1
 360 11 l 1,4,-1
133 11 m 1,8,-1
 16 106 l 1,9,-1
 92 204 l 1,10,-1
 209 106 l 1,11,-1
 133 11 l 1,8,-1
EndSplineSet
EndChar

StartChar: afii57382
Encoding: 65546 -1 194
Width: 438
Flags: W
LayerCount: 2
Fore
SplineSet
299 -391 m 1,0,-1
 183 -295 l 1,1,-1
 259 -200 l 1,2,-1
 374 -295 l 1,3,-1
 299 -391 l 1,0,-1
371 -196 m 1,4,-1
 255 -100 l 1,5,-1
 331 -5 l 1,6,-1
 446 -100 l 1,7,-1
 371 -196 l 1,4,-1
144 -196 m 1,8,-1
 28 -100 l 1,9,-1
 104 -5 l 1,10,-1
 219 -100 l 1,11,-1
 144 -196 l 1,8,-1
EndSplineSet
EndChar

StartChar: afii64242
Encoding: 65547 -1 195
Width: 344
Flags: W
LayerCount: 2
Fore
SplineSet
260 275 m 1,0,1
 264 155 264 155 199 79 c 0,2,3
 128 0 128 0 9 0 c 2,4,-1
 -11 0 l 2,5,6
 -36 0 -36 0 -40 24 c 2,7,-1
 -59 110 l 2,8,9
 -65 139 -65 139 -40 139 c 2,10,-1
 6 139 l 2,11,12
 154 139 154 139 180 238 c 1,13,14
 165 276 165 276 135 312.5 c 128,-1,15
 105 349 105 349 61 384 c 1,16,-1
 98 559 l 1,17,18
 155 489 155 489 195.5 419 c 128,-1,19
 236 349 236 349 260 275 c 1,0,1
EndSplineSet
EndChar

StartChar: afii62881
Encoding: 59416 59416 196
Width: 0
GlyphClass: 4
Flags: W
AnchorPoint: "Anchor-2" 0 0 mark 0
AnchorPoint: "Anchor-0" 0 0 mark 0
LayerCount: 2
Fore
SplineSet
114 192 m 2,0,1
 142 62 142 62 52 62 c 0,2,3
 7 62 7 62 -17 134 c 1,4,-1
 -22 134 l 1,5,6
 -16 15 -16 15 -94 15 c 0,7,8
 -115 15 -115 15 -131.5 23.5 c 128,-1,9
 -148 32 -148 32 -161.5 53 c 128,-1,10
 -175 74 -175 74 -186.5 108.5 c 128,-1,11
 -198 143 -198 143 -209 195 c 1,12,-1
 -160 215 l 1,13,-1
 -145 143 l 1,14,15
 -129 94 -129 94 -100 94 c 0,16,17
 -47 94 -47 94 -68 197 c 0,18,19
 -70 208 -70 208 -72 217 c 128,-1,20
 -74 226 -74 226 -77 233 c 1,21,-1
 -29 251 l 1,22,23
 -5 139 -5 139 37 139 c 0,24,25
 72 139 72 139 55 216 c 0,26,27
 55 218 55 218 50.5 233.5 c 128,-1,28
 46 249 46 249 38 278 c 1,29,-1
 92 297 l 1,30,-1
 114 192 l 2,0,1
-246 308 m 1,31,-1
 -261 379 l 1,32,-1
 41 511 l 1,33,-1
 56 439 l 1,34,-1
 -246 308 l 1,31,-1
-279 463 m 1,35,-1
 -295 535 l 1,36,-1
 9 666 l 1,37,-1
 24 594 l 1,38,-1
 -279 463 l 1,35,-1
EndSplineSet
Ligature2: "'ccmp' Glyph Composition/Decomposition in Arabic lookup 4 subtable" afii57457 afii57451
EndChar

StartChar: afii57373
Encoding: 65548 -1 200
Width: 348
Flags: W
LayerCount: 2
Fore
SplineSet
213 429 m 1,0,1
 190 426 190 426 156 415.5 c 128,-1,2
 122 405 122 405 86 390.5 c 128,-1,3
 50 376 50 376 16 359 c 128,-1,4
 -18 342 -18 342 -40 326 c 1,5,-1
 -53 389 l 1,6,7
 -38 398 -38 398 -16.5 409 c 128,-1,8
 5 420 5 420 31 427 c 1,9,-1
 31 430 l 1,10,11
 -54 457 -54 457 -69 529 c 1,12,13
 -40 592 -40 592 -6.5 623 c 128,-1,14
 27 654 27 654 69 654 c 0,15,16
 119 654 119 654 166 598 c 1,17,-1
 123 556 l 1,18,19
 101 574 101 574 82 582 c 128,-1,20
 63 590 63 590 51 590 c 0,21,22
 33 590 33 590 16.5 577 c 128,-1,23
 0 564 0 564 -14 535 c 1,24,25
 27 473 27 473 99 470 c 1,26,27
 124 477 124 477 153.5 486.5 c 128,-1,28
 183 496 183 496 219 502 c 1,29,-1
 213 429 l 1,30,-1
 213 429 l 1,0,1
EndSplineSet
EndChar

StartChar: afii57374
Encoding: 65549 -1 201
Width: 600
GlyphClass: 2
Flags: W
LayerCount: 2
Fore
SplineSet
631 24 m 2,0,1
 635 0 635 0 611 0 c 2,2,-1
 591 0 l 2,3,4
 511 0 511 0 436 22.5 c 128,-1,5
 361 45 361 45 289 90 c 1,6,7
 244 45 244 45 175 22.5 c 128,-1,8
 106 0 106 0 9 0 c 2,9,-1
 -11 0 l 2,10,11
 -36 0 -36 0 -40 24 c 2,12,-1
 -59 110 l 2,13,14
 -65 139 -65 139 -40 139 c 2,15,-1
 -20 139 l 2,16,17
 99 139 99 139 154 162 c 1,18,19
 102 193 102 193 71.5 237.5 c 128,-1,20
 41 282 41 282 28 342 c 0,21,22
 5 450 5 450 57 532.5 c 128,-1,23
 109 615 109 615 229 660 c 1,24,25
 409 545 409 545 442 385 c 0,26,27
 467 265 467 265 374 172 c 1,28,29
 416 155 416 155 463.5 147 c 128,-1,30
 511 139 511 139 561 139 c 2,31,-1
 581 139 l 2,32,33
 606 139 606 139 612 110 c 2,34,-1
 631 24 l 2,0,1
359 363 m 0,35,36
 342 447 342 447 235 504 c 1,37,38
 116 480 116 480 106 339 c 1,39,40
 114 321 114 321 132.5 300 c 128,-1,41
 151 279 151 279 180 256 c 0,42,43
 206 234 206 234 227.5 220.5 c 128,-1,44
 249 207 249 207 265 200 c 1,45,46
 324 220 324 220 348 268 c 0,47,48
 369 312 369 312 359 363 c 0,35,36
EndSplineSet
EndChar

StartChar: afii57375
Encoding: 1619 1619 202
Width: 385
GlyphClass: 2
Flags: W
LayerCount: 2
Fore
SplineSet
178 888 m 1,0,1
 111 823 111 823 -21 823 c 0,2,3
 -81 823 -81 823 -98 825 c 1,4,5
 -110 790 -110 790 -105 745 c 1,6,7
 -148 745 -148 745 -157 749 c 1,8,9
 -176 840 -176 840 -158 913 c 1,10,11
 -105 900 -105 900 -15 900 c 0,12,13
 98 900 98 900 165 952 c 1,14,-1
 178 888 l 1,0,1
EndSplineSet
EndChar

StartChar: afii57471
Encoding: 65550 -1 203
Width: 1348
Flags: W
LayerCount: 2
Fore
SplineSet
1379 24 m 1,0,1
 1383 0 1383 0 1357 0 c 2,2,-1
 1339 0 l 2,3,4
 1261 0 1261 0 1207 38 c 0,5,6
 1184 56 1184 56 1168.5 78.5 c 128,-1,7
 1153 101 1153 101 1147 129 c 0,8,9
 1144 142 1144 142 1142.5 154 c 128,-1,10
 1141 166 1141 166 1143 180 c 1,11,12
 1097 139 1097 139 1032 105.5 c 128,-1,13
 967 72 967 72 884 45 c 0,14,15
 795 16 795 16 703 2.5 c 128,-1,16
 611 -11 611 -11 514 -11 c 0,17,18
 409 -11 409 -11 324 8 c 128,-1,19
 239 27 239 27 172 67 c 0,20,21
 52 139 52 139 28 256 c 0,22,23
 2 376 2 376 70 546 c 0,24,25
 70 548 70 548 81 548 c 0,26,27
 106 548 106 548 129 517 c 1,28,29
 110 467 110 467 105.5 421.5 c 128,-1,30
 101 376 101 376 109 335 c 0,31,32
 118 291 118 291 152 255 c 128,-1,33
 186 219 186 219 240 193 c 128,-1,34
 294 167 294 167 367 153 c 128,-1,35
 440 139 440 139 529 139 c 0,36,37
 582 139 582 139 644 145.5 c 128,-1,38
 706 152 706 152 781 165 c 0,39,40
 853 179 853 179 909.5 194 c 128,-1,41
 966 209 966 209 1004 227 c 0,42,43
 1037 242 1037 242 1059.5 256 c 128,-1,44
 1082 270 1082 270 1093 285 c 0,45,46
 1117 315 1117 315 1118 397 c 1,47,48
 1127 400 1127 400 1139 400 c 0,49,50
 1162 400 1162 400 1189 375 c 1,51,52
 1180 343 1180 343 1179.5 311.5 c 128,-1,53
 1179 280 1179 280 1186 249 c 0,54,55
 1210 139 1210 139 1309 139 c 2,56,-1
 1327 139 l 2,57,58
 1354 139 1354 139 1360 110 c 2,59,-1
 1379 24 l 1,60,-1
 1379 24 l 1,0,1
EndSplineSet
EndChar

StartChar: afii52258
Encoding: 65551 -1 204
Width: 1417
GlyphClass: 2
Flags: W
LayerCount: 2
Fore
SplineSet
1448 24 m 2,0,1
 1452 0 1452 0 1427 0 c 2,2,-1
 1407 0 l 2,3,4
 1328 0 1328 0 1252.5 22.5 c 128,-1,5
 1177 45 1177 45 1105 90 c 1,6,7
 1081 64 1081 64 1042 45.5 c 128,-1,8
 1003 27 1003 27 950 14 c 0,9,10
 889 2 889 2 796 -4.5 c 128,-1,11
 703 -11 703 -11 576 -11 c 0,12,13
 450 -11 450 -11 351.5 8 c 128,-1,14
 253 27 253 27 181 67 c 0,15,16
 53 137 53 137 28 256 c 0,17,18
 2 376 2 376 70 546 c 0,19,20
 70 548 70 548 81 548 c 0,21,22
 106 548 106 548 129 517 c 1,23,24
 110 467 110 467 105.5 421.5 c 128,-1,25
 101 376 101 376 109 335 c 0,26,27
 149 139 149 139 630 139 c 0,28,29
 748 139 748 139 832.5 144.5 c 128,-1,30
 917 150 917 150 971 162 c 1,31,32
 867 223 867 223 842 342 c 0,33,34
 819 450 819 450 872.5 532.5 c 128,-1,35
 926 615 926 615 1045 660 c 1,36,37
 1134 603 1134 603 1187.5 534.5 c 128,-1,38
 1241 466 1241 466 1258 385 c 0,39,40
 1285 266 1285 266 1191 172 c 1,41,42
 1233 155 1233 155 1280 147 c 128,-1,43
 1327 139 1327 139 1377 139 c 2,44,-1
 1397 139 l 2,45,46
 1423 139 1423 139 1429 110 c 2,47,-1
 1448 24 l 2,0,1
1173 363 m 0,48,49
 1156 446 1156 446 1052 504 c 1,50,51
 931 480 931 480 922 339 c 1,52,53
 939 303 939 303 996 256 c 0,54,55
 1046 214 1046 214 1082 200 c 1,56,57
 1109 210 1109 210 1130 227 c 128,-1,58
 1151 244 1151 244 1162 268 c 0,59,60
 1184 310 1184 310 1173 363 c 0,48,49
EndSplineSet
EndChar

StartChar: afii62889
Encoding: 65552 -1 210
Width: 1186
Flags: W
LayerCount: 2
Fore
SplineSet
1217 24 m 2,0,1
 1223 0 1223 0 1197 0 c 2,2,-1
 1092 0 l 1,3,4
 1099 -40 1099 -40 1104 -122 c 0,5,6
 1105 -202 1105 -202 1098 -236 c 1,7,8
 1049 -341 1049 -341 876 -430 c 0,9,10
 696 -527 696 -527 520 -524 c 0,11,12
 368 -524 368 -524 255 -451 c 0,13,14
 140 -375 140 -375 112 -238 c 0,15,16
 77 -77 77 -77 164 160 c 1,17,18
 193 160 193 160 230 132 c 1,19,20
 218 102 218 102 210 65.5 c 128,-1,21
 202 29 202 29 199 -16 c 0,22,23
 197 -57 197 -57 199 -90.5 c 128,-1,24
 201 -124 201 -124 207 -151 c 0,25,26
 229 -255 229 -255 312 -315 c 128,-1,27
 395 -375 395 -375 524 -375 c 0,28,29
 587 -375 587 -375 652.5 -359 c 128,-1,30
 718 -343 718 -343 787 -312 c 0,31,32
 933 -246 933 -246 1032 -141 c 1,33,34
 1035 -67 1035 -67 1020 5 c 1,35,36
 997 3 997 3 966.5 1.5 c 128,-1,37
 936 0 936 0 894 0 c 0,38,39
 822 0 822 0 765 13 c 128,-1,40
 708 26 708 26 663 52 c 1,41,42
 651 83 651 83 642 110.5 c 128,-1,43
 633 138 633 138 628 164 c 0,44,45
 585 366 585 366 717 492 c 1,46,47
 974 435 974 435 1055 139 c 1,48,-1
 1167 139 l 2,49,50
 1191 139 1191 139 1199 110 c 2,51,-1
 1217 24 l 2,0,1
978 139 m 1,52,53
 963 208 963 208 885 274 c 0,54,55
 806 342 806 342 732 342 c 1,56,57
 679 287 679 287 701 184 c 1,58,59
 743 161 743 161 811 150 c 128,-1,60
 879 139 879 139 978 139 c 1,52,53
EndSplineSet
EndChar

StartChar: afii62887
Encoding: 65553 -1 211
Width: 1316
Flags: W
LayerCount: 2
Fore
SplineSet
1221 289 m 0,0,1
 1221 276 1221 276 1216.5 252.5 c 128,-1,2
 1212 229 1212 229 1204 193 c 0,3,4
 1195 155 1195 155 1188.5 132 c 128,-1,5
 1182 109 1182 109 1174 101 c 0,6,7
 1117 75 1117 75 919 38 c 0,8,9
 675 -11 675 -11 495 -11 c 0,10,11
 390 -11 390 -11 305.5 8 c 128,-1,12
 221 27 221 27 154 67 c 0,13,14
 34 139 34 139 10 256 c 0,15,16
 -2 316 -2 316 7.5 388.5 c 128,-1,17
 17 461 17 461 51 546 c 0,18,19
 52 548 52 548 62 548 c 0,20,21
 88 548 88 548 111 517 c 1,22,23
 91 467 91 467 86.5 421.5 c 128,-1,24
 82 376 82 376 91 335 c 0,25,26
 100 291 100 291 133.5 255 c 128,-1,27
 167 219 167 219 221.5 193 c 128,-1,28
 276 167 276 167 349 153 c 128,-1,29
 422 139 422 139 510 139 c 0,30,31
 706 139 706 139 907 172 c 0,32,33
 989 183 989 183 1049 198 c 128,-1,34
 1109 213 1109 213 1149 227 c 1,35,36
 1145 239 1145 239 1133 259 c 128,-1,37
 1121 279 1121 279 1104 308 c 0,38,39
 1066 370 1066 370 1038 397 c 1,40,-1
 1085 559 l 1,41,42
 1102 536 1102 536 1122.5 500 c 128,-1,43
 1143 464 1143 464 1167 414 c 0,44,45
 1214 322 1214 322 1221 289 c 0,0,1
EndSplineSet
EndChar

StartChar: afii62888
Encoding: 1697 1697 212
Width: 1395
GlyphClass: 2
Flags: W
LayerCount: 2
Fore
SplineSet
1265 392 m 0,0,1
 1296 243 1296 243 1269 90 c 1,2,3
 1182 40 1182 40 996.5 14.5 c 128,-1,4
 811 -11 811 -11 521 -11 c 0,5,6
 413 -11 413 -11 327 8 c 128,-1,7
 241 27 241 27 174 67 c 0,8,9
 52 140 52 140 28 256 c 0,10,11
 2 376 2 376 70 546 c 0,12,13
 70 548 70 548 81 548 c 0,14,15
 106 548 106 548 129 517 c 1,16,17
 110 467 110 467 105.5 421.5 c 128,-1,18
 101 376 101 376 109 335 c 0,19,20
 118 291 118 291 152 255 c 128,-1,21
 186 219 186 219 241 193 c 128,-1,22
 296 167 296 167 370 153 c 128,-1,23
 444 139 444 139 534 139 c 0,24,25
 671 139 671 139 787.5 144.5 c 128,-1,26
 904 150 904 150 1001 162 c 0,27,28
 1082 172 1082 172 1130 183.5 c 128,-1,29
 1178 195 1178 195 1195 208 c 1,30,31
 1205 239 1205 239 1206 277 c 128,-1,32
 1207 315 1207 315 1199 363 c 1,33,34
 1145 312 1145 312 1029 312 c 0,35,36
 930 312 930 312 854 363 c 1,37,38
 843 395 843 395 834 422.5 c 128,-1,39
 825 450 825 450 820 473 c 0,40,41
 799 574 799 574 821.5 657 c 128,-1,42
 844 740 844 740 910 803 c 1,43,44
 1189 742 1189 742 1265 392 c 0,0,1
1156 488 m 1,45,46
 1144 543 1144 543 1073 597 c 0,47,48
 997 652 997 652 919 652 c 1,49,50
 870 601 870 601 895 488 c 1,51,52
 939 451 939 451 1025 451 c 0,53,54
 1113 451 1113 451 1156 488 c 1,45,46
EndSplineSet
Substitution2: "'fina' Terminal Forms in Arabic lookup 3 subtable" afii52258
Substitution2: "'medi' Medial Forms in Arabic lookup 2 subtable" afii57374
Substitution2: "'init' Initial Forms in Arabic lookup 1 subtable" afii57459
EndChar

StartChar: afii57567
Encoding: 1705 1705 219
Width: 1507
GlyphClass: 2
Flags: W
AnchorPoint: "Anchor-3" 555 -510 basechar 0
AnchorPoint: "Anchor-2" 360 975 basechar 0
LayerCount: 2
Fore
SplineSet
1212 173 m 1,0,1
 1186 125 1186 125 1134.5 90 c 128,-1,2
 1083 55 1083 55 1001 32.5 c 128,-1,3
 919 10 919 10 804.5 -0.5 c 128,-1,4
 690 -11 690 -11 540 -11 c 0,5,6
 421 -11 421 -11 331 10 c 128,-1,7
 241 31 241 31 177.5 67.5 c 128,-1,8
 114 104 114 104 77 152.5 c 128,-1,9
 40 201 40 201 28 256 c 0,10,11
 14 325 14 325 27.5 397.5 c 128,-1,12
 41 470 41 470 70 546 c 0,13,14
 70 548 70 548 81 548 c 0,15,16
 91 548 91 548 105.5 538.5 c 128,-1,17
 120 529 120 529 129 517 c 1,18,19
 112 467 112 467 107 417 c 128,-1,20
 102 367 102 367 109 335 c 0,21,22
 118 292 118 292 152 256 c 128,-1,23
 186 220 186 220 242 194 c 128,-1,24
 298 168 298 168 375 153.5 c 128,-1,25
 452 139 452 139 548 139 c 0,26,27
 1083 139 1083 139 1151 270 c 1,28,29
 1141 309 1141 309 1115.5 349 c 128,-1,30
 1090 389 1090 389 1039 433 c 128,-1,31
 988 477 988 477 906 526 c 128,-1,32
 824 575 824 575 702 634 c 1,33,-1
 682 834 l 1,34,35
 717 863 717 863 768 901 c 128,-1,36
 819 939 819 939 877.5 980 c 128,-1,37
 936 1021 936 1021 998.5 1062 c 128,-1,38
 1061 1103 1061 1103 1119 1139 c 128,-1,39
 1177 1175 1177 1175 1227.5 1202 c 128,-1,40
 1278 1229 1278 1229 1313 1242 c 1,41,-1
 1279 1071 l 1,42,43
 1255 1062 1255 1062 1212 1038.5 c 128,-1,44
 1169 1015 1169 1015 1117.5 984 c 128,-1,45
 1066 953 1066 953 1010.5 917.5 c 128,-1,46
 955 882 955 882 904.5 848 c 128,-1,47
 854 814 854 814 814 784.5 c 128,-1,48
 774 755 774 755 754 737 c 1,49,50
 857 685 857 685 933 637.5 c 128,-1,51
 1009 590 1009 590 1062 546 c 128,-1,52
 1115 502 1115 502 1148 459.5 c 128,-1,53
 1181 417 1181 417 1199 375 c 1,54,55
 1202 352 1202 352 1204.5 326 c 128,-1,56
 1207 300 1207 300 1209 273 c 128,-1,57
 1211 246 1211 246 1212 220.5 c 128,-1,58
 1213 195 1213 195 1212 173 c 1,0,1
EndSplineSet
Substitution2: "'fina' Terminal Forms in Arabic lookup 3 subtable" afii62964
Substitution2: "'medi' Medial Forms in Arabic lookup 2 subtable" afii52306
Substitution2: "'init' Initial Forms in Arabic lookup 1 subtable" afii52305
EndChar

StartChar: afii62964
Encoding: 64399 64399 220
Width: 1714
GlyphClass: 2
Flags: W
AnchorPoint: "Anchor-3" 585 -420 basechar 0
AnchorPoint: "Anchor-2" 420 1080 basechar 0
LayerCount: 2
Fore
SplineSet
1236 173 m 1,0,1
 1204 122 1204 122 1161.5 87 c 128,-1,2
 1119 52 1119 52 1046 30.5 c 128,-1,3
 973 9 973 9 859 -1 c 128,-1,4
 745 -11 745 -11 569 -11 c 0,5,6
 440 -11 440 -11 343.5 10 c 128,-1,7
 247 31 247 31 181 67.5 c 128,-1,8
 115 104 115 104 77.5 152.5 c 128,-1,9
 40 201 40 201 28 256 c 0,10,11
 14 325 14 325 27.5 397.5 c 128,-1,12
 41 470 41 470 70 546 c 0,13,14
 70 548 70 548 81 548 c 0,15,16
 91 548 91 548 105.5 538.5 c 128,-1,17
 120 529 120 529 129 517 c 1,18,19
 112 467 112 467 107 417 c 128,-1,20
 102 367 102 367 109 335 c 0,21,22
 118 292 118 292 152 256 c 128,-1,23
 186 220 186 220 244.5 194 c 128,-1,24
 303 168 303 168 385.5 153.5 c 128,-1,25
 468 139 468 139 574 139 c 0,26,27
 723 139 723 139 828.5 147 c 128,-1,28
 934 155 934 155 1005.5 171 c 128,-1,29
 1077 187 1077 187 1118 211.5 c 128,-1,30
 1159 236 1159 236 1178 270 c 1,31,32
 1167 310 1167 310 1141.5 349.5 c 128,-1,33
 1116 389 1116 389 1065.5 432 c 128,-1,34
 1015 475 1015 475 933.5 524.5 c 128,-1,35
 852 574 852 574 728 634 c 1,36,-1
 709 834 l 1,37,38
 742 863 742 863 792.5 901 c 128,-1,39
 843 939 843 939 901.5 980.5 c 128,-1,40
 960 1022 960 1022 1023 1063.5 c 128,-1,41
 1086 1105 1086 1105 1145 1140.5 c 128,-1,42
 1204 1176 1204 1176 1254.5 1203 c 128,-1,43
 1305 1230 1305 1230 1340 1242 c 1,44,-1
 1306 1071 l 1,45,46
 1282 1063 1282 1063 1238.5 1040 c 128,-1,47
 1195 1017 1195 1017 1143 986 c 128,-1,48
 1091 955 1091 955 1035 919 c 128,-1,49
 979 883 979 883 929 849 c 128,-1,50
 879 815 879 815 839.5 785 c 128,-1,51
 800 755 800 755 781 737 c 1,52,53
 841 705 841 705 897 672.5 c 128,-1,54
 953 640 953 640 1009 604 c 128,-1,55
 1065 568 1065 568 1122.5 527.5 c 128,-1,56
 1180 487 1180 487 1244.5 438.5 c 128,-1,57
 1309 390 1309 390 1382 331.5 c 128,-1,58
 1455 273 1455 273 1541 202 c 0,59,60
 1579 170 1579 170 1614 154.5 c 128,-1,61
 1649 139 1649 139 1675 139 c 2,62,-1
 1695 139 l 2,63,64
 1707 139 1707 139 1715 133 c 128,-1,65
 1723 127 1723 127 1727 110 c 2,66,-1
 1745 24 l 2,67,68
 1751 0 1751 0 1725 0 c 2,69,-1
 1705 0 l 2,70,71
 1683 0 1683 0 1661.5 4 c 128,-1,72
 1640 8 1640 8 1614 20.5 c 128,-1,73
 1588 33 1588 33 1554 57 c 128,-1,74
 1520 81 1520 81 1472 121.5 c 128,-1,75
 1424 162 1424 162 1358 221 c 128,-1,76
 1292 280 1292 280 1202 363 c 1,77,-1
 1199 359 l 1,78,79
 1210 337 1210 337 1216 316.5 c 128,-1,80
 1222 296 1222 296 1225 279 c 0,81,82
 1230 254 1230 254 1232 225 c 128,-1,83
 1234 196 1234 196 1236 173 c 1,0,1
EndSplineSet
EndChar

StartChar: afii52305
Encoding: 64400 64400 221
Width: 707
GlyphClass: 2
Flags: W
AnchorPoint: "Anchor-3" 195 -435 basechar 0
AnchorPoint: "Anchor-2" -15 1140 basechar 0
LayerCount: 2
Fore
SplineSet
473 1071 m 1,0,1
 449 1062 449 1062 406.5 1038.5 c 128,-1,2
 364 1015 364 1015 312.5 984 c 128,-1,3
 261 953 261 953 205 917.5 c 128,-1,4
 149 882 149 882 99 848 c 128,-1,5
 49 814 49 814 9.5 784.5 c 128,-1,6
 -30 755 -30 755 -50 737 c 1,7,8
 53 685 53 685 128 637.5 c 128,-1,9
 203 590 203 590 256 546 c 128,-1,10
 309 502 309 502 342.5 459.5 c 128,-1,11
 376 417 376 417 394 375 c 1,12,13
 396 352 396 352 398.5 326 c 128,-1,14
 401 300 401 300 403 273 c 128,-1,15
 405 246 405 246 406 220.5 c 128,-1,16
 407 195 407 195 407 173 c 1,17,18
 370 124 370 124 330 91 c 128,-1,19
 290 58 290 58 242 37.5 c 128,-1,20
 194 17 194 17 137 8.5 c 128,-1,21
 80 0 80 0 9 0 c 2,22,-1
 -11 0 l 2,23,24
 -36 0 -36 0 -40 24 c 2,25,-1
 -59 110 l 2,26,27
 -62 127 -62 127 -58.5 133 c 128,-1,28
 -55 139 -55 139 -40 139 c 2,29,-1
 10 139 l 2,30,31
 147 139 147 139 229.5 173 c 128,-1,32
 312 207 312 207 346 270 c 1,33,34
 336 309 336 309 310.5 349 c 128,-1,35
 285 389 285 389 234 433 c 128,-1,36
 183 477 183 477 101.5 526 c 128,-1,37
 20 575 20 575 -102 634 c 1,38,-1
 -123 834 l 1,39,40
 -89 863 -89 863 -38.5 901 c 128,-1,41
 12 939 12 939 70.5 980 c 128,-1,42
 129 1021 129 1021 192 1062.5 c 128,-1,43
 255 1104 255 1104 314 1139.5 c 128,-1,44
 373 1175 373 1175 423.5 1202 c 128,-1,45
 474 1229 474 1229 508 1242 c 1,46,-1
 473 1071 l 1,47,-1
 473 1071 l 1,0,1
EndSplineSet
EndChar

StartChar: afii52306
Encoding: 64401 64401 222
Width: 901
GlyphClass: 2
Flags: W
AnchorPoint: "Anchor-3" 300 -495 basechar 0
AnchorPoint: "Anchor-2" 45 1200 basechar 0
LayerCount: 2
Fore
SplineSet
932 24 m 1,0,1
 936 0 936 0 912 0 c 2,2,-1
 892 0 l 2,3,4
 871 0 871 0 850 3.5 c 128,-1,5
 829 7 829 7 803 19.5 c 128,-1,6
 777 32 777 32 742.5 56 c 128,-1,7
 708 80 708 80 659 120.5 c 128,-1,8
 610 161 610 161 544.5 220 c 128,-1,9
 479 279 479 279 391 363 c 1,10,-1
 388 359 l 1,11,12
 397 337 397 337 403 316.5 c 128,-1,13
 409 296 409 296 413 279 c 0,14,15
 418 254 418 254 420 225 c 128,-1,16
 422 196 422 196 422 173 c 1,17,18
 386 124 386 124 346.5 91 c 128,-1,19
 307 58 307 58 259.5 37.5 c 128,-1,20
 212 17 212 17 154.5 8.5 c 128,-1,21
 97 0 97 0 24 0 c 2,22,-1
 -11 0 l 2,23,24
 -36 0 -36 0 -40 24 c 2,25,-1
 -59 110 l 2,26,27
 -62 127 -62 127 -58.5 133 c 128,-1,28
 -55 139 -55 139 -40 139 c 2,29,-1
 30 139 l 2,30,31
 165 139 165 139 247.5 173 c 128,-1,32
 330 207 330 207 365 270 c 1,33,34
 353 310 353 310 327.5 349.5 c 128,-1,35
 302 389 302 389 251.5 432 c 128,-1,36
 201 475 201 475 120 524.5 c 128,-1,37
 39 574 39 574 -83 634 c 1,38,-1
 -103 834 l 1,39,40
 -70 863 -70 863 -20 901 c 128,-1,41
 30 939 30 939 88.5 980.5 c 128,-1,42
 147 1022 147 1022 210 1063.5 c 128,-1,43
 273 1105 273 1105 332 1140.5 c 128,-1,44
 391 1176 391 1176 441.5 1203 c 128,-1,45
 492 1230 492 1230 527 1242 c 1,46,-1
 493 1071 l 1,47,48
 469 1062 469 1062 426 1038.5 c 128,-1,49
 383 1015 383 1015 331.5 984 c 128,-1,50
 280 953 280 953 224.5 917.5 c 128,-1,51
 169 882 169 882 119 848 c 128,-1,52
 69 814 69 814 29 784.5 c 128,-1,53
 -11 755 -11 755 -31 737 c 1,54,55
 29 704 29 704 84.5 671.5 c 128,-1,56
 140 639 140 639 195.5 603 c 128,-1,57
 251 567 251 567 308.5 526.5 c 128,-1,58
 366 486 366 486 430.5 438 c 128,-1,59
 495 390 495 390 569 331.5 c 128,-1,60
 643 273 643 273 730 202 c 0,61,62
 768 170 768 170 802 154.5 c 128,-1,63
 836 139 836 139 862 139 c 2,64,-1
 882 139 l 2,65,66
 897 139 897 139 903.5 133 c 128,-1,67
 910 127 910 127 913 110 c 2,68,-1
 932 24 l 1,69,-1
 932 24 l 1,0,1
EndSplineSet
EndChar

StartChar: afii57509
Encoding: 1711 1711 223
Width: 1468
GlyphClass: 2
Flags: W
AnchorPoint: "Anchor-3" 585 -465 basechar 0
AnchorPoint: "Anchor-2" 330 960 basechar 0
LayerCount: 2
Fore
SplineSet
686 1016 m 1,0,1
 763 1059 763 1059 847.5 1099 c 128,-1,2
 932 1139 932 1139 1008.5 1171.5 c 128,-1,3
 1085 1204 1085 1204 1147.5 1226 c 128,-1,4
 1210 1248 1210 1248 1243 1256 c 1,5,-1
 1206 1159 l 1,6,7
 1191 1156 1191 1156 1156.5 1143.5 c 128,-1,8
 1122 1131 1122 1131 1075.5 1112 c 128,-1,9
 1029 1093 1029 1093 975 1070 c 128,-1,10
 921 1047 921 1047 868.5 1023 c 128,-1,11
 816 999 816 999 769 976 c 128,-1,12
 722 953 722 953 690 935 c 1,13,-1
 686 1016 l 1,0,1
1279 910 m 1,14,15
 1251 904 1251 904 1208 891 c 128,-1,16
 1165 878 1165 878 1114.5 861 c 128,-1,17
 1064 844 1064 844 1010.5 824.5 c 128,-1,18
 957 805 957 805 908.5 786 c 128,-1,19
 860 767 860 767 820 749 c 128,-1,20
 780 731 780 731 757 717 c 1,21,22
 863 672 863 672 939 629 c 128,-1,23
 1015 586 1015 586 1066.5 543.5 c 128,-1,24
 1118 501 1118 501 1149.5 459 c 128,-1,25
 1181 417 1181 417 1199 375 c 1,26,27
 1202 353 1202 353 1204.5 327 c 128,-1,28
 1207 301 1207 301 1209 274 c 128,-1,29
 1211 247 1211 247 1212 221 c 128,-1,30
 1213 195 1213 195 1212 173 c 1,31,32
 1186 125 1186 125 1134.5 90 c 128,-1,33
 1083 55 1083 55 1001 32.5 c 128,-1,34
 919 10 919 10 804.5 -0.5 c 128,-1,35
 690 -11 690 -11 540 -11 c 0,36,37
 421 -11 421 -11 331 10 c 128,-1,38
 241 31 241 31 177.5 67.5 c 128,-1,39
 114 104 114 104 77 152.5 c 128,-1,40
 40 201 40 201 28 256 c 0,41,42
 14 325 14 325 27.5 397.5 c 128,-1,43
 41 470 41 470 70 546 c 0,44,45
 70 548 70 548 81 548 c 0,46,47
 91 548 91 548 105.5 538.5 c 128,-1,48
 120 529 120 529 129 517 c 1,49,50
 112 467 112 467 107 417 c 128,-1,51
 102 367 102 367 109 335 c 0,52,53
 118 292 118 292 152 256 c 128,-1,54
 186 220 186 220 242 194 c 128,-1,55
 298 168 298 168 375 153.5 c 128,-1,56
 452 139 452 139 548 139 c 0,57,58
 1083 139 1083 139 1151 270 c 1,59,60
 1142 307 1142 307 1113.5 349 c 128,-1,61
 1085 391 1085 391 1032.5 436 c 128,-1,62
 980 481 980 481 900 528 c 128,-1,63
 820 575 820 575 706 620 c 1,64,-1
 685 813 l 1,65,66
 768 855 768 855 863.5 896 c 128,-1,67
 959 937 959 937 1049.5 972.5 c 128,-1,68
 1140 1008 1140 1008 1219 1034.5 c 128,-1,69
 1298 1061 1298 1061 1348 1074 c 1,70,-1
 1279 910 l 1,14,15
EndSplineSet
Substitution2: "'fina' Terminal Forms in Arabic lookup 3 subtable" afii62967
Substitution2: "'medi' Medial Forms in Arabic lookup 2 subtable" afii62966
Substitution2: "'init' Initial Forms in Arabic lookup 1 subtable" afii62965
EndChar

StartChar: afii62967
Encoding: 64403 64403 224
Width: 1714
GlyphClass: 2
Flags: W
AnchorPoint: "Anchor-3" 600 -525 basechar 0
AnchorPoint: "Anchor-2" 315 1065 basechar 0
LayerCount: 2
Fore
SplineSet
1745 24 m 2,0,1
 1751 0 1751 0 1725 0 c 2,2,-1
 1703 0 l 2,3,4
 1681 0 1681 0 1660.5 4 c 128,-1,5
 1640 8 1640 8 1614 20.5 c 128,-1,6
 1588 33 1588 33 1554 57 c 128,-1,7
 1520 81 1520 81 1472 121.5 c 128,-1,8
 1424 162 1424 162 1358 221 c 128,-1,9
 1292 280 1292 280 1202 363 c 1,10,-1
 1199 359 l 1,11,12
 1210 337 1210 337 1215 316.5 c 128,-1,13
 1220 296 1220 296 1223 279 c 0,14,15
 1228 254 1228 254 1231 225 c 128,-1,16
 1234 196 1234 196 1236 173 c 1,17,18
 1204 122 1204 122 1161.5 87 c 128,-1,19
 1119 52 1119 52 1046 30.5 c 128,-1,20
 973 9 973 9 859 -1 c 128,-1,21
 745 -11 745 -11 569 -11 c 0,22,23
 440 -11 440 -11 343.5 10 c 128,-1,24
 247 31 247 31 181 67.5 c 128,-1,25
 115 104 115 104 77.5 152.5 c 128,-1,26
 40 201 40 201 28 256 c 0,27,28
 14 325 14 325 27.5 397.5 c 128,-1,29
 41 470 41 470 70 546 c 0,30,31
 70 548 70 548 81 548 c 0,32,33
 91 548 91 548 105.5 538.5 c 128,-1,34
 120 529 120 529 129 517 c 1,35,36
 112 467 112 467 107 417 c 128,-1,37
 102 367 102 367 109 335 c 0,38,39
 118 292 118 292 152 256 c 128,-1,40
 186 220 186 220 244.5 194 c 128,-1,41
 303 168 303 168 385.5 153.5 c 128,-1,42
 468 139 468 139 574 139 c 0,43,44
 723 139 723 139 828.5 147 c 128,-1,45
 934 155 934 155 1005.5 171 c 128,-1,46
 1077 187 1077 187 1118 211.5 c 128,-1,47
 1159 236 1159 236 1178 270 c 1,48,49
 1167 307 1167 307 1138 349 c 128,-1,50
 1109 391 1109 391 1056.5 436 c 128,-1,51
 1004 481 1004 481 924 528 c 128,-1,52
 844 575 844 575 731 620 c 1,53,-1
 708 813 l 1,54,55
 764 840 764 840 831 868.5 c 128,-1,56
 898 897 898 897 968.5 924 c 128,-1,57
 1039 951 1039 951 1109.5 976 c 128,-1,58
 1180 1001 1180 1001 1243 1022 c 128,-1,59
 1306 1043 1306 1043 1358 1058 c 128,-1,60
 1410 1073 1410 1073 1443 1080 c 1,61,-1
 1361 915 l 1,62,63
 1334 908 1334 908 1287 894 c 128,-1,64
 1240 880 1240 880 1183.5 862 c 128,-1,65
 1127 844 1127 844 1065.5 824 c 128,-1,66
 1004 804 1004 804 949 784.5 c 128,-1,67
 894 765 894 765 849.5 747 c 128,-1,68
 805 729 805 729 782 717 c 1,69,70
 840 689 840 689 895 660 c 128,-1,71
 950 631 950 631 1005 597.5 c 128,-1,72
 1060 564 1060 564 1118 524.5 c 128,-1,73
 1176 485 1176 485 1241.5 437 c 128,-1,74
 1307 389 1307 389 1381 331 c 128,-1,75
 1455 273 1455 273 1543 202 c 0,76,77
 1581 170 1581 170 1615.5 154.5 c 128,-1,78
 1650 139 1650 139 1673 139 c 2,79,-1
 1695 139 l 2,80,81
 1707 139 1707 139 1715 133 c 128,-1,82
 1723 127 1723 127 1727 110 c 2,83,-1
 1745 24 l 2,0,1
715 1008 m 1,84,85
 765 1037 765 1037 824 1065 c 128,-1,86
 883 1093 883 1093 944 1119 c 128,-1,87
 1005 1145 1005 1145 1064.5 1167.5 c 128,-1,88
 1124 1190 1124 1190 1175.5 1208 c 128,-1,89
 1227 1226 1227 1226 1267 1238.5 c 128,-1,90
 1307 1251 1307 1251 1330 1256 c 1,91,-1
 1273 1154 l 1,92,93
 1259 1150 1259 1150 1221.5 1137 c 128,-1,94
 1184 1124 1184 1124 1133 1105 c 128,-1,95
 1082 1086 1082 1086 1023 1062.5 c 128,-1,96
 964 1039 964 1039 906.5 1015 c 128,-1,97
 849 991 849 991 798.5 968 c 128,-1,98
 748 945 748 945 715 927 c 1,99,-1
 715 1008 l 1,84,85
EndSplineSet
EndChar

StartChar: afii62965
Encoding: 64404 64404 225
Width: 673
GlyphClass: 2
Flags: W
AnchorPoint: "Anchor-3" 195 -465 basechar 0
AnchorPoint: "Anchor-2" -45 1200 basechar 0
LayerCount: 2
Fore
SplineSet
473 910 m 1,0,1
 446 903 446 903 403 889.5 c 128,-1,2
 360 876 360 876 310 859 c 128,-1,3
 260 842 260 842 207 822.5 c 128,-1,4
 154 803 154 803 105.5 784 c 128,-1,5
 57 765 57 765 16.5 747.5 c 128,-1,6
 -24 730 -24 730 -48 717 c 1,7,8
 58 672 58 672 134 629 c 128,-1,9
 210 586 210 586 261.5 543.5 c 128,-1,10
 313 501 313 501 344.5 459 c 128,-1,11
 376 417 376 417 394 375 c 1,12,13
 396 352 396 352 398.5 326 c 128,-1,14
 401 300 401 300 403 273 c 128,-1,15
 405 246 405 246 406 220.5 c 128,-1,16
 407 195 407 195 407 173 c 1,17,18
 370 124 370 124 330 91 c 128,-1,19
 290 58 290 58 242 37.5 c 128,-1,20
 194 17 194 17 137 8.5 c 128,-1,21
 80 0 80 0 9 0 c 2,22,-1
 -11 0 l 2,23,24
 -36 0 -36 0 -40 24 c 2,25,-1
 -59 110 l 2,26,27
 -62 127 -62 127 -58.5 133 c 128,-1,28
 -55 139 -55 139 -40 139 c 2,29,-1
 10 139 l 2,30,31
 147 139 147 139 229.5 173 c 128,-1,32
 312 207 312 207 346 270 c 1,33,34
 336 307 336 307 307.5 349 c 128,-1,35
 279 391 279 391 226 436 c 128,-1,36
 173 481 173 481 93 528 c 128,-1,37
 13 575 13 575 -99 620 c 1,38,-1
 -122 813 l 1,39,40
 -39 853 -39 853 56 895 c 128,-1,41
 151 937 151 937 242.5 973 c 128,-1,42
 334 1009 334 1009 413 1036 c 128,-1,43
 492 1063 492 1063 543 1074 c 1,44,-1
 473 910 l 1,0,1
-118 1016 m 1,45,46
 -42 1059 -42 1059 41.5 1099 c 128,-1,47
 125 1139 125 1139 201.5 1171.5 c 128,-1,48
 278 1204 278 1204 340.5 1226 c 128,-1,49
 403 1248 403 1248 437 1256 c 1,50,-1
 399 1159 l 1,51,52
 385 1155 385 1155 350.5 1142 c 128,-1,53
 316 1129 316 1129 269.5 1110.5 c 128,-1,54
 223 1092 223 1092 169 1069 c 128,-1,55
 115 1046 115 1046 62 1022.5 c 128,-1,56
 9 999 9 999 -38 976 c 128,-1,57
 -85 953 -85 953 -117 935 c 1,58,-1
 -118 1016 l 1,45,46
EndSplineSet
EndChar

StartChar: afii62966
Encoding: 64405 64405 226
Width: 901
GlyphClass: 2
Flags: W
AnchorPoint: "Anchor-3" 330 -450 basechar 0
AnchorPoint: "Anchor-2" 0 1290 basechar 0
LayerCount: 2
Fore
SplineSet
-104 813 m 1,0,1
 -48 840 -48 840 19.5 868.5 c 128,-1,2
 87 897 87 897 157.5 924.5 c 128,-1,3
 228 952 228 952 298.5 977 c 128,-1,4
 369 1002 369 1002 431.5 1022.5 c 128,-1,5
 494 1043 494 1043 545.5 1058 c 128,-1,6
 597 1073 597 1073 630 1080 c 1,7,-1
 549 915 l 1,8,9
 521 908 521 908 474 894 c 128,-1,10
 427 880 427 880 370.5 862.5 c 128,-1,11
 314 845 314 845 253 825 c 128,-1,12
 192 805 192 805 137 785.5 c 128,-1,13
 82 766 82 766 37.5 748 c 128,-1,14
 -7 730 -7 730 -30 717 c 1,15,16
 57 675 57 675 137.5 629.5 c 128,-1,17
 218 584 218 584 306 524.5 c 128,-1,18
 394 465 394 465 497 387 c 128,-1,19
 600 309 600 309 732 202 c 0,20,21
 770 170 770 170 803 154.5 c 128,-1,22
 836 139 836 139 862 139 c 2,23,-1
 882 139 l 2,24,25
 897 139 897 139 903.5 133 c 128,-1,26
 910 127 910 127 913 110 c 2,27,-1
 932 24 l 2,28,29
 936 0 936 0 912 0 c 2,30,-1
 892 0 l 2,31,32
 871 0 871 0 850 3.5 c 128,-1,33
 829 7 829 7 803 19.5 c 128,-1,34
 777 32 777 32 742.5 56 c 128,-1,35
 708 80 708 80 659 120.5 c 128,-1,36
 610 161 610 161 544.5 220 c 128,-1,37
 479 279 479 279 391 363 c 1,38,-1
 388 359 l 1,39,40
 397 337 397 337 403 316.5 c 128,-1,41
 409 296 409 296 413 279 c 0,42,43
 418 254 418 254 420 225 c 128,-1,44
 422 196 422 196 422 173 c 1,45,46
 386 124 386 124 346.5 91 c 128,-1,47
 307 58 307 58 259.5 37.5 c 128,-1,48
 212 17 212 17 154.5 8.5 c 128,-1,49
 97 0 97 0 24 0 c 2,50,-1
 -11 0 l 2,51,52
 -36 0 -36 0 -40 24 c 2,53,-1
 -59 110 l 2,54,55
 -62 127 -62 127 -58.5 133 c 128,-1,56
 -55 139 -55 139 -40 139 c 2,57,-1
 30 139 l 2,58,59
 165 139 165 139 247.5 173 c 128,-1,60
 330 207 330 207 365 270 c 1,61,62
 354 307 354 307 325.5 349 c 128,-1,63
 297 391 297 391 244 436 c 128,-1,64
 191 481 191 481 111.5 528 c 128,-1,65
 32 575 32 575 -81 620 c 1,66,-1
 -104 813 l 1,0,1
-97 1008 m 1,67,68
 -48 1037 -48 1037 11 1065 c 128,-1,69
 70 1093 70 1093 131 1119 c 128,-1,70
 192 1145 192 1145 251.5 1167.5 c 128,-1,71
 311 1190 311 1190 362.5 1208 c 128,-1,72
 414 1226 414 1226 454.5 1238.5 c 128,-1,73
 495 1251 495 1251 517 1256 c 1,74,-1
 461 1154 l 1,75,76
 447 1150 447 1150 409.5 1137 c 128,-1,77
 372 1124 372 1124 321 1104.5 c 128,-1,78
 270 1085 270 1085 211.5 1061.5 c 128,-1,79
 153 1038 153 1038 96 1014.5 c 128,-1,80
 39 991 39 991 -11.5 968 c 128,-1,81
 -62 945 -62 945 -95 927 c 1,82,-1
 -97 1008 l 1,67,68
EndSplineSet
EndChar

StartChar: afii57555
Encoding: 1740 1740 227
Width: 1323
GlyphClass: 2
Flags: W
AnchorPoint: "Anchor-3" 570 -780 basechar 0
AnchorPoint: "Anchor-2" 420 795 basechar 0
LayerCount: 2
Fore
SplineSet
1105 548 m 1,0,1
 1070 557 1070 557 1030 557 c 0,2,3
 930 557 930 557 860 476 c 0,4,5
 825 439 825 439 801 392 c 128,-1,6
 777 345 777 345 763 285 c 1,7,8
 783 252 783 252 821 230.5 c 128,-1,9
 859 209 859 209 914 196 c 0,10,11
 1043 172 1043 172 1091 148 c 0,12,13
 1111 139 1111 139 1123.5 124 c 128,-1,14
 1136 109 1136 109 1143 90 c 0,15,16
 1166 -20 1166 -20 1151 -144 c 1,17,18
 1090 -178 1090 -178 1019 -207.5 c 128,-1,19
 948 -237 948 -237 865 -263 c 0,20,21
 660 -330 660 -330 488 -330 c 0,22,23
 333 -330 333 -330 224 -258 c 0,24,25
 165 -218 165 -218 129.5 -165.5 c 128,-1,26
 94 -113 94 -113 79 -43 c 0,27,28
 67 14 67 14 84.5 114.5 c 128,-1,29
 102 215 102 215 151 363 c 1,30,31
 172 363 172 363 188.5 354.5 c 128,-1,32
 205 346 205 346 217 332 c 1,33,34
 194 275 194 275 181 187 c 0,35,36
 165 90 165 90 175 41 c 0,37,38
 185 -9 185 -9 212 -50 c 128,-1,39
 239 -91 239 -91 280 -120 c 128,-1,40
 321 -149 321 -149 374.5 -164.5 c 128,-1,41
 428 -180 428 -180 492 -180 c 0,42,43
 558 -180 558 -180 631.5 -169.5 c 128,-1,44
 705 -159 705 -159 788 -139 c 0,45,46
 877 -117 877 -117 954 -89 c 128,-1,47
 1031 -61 1031 -61 1097 -27 c 1,48,49
 1093 -8 1093 -8 1084 6 c 128,-1,50
 1075 20 1075 20 1056 30.5 c 128,-1,51
 1037 41 1037 41 1007.5 49 c 128,-1,52
 978 57 978 57 934 65 c 0,53,54
 786 89 786 89 699 179 c 1,55,56
 694 213 694 213 692 243 c 128,-1,57
 690 273 690 273 689 299 c 1,58,59
 730 513 730 513 816 617.5 c 128,-1,60
 902 722 902 722 1036 722 c 0,61,62
 1085 722 1085 722 1119 708 c 1,63,-1
 1105 548 l 1,0,1
EndSplineSet
Substitution2: "'fina' Terminal Forms in Arabic lookup 3 subtable" afii52364
Substitution2: "'medi' Medial Forms in Arabic lookup 2 subtable" afii62832
Substitution2: "'init' Initial Forms in Arabic lookup 1 subtable" uniFBFE
EndChar

StartChar: afii52364
Encoding: 64509 64509 228
Width: 1126
GlyphClass: 2
Flags: W
AnchorPoint: "Anchor-3" 510 -960 basechar 0
AnchorPoint: "Anchor-2" 450 555 basechar 0
LayerCount: 2
Fore
SplineSet
1157 24 m 1,0,1
 1163 0 1163 0 1135 0 c 2,2,-1
 989 0 l 2,3,4
 843 0 843 0 806 -70 c 1,5,6
 826 -82 826 -82 855.5 -92 c 128,-1,7
 885 -102 885 -102 924 -110 c 0,8,9
 974 -121 974 -121 1008 -130.5 c 128,-1,10
 1042 -140 1042 -140 1063 -151.5 c 128,-1,11
 1084 -163 1084 -163 1094.5 -177 c 128,-1,12
 1105 -191 1105 -191 1110 -211 c 0,13,14
 1111 -221 1111 -221 1113 -242.5 c 128,-1,15
 1115 -264 1115 -264 1115 -297 c 0,16,17
 1118 -368 1118 -368 1112 -395 c 1,18,19
 1061 -421 1061 -421 996.5 -444 c 128,-1,20
 932 -467 932 -467 851 -485 c 0,21,22
 764 -505 764 -505 682.5 -514.5 c 128,-1,23
 601 -524 601 -524 522 -524 c 0,24,25
 444 -524 444 -524 377.5 -506.5 c 128,-1,26
 311 -489 311 -489 256 -452 c 0,27,28
 140 -375 140 -375 112 -239 c 0,29,30
 95 -160 95 -160 107.5 -60.5 c 128,-1,31
 120 39 120 39 164 158 c 1,32,33
 179 158 179 158 196 151.5 c 128,-1,34
 213 145 213 145 231 129 c 1,35,36
 208 69 208 69 202 -18 c 0,37,38
 198 -59 198 -59 200 -92.5 c 128,-1,39
 202 -126 202 -126 207 -153 c 0,40,41
 230 -256 230 -256 312.5 -315.5 c 128,-1,42
 395 -375 395 -375 526 -375 c 0,43,44
 674 -375 674 -375 842 -348 c 0,45,46
 917 -337 917 -337 972.5 -325 c 128,-1,47
 1028 -313 1028 -313 1066 -299 c 1,48,49
 1046 -249 1046 -249 918 -225 c 0,50,51
 818 -206 818 -206 749 -167 c 1,52,53
 746 -119 746 -119 746 -67.5 c 128,-1,54
 746 -16 746 -16 748 38 c 1,55,56
 822 139 822 139 978 139 c 2,57,-1
 1105 139 l 2,58,59
 1131 139 1131 139 1139 110 c 2,60,-1
 1157 24 l 1,61,-1
 1157 24 l 1,0,1
EndSplineSet
EndChar

StartChar: afii62882
Encoding: 64606 64606 229
Width: 0
GlyphClass: 4
Flags: W
AnchorPoint: "Anchor-2" 0 0 mark 0
AnchorPoint: "Anchor-0" 0 0 mark 0
LayerCount: 2
Fore
SplineSet
-2 417 m 1,0,1
 -28 359 -28 359 -78.5 319 c 128,-1,2
 -129 279 -129 279 -206 250 c 1,3,4
 -220 315 -220 315 -229 354.5 c 128,-1,5
 -238 394 -238 394 -245 401 c 1,6,7
 -263 384 -263 384 -286 367.5 c 128,-1,8
 -309 351 -309 351 -338 336 c 1,9,-1
 -357 430 l 1,10,11
 -268 458 -268 458 -250 506 c 1,12,13
 -229 480 -229 480 -212 438 c 128,-1,14
 -195 396 -195 396 -182 341 c 1,15,16
 -97 373 -97 373 -60 436 c 1,17,18
 -102 447 -102 447 -138.5 466 c 128,-1,19
 -175 485 -175 485 -197 511 c 1,20,21
 -199 549 -199 549 -192.5 578 c 128,-1,22
 -186 607 -186 607 -169 634 c 0,23,24
 -132 686 -132 686 -64 686 c 1,25,26
 -6 662 -6 662 11 578 c 0,27,28
 21 536 21 536 12 475 c 1,29,-1
 60 462 l 1,30,-1
 76 388 l 1,31,-1
 -2 417 l 1,0,1
114 185 m 2,32,33
 140 57 140 57 51 57 c 0,34,35
 4 57 4 57 -20 129 c 1,36,-1
 -23 128 l 1,37,38
 -16 8 -16 8 -95 8 c 0,39,40
 -116 8 -116 8 -132.5 16.5 c 128,-1,41
 -149 25 -149 25 -162.5 46 c 128,-1,42
 -176 67 -176 67 -187 101.5 c 128,-1,43
 -198 136 -198 136 -209 188 c 1,44,-1
 -161 210 l 1,45,-1
 -145 136 l 2,46,47
 -131 87 -131 87 -101 87 c 0,48,49
 -49 87 -49 87 -70 190 c 0,50,51
 -73 203 -73 203 -75.5 211 c 128,-1,52
 -78 219 -78 219 -80 226 c 1,53,-1
 -31 246 l 1,54,55
 -7 135 -7 135 36 135 c 0,56,57
 69 135 69 135 53 212 c 0,58,59
 53 214 53 214 49 228 c 128,-1,60
 45 242 45 242 37 271 c 1,61,-1
 91 293 l 1,62,-1
 114 185 l 2,32,33
-32 542 m 0,63,64
 -44 595 -44 595 -82 608 c 1,65,66
 -142 608 -142 608 -145 542 c 1,67,68
 -127 524 -127 524 -98 511 c 128,-1,69
 -69 498 -69 498 -33 486 c 1,70,71
 -31 497 -31 497 -29 509.5 c 128,-1,72
 -27 522 -27 522 -32 542 c 0,63,64
EndSplineSet
Ligature2: "'ccmp' Glyph Composition/Decomposition in Arabic lookup 4 subtable" afii57457 afii57452
EndChar

StartChar: afii62883
Encoding: 64607 64607 230
Width: 0
GlyphClass: 4
Flags: W
AnchorPoint: "Anchor-2" 0 0 mark 0
AnchorPoint: "Anchor-0" 0 0 mark 0
LayerCount: 2
Fore
SplineSet
21 533 m 2,0,1
 49 403 49 403 -41 403 c 0,2,3
 -88 403 -88 403 -110 475 c 1,4,-1
 -115 475 l 1,5,6
 -110 356 -110 356 -188 356 c 0,7,8
 -209 356 -209 356 -225.5 364.5 c 128,-1,9
 -242 373 -242 373 -255.5 394 c 128,-1,10
 -269 415 -269 415 -280 450 c 128,-1,11
 -291 485 -291 485 -302 537 c 1,12,-1
 -254 556 l 1,13,-1
 -238 484 l 1,14,15
 -223 436 -223 436 -194 436 c 0,16,17
 -140 436 -140 436 -162 539 c 0,18,19
 -164 550 -164 550 -166 558.5 c 128,-1,20
 -168 567 -168 567 -171 575 c 1,21,-1
 -123 592 l 1,22,23
 -99 480 -99 480 -56 480 c 0,24,25
 -22 480 -22 480 -38 558 c 0,26,27
 -39 561 -39 561 -55 620 c 1,28,-1
 -1 639 l 1,29,-1
 21 533 l 2,0,1
-184 7 m 1,30,-1
 -199 78 l 1,31,-1
 104 210 l 1,32,-1
 119 138 l 1,33,-1
 -184 7 l 1,30,-1
-217 162 m 1,34,-1
 -232 234 l 1,35,-1
 70 365 l 1,36,-1
 86 293 l 1,37,-1
 -217 162 l 1,34,-1
EndSplineSet
Ligature2: "'ccmp' Glyph Composition/Decomposition in Arabic lookup 4 subtable" afii57457 afii57453
EndChar

StartChar: afii62884
Encoding: 64608 64608 231
Width: 0
GlyphClass: 4
Flags: W
AnchorPoint: "Anchor-2" 0 0 mark 0
AnchorPoint: "Anchor-0" 0 0 mark 0
LayerCount: 2
Fore
SplineSet
112 159 m 2,0,1
 138 32 138 32 49 32 c 0,2,3
 2 32 2 32 -22 104 c 1,4,-1
 -25 102 l 1,5,6
 -18 -18 -18 -18 -97 -18 c 0,7,8
 -118 -18 -118 -18 -134.5 -9.5 c 128,-1,9
 -151 -1 -151 -1 -164 20 c 128,-1,10
 -177 41 -177 41 -188.5 76 c 128,-1,11
 -200 111 -200 111 -211 163 c 1,12,-1
 -163 185 l 1,13,-1
 -147 111 l 1,14,15
 -131 62 -131 62 -102 62 c 0,16,17
 -51 62 -51 62 -72 165 c 0,18,19
 -75 177 -75 177 -77 185.5 c 128,-1,20
 -79 194 -79 194 -82 201 c 1,21,-1
 -33 221 l 1,22,23
 -9 109 -9 109 34 109 c 0,24,25
 67 109 67 109 51 187 c 0,26,27
 51 188 51 188 47 202.5 c 128,-1,28
 43 217 43 217 35 246 c 1,29,-1
 89 268 l 1,30,-1
 112 159 l 2,0,1
-231 240 m 1,31,-1
 -246 312 l 1,32,-1
 56 444 l 1,33,-1
 71 374 l 1,34,-1
 -231 240 l 1,31,-1
EndSplineSet
Ligature2: "'ccmp' Glyph Composition/Decomposition in Arabic lookup 4 subtable" afii57457 afii57454
EndChar

StartChar: afii62885
Encoding: 64609 64609 232
Width: 0
GlyphClass: 4
Flags: W
AnchorPoint: "Anchor-2" 0 0 mark 0
AnchorPoint: "Anchor-0" 0 0 mark 0
LayerCount: 2
Fore
SplineSet
109 180 m 2,0,1
 136 53 136 53 47 53 c 0,2,3
 -1 53 -1 53 -25 125 c 1,4,-1
 -27 123 l 1,5,6
 -21 4 -21 4 -99 4 c 0,7,8
 -143 4 -143 4 -166 41 c 0,9,10
 -180 61 -180 61 -191.5 96 c 128,-1,11
 -203 131 -203 131 -214 184 c 1,12,-1
 -165 206 l 1,13,-1
 -150 132 l 1,14,15
 -135 83 -135 83 -105 83 c 0,16,17
 -54 83 -54 83 -75 186 c 0,18,19
 -77 198 -77 198 -79.5 206.5 c 128,-1,20
 -82 215 -82 215 -84 222 c 1,21,-1
 -35 242 l 1,22,23
 -11 130 -11 130 32 130 c 0,24,25
 66 130 66 130 48 208 c 0,26,27
 48 209 48 209 44 224.5 c 128,-1,28
 40 240 40 240 33 267 c 1,29,-1
 86 289 l 1,30,-1
 109 180 l 2,0,1
72 378 m 1,31,32
 62 383 62 383 41 390.5 c 128,-1,33
 20 398 20 398 -12 409 c 1,34,35
 -65 295 -65 295 -231 246 c 1,36,-1
 -248 328 l 1,37,38
 -120 352 -120 352 -75 428 c 1,39,40
 -160 452 -160 452 -209 495 c 1,41,42
 -215 577 -215 577 -180 627.5 c 128,-1,43
 -145 678 -145 678 -77 678 c 1,44,45
 -18 654 -18 654 0 566 c 0,46,47
 3 550 3 550 4 526 c 128,-1,48
 5 502 5 502 0 471 c 1,49,50
 28 457 28 457 56 454 c 1,51,-1
 72 378 l 1,31,32
-44 533 m 0,52,53
 -56 586 -56 586 -94 600 c 1,54,55
 -124 600 -124 600 -140.5 582.5 c 128,-1,56
 -157 565 -157 565 -158 528 c 1,57,58
 -141 514 -141 514 -113.5 500 c 128,-1,59
 -86 486 -86 486 -48 474 c 1,60,61
 -42 489 -42 489 -41.5 503 c 128,-1,62
 -41 517 -41 517 -44 533 c 0,52,53
EndSplineSet
Ligature2: "'ccmp' Glyph Composition/Decomposition in Arabic lookup 4 subtable" afii57457 afii57455
EndChar

StartChar: afii62886
Encoding: 64610 64610 233
Width: 0
GlyphClass: 4
Flags: W
AnchorPoint: "Anchor-2" 0 0 mark 0
AnchorPoint: "Anchor-0" 0 0 mark 0
LayerCount: 2
Fore
SplineSet
73 391 m 2,0,1
 102 260 102 260 11 260 c 0,2,3
 -34 260 -34 260 -58 333 c 1,4,-1
 -62 331 l 1,5,6
 -59 214 -59 214 -136 214 c 0,7,8
 -157 214 -157 214 -173 222.5 c 128,-1,9
 -189 231 -189 231 -202.5 252 c 128,-1,10
 -216 273 -216 273 -227.5 307.5 c 128,-1,11
 -239 342 -239 342 -250 394 c 1,12,-1
 -202 414 l 1,13,-1
 -187 341 l 1,14,15
 -169 291 -169 291 -142 291 c 0,16,17
 -87 291 -87 291 -109 396 c 0,18,19
 -112 407 -112 407 -114 416 c 128,-1,20
 -116 425 -116 425 -119 432 c 1,21,-1
 -70 450 l 1,22,23
 -47 338 -47 338 -4 338 c 0,24,25
 31 338 31 338 13 415 c 0,26,27
 13 417 13 417 8.5 432.5 c 128,-1,28
 4 448 4 448 -3 477 c 1,29,-1
 50 497 l 1,30,-1
 73 391 l 2,0,1
-162 5 m 1,31,-1
 -177 77 l 1,32,-1
 126 209 l 1,33,-1
 142 136 l 1,34,-1
 -162 5 l 1,31,-1
EndSplineSet
Ligature2: "'ccmp' Glyph Composition/Decomposition in Arabic lookup 4 subtable" afii57457 afii57456
EndChar

StartChar: afii62945
Encoding: 65554 -1 234
Width: 1420
GlyphClass: 3
Flags: W
LayerCount: 2
Fore
SplineSet
1293 263 m 1,0,1
 1299 204 1299 204 1289.5 155.5 c 128,-1,2
 1280 107 1280 107 1257.5 72.5 c 128,-1,3
 1235 38 1235 38 1201 19 c 128,-1,4
 1167 0 1167 0 1124 0 c 0,5,6
 1075 0 1075 0 1023 36 c 0,7,8
 995 56 995 56 973.5 80 c 128,-1,9
 952 104 952 104 936 136 c 1,10,11
 858 -27 858 -27 704 -27 c 0,12,13
 518 -27 518 -27 444 254 c 1,14,-1
 357 144 l 1,15,16
 132 144 132 144 23 241 c 1,17,18
 25 281 25 281 32.5 326.5 c 128,-1,19
 40 372 40 372 55 425 c 1,20,21
 100 470 100 470 182.5 505.5 c 128,-1,22
 265 541 265 541 383 569 c 1,23,-1
 362 671 l 1,24,-1
 435 766 l 1,25,26
 439 716 439 716 451 639 c 128,-1,27
 463 562 463 562 486 456 c 0,28,29
 509 346 509 346 532.5 274 c 128,-1,30
 556 202 556 202 582 167 c 0,31,32
 618 112 618 112 698 112 c 0,33,34
 793 112 793 112 887 215 c 1,35,36
 867 273 867 273 831.5 391.5 c 128,-1,37
 796 510 796 510 745 693 c 1,38,-1
 819 813 l 1,39,40
 870 593 870 593 908.5 454 c 128,-1,41
 947 315 947 315 972 254 c 0,42,43
 1021 139 1021 139 1106 139 c 0,44,45
 1179 139 1179 139 1228 200 c 1,46,47
 1220 219 1220 219 1197.5 283.5 c 128,-1,48
 1175 348 1175 348 1138 458 c 0,49,50
 1102 570 1102 570 1077 649.5 c 128,-1,51
 1052 729 1052 729 1041 777 c 1,52,-1
 1100 915 l 1,53,54
 1129 784 1129 784 1176.5 621.5 c 128,-1,55
 1224 459 1224 459 1293 263 c 1,0,1
440 270 m 1,56,57
 435 285 435 285 429.5 308.5 c 128,-1,58
 424 332 424 332 416 366 c 0,59,60
 408 407 408 407 403 435.5 c 128,-1,61
 398 464 398 464 395 481 c 1,62,63
 357 475 357 475 318.5 462 c 128,-1,64
 280 449 280 449 241 429 c 0,65,66
 195 406 195 406 166.5 382 c 128,-1,67
 138 358 138 358 122 332 c 1,68,69
 163 270 163 270 440 270 c 1,56,57
EndSplineSet
EndChar

StartChar: afii64184
Encoding: 65010 65010 235
Width: 1421
GlyphClass: 3
Flags: W
AnchorPoint: "Anchor-1" 1305 -330 baselig 0
AnchorPoint: "Anchor-0" 1065 930 baselig 0
AnchorPoint: "Anchor-1" 915 -375 baselig 1
AnchorPoint: "Anchor-0" 750 840 baselig 1
AnchorPoint: "Anchor-1" 315 -390 baselig 2
AnchorPoint: "Anchor-0" 210 750 baselig 2
LayerCount: 2
Fore
SplineSet
1297 263 m 1,0,1
 1304 204 1304 204 1294.5 155.5 c 128,-1,2
 1285 107 1285 107 1262.5 72.5 c 128,-1,3
 1240 38 1240 38 1205.5 19 c 128,-1,4
 1171 0 1171 0 1128 0 c 0,5,6
 1079 0 1079 0 1027 36 c 0,7,8
 1000 56 1000 56 978.5 80 c 128,-1,9
 957 104 957 104 941 136 c 1,10,11
 862 -27 862 -27 708 -27 c 0,12,13
 522 -27 522 -27 448 254 c 1,14,-1
 362 144 l 1,15,16
 136 144 136 144 27 241 c 1,17,18
 30 318 30 318 59 425 c 1,19,20
 105 470 105 470 187 505.5 c 128,-1,21
 269 541 269 541 387 569 c 1,22,-1
 366 671 l 1,23,-1
 439 766 l 1,24,25
 443 716 443 716 455 639 c 128,-1,26
 467 562 467 562 490 456 c 0,27,28
 514 346 514 346 537.5 274 c 128,-1,29
 561 202 561 202 586 167 c 0,30,31
 624 112 624 112 702 112 c 0,32,33
 797 112 797 112 891 215 c 1,34,35
 871 273 871 273 836 391.5 c 128,-1,36
 801 510 801 510 750 693 c 1,37,-1
 824 813 l 1,38,39
 875 593 875 593 913 454 c 128,-1,40
 951 315 951 315 976 254 c 0,41,42
 1025 139 1025 139 1111 139 c 0,43,44
 1184 139 1184 139 1233 200 c 1,45,46
 1225 219 1225 219 1202.5 283.5 c 128,-1,47
 1180 348 1180 348 1142 458 c 0,48,49
 1107 570 1107 570 1081.5 649.5 c 128,-1,50
 1056 729 1056 729 1045 777 c 1,51,-1
 1104 915 l 1,52,53
 1133 784 1133 784 1180.5 621.5 c 128,-1,54
 1228 459 1228 459 1297 263 c 1,0,1
444 270 m 1,55,56
 439 285 439 285 433.5 308.5 c 128,-1,57
 428 332 428 332 421 366 c 0,58,59
 412 407 412 407 407 435.5 c 128,-1,60
 402 464 402 464 400 481 c 1,61,62
 321 469 321 469 246 429 c 0,63,64
 200 406 200 406 171 382 c 128,-1,65
 142 358 142 358 127 332 c 1,66,67
 167 270 167 270 444 270 c 1,55,56
864 1027 m 2,68,69
 893 899 893 899 801 899 c 0,70,71
 756 899 756 899 732 972 c 1,72,-1
 727 970 l 1,73,74
 733 851 733 851 655 851 c 0,75,76
 634 851 634 851 617.5 859.5 c 128,-1,77
 601 868 601 868 587.5 888.5 c 128,-1,78
 574 909 574 909 563 943.5 c 128,-1,79
 552 978 552 978 541 1030 c 1,80,-1
 590 1051 l 1,81,-1
 605 979 l 1,82,83
 620 930 620 930 649 930 c 0,84,85
 703 930 703 930 681 1033 c 0,86,87
 679 1044 679 1044 677 1053 c 128,-1,88
 675 1062 675 1062 671 1068 c 1,89,-1
 720 1089 l 1,90,91
 743 977 743 977 787 977 c 0,92,93
 820 977 820 977 804 1052 c 0,94,95
 804 1054 804 1054 800 1069.5 c 128,-1,96
 796 1085 796 1085 788 1114 c 1,97,-1
 842 1133 l 1,98,-1
 864 1027 l 2,68,69
655 1114 m 1,99,100
 623 1260 623 1260 539 1355 c 1,101,-1
 590 1413 l 1,102,103
 652 1346 652 1346 693 1157 c 1,104,-1
 655 1114 l 1,99,100
EndSplineSet
Ligature2: "'rlig' Required Ligatures in Arabic lookup 6 subtable" afii62817 afii62818 uni06C1
Ligature2: "'rlig' Required Ligatures in Arabic lookup 5 subtable" afii62817 afii62818 uniFC63 afii62828
Ligature2: "'rlig' Required Ligatures in Arabic lookup 5 subtable" afii62817 afii62818 afii57457 uni0670 afii62828
EndChar

StartChar: afii57415.001
Encoding: 1575 1575 249
Width: 341
GlyphClass: 2
Flags: W
AnchorPoint: "Anchor-3" 195 -390 basechar 0
AnchorPoint: "Anchor-2" -165 1305 basechar 0
LayerCount: 2
Fore
SplineSet
112 595 m 0,0,1
 144 446 144 446 168.5 318 c 128,-1,2
 193 190 193 190 212 83 c 1,3,-1
 158 -55 l 1,4,-1
 25 535 l 2,5,6
 -18 727 -18 727 -63.5 872.5 c 128,-1,7
 -109 1018 -109 1018 -160 1123 c 1,8,-1
 -68 1242 l 1,9,10
 30 980 30 980 112 595 c 0,0,1
EndSplineSet
Substitution2: "'fina' Terminal Forms in Arabic lookup 3 subtable" afii62760
PairPos2: "'kern' Horizontal Kerning in Arabic lookup 0 subtable" uni06B4.init dx=100 dy=0 dh=100 dv=0 dx=0 dy=0 dh=0 dv=0
PairPos2: "'kern' Horizontal Kerning in Arabic lookup 0 subtable" uni06B4 dx=70 dy=0 dh=70 dv=0 dx=0 dy=0 dh=0 dv=0
PairPos2: "'kern' Horizontal Kerning in Arabic lookup 0 subtable" uniFB98 dx=100 dy=0 dh=100 dv=0 dx=0 dy=0 dh=0 dv=0
PairPos2: "'kern' Horizontal Kerning in Arabic lookup 0 subtable" uni06B3 dx=70 dy=0 dh=70 dv=0 dx=0 dy=0 dh=0 dv=0
PairPos2: "'kern' Horizontal Kerning in Arabic lookup 0 subtable" uni06B2.init dx=100 dy=0 dh=100 dv=0 dx=0 dy=0 dh=0 dv=0
PairPos2: "'kern' Horizontal Kerning in Arabic lookup 0 subtable" uniFB9C dx=100 dy=0 dh=100 dv=0 dx=0 dy=0 dh=0 dv=0
PairPos2: "'kern' Horizontal Kerning in Arabic lookup 0 subtable" uni06B1 dx=70 dy=0 dh=70 dv=0 dx=0 dy=0 dh=0 dv=0
PairPos2: "'kern' Horizontal Kerning in Arabic lookup 0 subtable" uni06B0.init dx=100 dy=0 dh=100 dv=0 dx=0 dy=0 dh=0 dv=0
PairPos2: "'kern' Horizontal Kerning in Arabic lookup 0 subtable" uni06B0 dx=70 dy=0 dh=70 dv=0 dx=0 dy=0 dh=0 dv=0
PairPos2: "'kern' Horizontal Kerning in Arabic lookup 0 subtable" uni06AE.init dx=70 dy=0 dh=70 dv=0 dx=0 dy=0 dh=0 dv=0
PairPos2: "'kern' Horizontal Kerning in Arabic lookup 0 subtable" uniFBD5 dx=70 dy=0 dh=70 dv=0 dx=0 dy=0 dh=0 dv=0
PairPos2: "'kern' Horizontal Kerning in Arabic lookup 0 subtable" uni06AB.init dx=70 dy=0 dh=70 dv=0 dx=0 dy=0 dh=0 dv=0
PairPos2: "'kern' Horizontal Kerning in Arabic lookup 0 subtable" uni06AB.init dx=70 dy=0 dh=70 dv=0 dx=0 dy=0 dh=0 dv=0
PairPos2: "'kern' Horizontal Kerning in Arabic lookup 0 subtable" uni06AB.001 dx=100 dy=0 dh=100 dv=0 dx=0 dy=0 dh=0 dv=0
PairPos2: "'kern' Horizontal Kerning in Arabic lookup 0 subtable" afii57410 dx=70 dy=0 dh=70 dv=0 dx=0 dy=0 dh=0 dv=0
PairPos2: "'kern' Horizontal Kerning in Arabic lookup 0 subtable" afii62965 dx=100 dy=0 dh=100 dv=0 dx=0 dy=0 dh=0 dv=0
PairPos2: "'kern' Horizontal Kerning in Arabic lookup 0 subtable" afii57509 dx=70 dy=0 dh=70 dv=0 dx=0 dy=0 dh=0 dv=0
PairPos2: "'kern' Horizontal Kerning in Arabic lookup 0 subtable" afii52305 dx=70 dy=0 dh=70 dv=0 dx=0 dy=0 dh=0 dv=0
PairPos2: "'kern' Horizontal Kerning in Arabic lookup 0 subtable" afii57567 dx=100 dy=0 dh=100 dv=0 dx=0 dy=0 dh=0 dv=0
EndChar

StartChar: afii62760.001
Encoding: 65555 -1 250
Width: 400
GlyphClass: 2
Flags: W
LayerCount: 2
Fore
SplineSet
431 24 m 1,0,1
 437 0 437 0 411 0 c 2,2,-1
 391 0 l 2,3,4
 260 0 260 0 194 88 c 0,5,6
 123 181 123 181 66 451 c 0,7,8
 46 542 46 542 20.5 638 c 128,-1,9
 -5 734 -5 734 -37 838 c 0,10,11
 -69 943 -69 943 -95 1011.5 c 128,-1,12
 -121 1080 -121 1080 -141 1118 c 1,13,-1
 -63 1242 l 1,14,15
 32 1029 32 1029 143 509 c 0,16,17
 167 393 167 393 189.5 318 c 128,-1,18
 212 243 212 243 234 208 c 0,19,20
 273 139 273 139 361 139 c 2,21,-1
 381 139 l 2,22,23
 405 139 405 139 413 110 c 2,24,-1
 431 24 l 1,25,-1
 431 24 l 1,0,1
EndSplineSet
EndChar

StartChar: afii57421
Encoding: 1581 1581 269
Width: 1011
GlyphClass: 2
Flags: W
AnchorPoint: "Anchor-3" 510 -915 basechar 0
AnchorPoint: "Anchor-2" 360 900 basechar 0
LayerCount: 2
Fore
SplineSet
991 -483 m 1,0,1
 950 -503 950 -503 881 -513.5 c 128,-1,2
 812 -524 812 -524 711 -524 c 0,3,4
 487 -524 487 -524 318 -429 c 0,5,6
 135 -324 135 -324 99 -150 c 0,7,8
 59 34 59 34 185 187 c 0,9,10
 240 253 240 253 317.5 305 c 128,-1,11
 395 357 395 357 494 395 c 1,12,-1
 493 399 l 1,13,14
 416 410 416 410 347 426 c 128,-1,15
 278 442 278 442 218 461 c 0,16,17
 162 480 162 480 134 480 c 0,18,19
 100 480 100 480 75 366 c 1,20,21
 59 366 59 366 44.5 370 c 128,-1,22
 30 374 30 374 18 384 c 1,23,-1
 60 542 l 2,24,25
 79 618 79 618 131 618 c 0,26,27
 133 618 133 618 188 603.5 c 128,-1,28
 243 589 243 589 351 561 c 0,29,30
 459 532 459 532 533 517 c 128,-1,31
 607 502 607 502 649 502 c 0,32,33
 694 502 694 502 729.5 506.5 c 128,-1,34
 765 511 765 511 790 519 c 1,35,-1
 754 382 l 1,36,37
 526 376 526 376 361 236 c 1,38,39
 187 94 187 94 224 -81 c 0,40,41
 257 -229 257 -229 420 -317 c 0,42,43
 576 -404 576 -404 799 -404 c 0,44,45
 885 -404 885 -404 950 -395.5 c 128,-1,46
 1015 -387 1015 -387 1062 -370 c 1,47,-1
 991 -483 l 1,0,1
EndSplineSet
Substitution2: "'fina' Terminal Forms in Arabic lookup 3 subtable" afii62776
Substitution2: "'medi' Medial Forms in Arabic lookup 2 subtable" afii62775
Substitution2: "'init' Initial Forms in Arabic lookup 1 subtable" afii62774
EndChar

StartChar: afii62776
Encoding: 65186 65186 270
Width: 1011
GlyphClass: 2
Flags: W
AnchorPoint: "Anchor-3" 450 -945 basechar 0
AnchorPoint: "Anchor-2" 390 915 basechar 0
LayerCount: 2
Fore
SplineSet
1055 -483 m 1,0,1
 861 -524 861 -524 711 -524 c 0,2,3
 487 -524 487 -524 318 -429 c 0,4,5
 135 -324 135 -324 99 -150 c 0,6,7
 59 34 59 34 185 187 c 0,8,9
 240 253 240 253 317.5 305 c 128,-1,10
 395 357 395 357 494 395 c 1,11,-1
 493 399 l 1,12,13
 416 410 416 410 347 426 c 128,-1,14
 278 442 278 442 218 461 c 0,15,16
 162 480 162 480 134 480 c 0,17,18
 100 480 100 480 75 366 c 1,19,20
 59 366 59 366 44.5 370 c 128,-1,21
 30 374 30 374 18 384 c 1,22,-1
 60 542 l 2,23,24
 79 618 79 618 131 618 c 0,25,26
 133 618 133 618 188 603.5 c 128,-1,27
 243 589 243 589 351 561 c 0,28,29
 459 532 459 532 533 517 c 128,-1,30
 607 502 607 502 649 502 c 0,31,32
 705 502 705 502 762.5 510.5 c 128,-1,33
 820 519 820 519 883 535 c 1,34,-1
 852 392 l 1,35,36
 770 392 770 392 697 377 c 1,37,38
 724 251 724 251 783 198 c 0,39,40
 815 168 815 168 862 153.5 c 128,-1,41
 909 139 909 139 971 139 c 2,42,-1
 990 139 l 2,43,44
 1017 139 1017 139 1023 110 c 2,45,-1
 1042 24 l 2,46,47
 1046 0 1046 0 1020 0 c 2,48,-1
 1001 0 l 2,49,50
 712 0 712 0 655 275 c 0,51,52
 652 289 652 289 648.5 312.5 c 128,-1,53
 645 336 645 336 641 368 c 1,54,55
 546 348 546 348 467.5 307 c 128,-1,56
 389 266 389 266 326 202 c 0,57,58
 193 70 193 70 224 -81 c 0,59,60
 257 -229 257 -229 420 -317 c 0,61,62
 576 -404 576 -404 799 -404 c 0,63,64
 860 -404 860 -404 942.5 -395.5 c 128,-1,65
 1025 -387 1025 -387 1129 -370 c 1,66,-1
 1055 -483 l 1,0,1
EndSplineSet
EndChar

StartChar: afii62774
Encoding: 65187 65187 271
Width: 898
GlyphClass: 2
Flags: W
AnchorPoint: "Anchor-3" 285 -450 basechar 0
AnchorPoint: "Anchor-2" 210 900 basechar 0
LayerCount: 2
Fore
SplineSet
757 175 m 1,0,1
 706 189 706 189 657 189 c 0,2,3
 589 189 589 189 423 108 c 0,4,5
 204 0 204 0 9 0 c 2,6,-1
 -11 0 l 2,7,8
 -36 0 -36 0 -40 24 c 2,9,-1
 -59 110 l 2,10,11
 -65 139 -65 139 -40 139 c 2,12,-1
 -20 139 l 2,13,14
 50 139 50 139 133 152.5 c 128,-1,15
 216 166 216 166 312 194 c 2,16,-1
 505 258 l 1,17,-1
 504 261 l 1,18,19
 437 281 437 281 261 397 c 0,20,21
 106 499 106 499 67 499 c 0,22,23
 37 499 37 499 0 395 c 1,24,25
 -23 398 -23 398 -53 422 c 1,26,-1
 0 575 l 2,27,28
 23 638 23 638 75 638 c 0,29,30
 98 638 98 638 175.5 593.5 c 128,-1,31
 253 549 253 549 385 461 c 256,32,33
 517 373 517 373 602 337 c 0,34,35
 695 299 695 299 808 299 c 1,36,-1
 757 175 l 1,0,1
EndSplineSet
EndChar

StartChar: afii62775
Encoding: 65188 65188 272
Width: 1101
GlyphClass: 2
Flags: W
AnchorPoint: "Anchor-3" 480 -420 basechar 0
AnchorPoint: "Anchor-2" 375 960 basechar 0
LayerCount: 2
Fore
SplineSet
1132 24 m 1,0,1
 1136 0 1136 0 1112 0 c 0,2,3
 769 0 769 0 715 254 c 0,4,5
 709 281 709 281 704.5 303.5 c 128,-1,6
 700 326 700 326 700 346 c 1,7,8
 683 336 683 336 657.5 315.5 c 128,-1,9
 632 295 632 295 600.5 268 c 128,-1,10
 569 241 569 241 533 210 c 128,-1,11
 497 179 497 179 458 148 c 0,12,13
 365 73 365 73 253 36.5 c 128,-1,14
 141 0 141 0 -2 0 c 2,15,-1
 -11 0 l 2,16,17
 -36 0 -36 0 -40 24 c 2,18,-1
 -59 110 l 2,19,20
 -65 139 -65 139 -40 139 c 2,21,-1
 -31 139 l 2,22,23
 83 139 83 139 183.5 165 c 128,-1,24
 284 191 284 191 373 249 c 0,25,26
 414 276 414 276 443.5 295.5 c 128,-1,27
 473 315 473 315 493.5 329 c 128,-1,28
 514 343 514 343 528.5 351.5 c 128,-1,29
 543 360 543 360 554 366 c 1,30,-1
 554 370 l 1,31,32
 542 370 542 370 524.5 372.5 c 128,-1,33
 507 375 507 375 481 381.5 c 128,-1,34
 455 388 455 388 416.5 400.5 c 128,-1,35
 378 413 378 413 324 433 c 0,36,37
 108 514 108 514 93 514 c 0,38,39
 59 514 59 514 37 392 c 1,40,41
 12 392 12 392 -20 413 c 1,42,-1
 19 571 l 2,43,44
 37 650 37 650 90 650 c 0,45,46
 105 650 105 650 142 638.5 c 128,-1,47
 179 627 179 627 238 604 c 0,48,49
 315 572 315 572 364.5 552.5 c 128,-1,50
 414 533 414 533 452 523 c 0,51,52
 599 474 599 474 712 474 c 0,53,54
 757 474 757 474 814 482.5 c 128,-1,55
 871 491 871 491 944 509 c 1,56,-1
 912 364 l 1,57,58
 856 363 856 363 817 360 c 128,-1,59
 778 357 778 357 756 351 c 1,60,61
 765 316 765 316 774.5 291.5 c 128,-1,62
 784 267 784 267 795 248.5 c 128,-1,63
 806 230 806 230 818.5 216 c 128,-1,64
 831 202 831 202 847 189 c 0,65,66
 912 139 912 139 1062 139 c 2,67,-1
 1082 139 l 2,68,69
 1107 139 1107 139 1113 110 c 2,70,-1
 1132 24 l 1,71,-1
 1132 24 l 1,0,1
EndSplineSet
EndChar

StartChar: afii57423
Encoding: 1583 1583 277
Width: 682
GlyphClass: 2
Flags: W
AnchorPoint: "Anchor-3" 270 -465 basechar 0
AnchorPoint: "Anchor-2" 120 1065 basechar 0
LayerCount: 2
Fore
SplineSet
575 299 m 0,0,1
 583 260 583 260 581.5 205.5 c 128,-1,2
 580 151 580 151 569 79 c 1,3,4
 525 44 525 44 435 20 c 0,5,6
 382 5 382 5 331.5 -3 c 128,-1,7
 281 -11 281 -11 230 -11 c 0,8,9
 170 -11 170 -11 113 7 c 1,10,11
 104 41 104 41 98 64 c 128,-1,12
 92 87 92 87 90 98 c 0,13,14
 85 116 85 116 82.5 148 c 128,-1,15
 80 180 80 180 77 225 c 1,16,17
 84 227 84 227 89.5 228 c 128,-1,18
 95 229 95 229 99 229 c 0,19,20
 106 229 106 229 112.5 226.5 c 128,-1,21
 119 224 119 224 127 220 c 1,22,-1
 133 193 l 2,23,24
 136 177 136 177 140 165 c 128,-1,25
 144 153 144 153 146 146 c 1,26,27
 191 128 191 128 242 128 c 0,28,29
 279 128 279 128 319 135 c 128,-1,30
 359 142 359 142 407 157 c 0,31,32
 486 181 486 181 517 205 c 1,33,34
 486 351 486 351 384.5 458.5 c 128,-1,35
 283 566 283 566 108 640 c 1,36,-1
 114 800 l 1,37,38
 509 611 509 611 575 299 c 0,0,1
EndSplineSet
Substitution2: "'fina' Terminal Forms in Arabic lookup 3 subtable" afii62780
PairPos2: "'kern' Horizontal Kerning in Arabic lookup 0 subtable" uni06B7.init dx=-50 dy=0 dh=-50 dv=0 dx=0 dy=0 dh=0 dv=0
PairPos2: "'kern' Horizontal Kerning in Arabic lookup 0 subtable" uni06B6.init dx=-50 dy=0 dh=-50 dv=0 dx=0 dy=0 dh=0 dv=0
PairPos2: "'kern' Horizontal Kerning in Arabic lookup 0 subtable" uni06B5.init dx=-50 dy=0 dh=-50 dv=0 dx=0 dy=0 dh=0 dv=0
PairPos2: "'kern' Horizontal Kerning in Arabic lookup 0 subtable" uni06B4.init dx=-100 dy=0 dh=-100 dv=0 dx=0 dy=0 dh=0 dv=0
PairPos2: "'kern' Horizontal Kerning in Arabic lookup 0 subtable" uni06B4 dx=-100 dy=0 dh=-100 dv=0 dx=0 dy=0 dh=0 dv=0
PairPos2: "'kern' Horizontal Kerning in Arabic lookup 0 subtable" uniFB98 dx=-100 dy=0 dh=-100 dv=0 dx=0 dy=0 dh=0 dv=0
PairPos2: "'kern' Horizontal Kerning in Arabic lookup 0 subtable" uni06B3 dx=-100 dy=0 dh=-100 dv=0 dx=0 dy=0 dh=0 dv=0
PairPos2: "'kern' Horizontal Kerning in Arabic lookup 0 subtable" uni06B2.init dx=-100 dy=0 dh=-100 dv=0 dx=0 dy=0 dh=0 dv=0
PairPos2: "'kern' Horizontal Kerning in Arabic lookup 0 subtable" uniFB9C dx=-100 dy=0 dh=-100 dv=0 dx=0 dy=0 dh=0 dv=0
PairPos2: "'kern' Horizontal Kerning in Arabic lookup 0 subtable" uni06B1 dx=-100 dy=0 dh=-100 dv=0 dx=0 dy=0 dh=0 dv=0
PairPos2: "'kern' Horizontal Kerning in Arabic lookup 0 subtable" uni06B0.init dx=-100 dy=0 dh=-100 dv=0 dx=0 dy=0 dh=0 dv=0
PairPos2: "'kern' Horizontal Kerning in Arabic lookup 0 subtable" uni06B0 dx=-100 dy=0 dh=-100 dv=0 dx=0 dy=0 dh=0 dv=0
PairPos2: "'kern' Horizontal Kerning in Arabic lookup 0 subtable" uni06AE.init dx=-150 dy=0 dh=-150 dv=0 dx=0 dy=0 dh=0 dv=0
PairPos2: "'kern' Horizontal Kerning in Arabic lookup 0 subtable" uni06AE dx=-50 dy=0 dh=-50 dv=0 dx=0 dy=0 dh=0 dv=0
PairPos2: "'kern' Horizontal Kerning in Arabic lookup 0 subtable" uniFBD5 dx=-150 dy=0 dh=-150 dv=0 dx=0 dy=0 dh=0 dv=0
PairPos2: "'kern' Horizontal Kerning in Arabic lookup 0 subtable" uni06AD dx=-50 dy=0 dh=-50 dv=0 dx=0 dy=0 dh=0 dv=0
PairPos2: "'kern' Horizontal Kerning in Arabic lookup 0 subtable" uni06AB.init dx=-150 dy=0 dh=-150 dv=0 dx=0 dy=0 dh=0 dv=0
PairPos2: "'kern' Horizontal Kerning in Arabic lookup 0 subtable" uni06AB dx=-50 dy=0 dh=-50 dv=0 dx=0 dy=0 dh=0 dv=0
PairPos2: "'kern' Horizontal Kerning in Arabic lookup 0 subtable" uni06AB.init dx=-150 dy=0 dh=-150 dv=0 dx=0 dy=0 dh=0 dv=0
PairPos2: "'kern' Horizontal Kerning in Arabic lookup 0 subtable" uni06AB.001 dx=-100 dy=0 dh=-100 dv=0 dx=0 dy=0 dh=0 dv=0
PairPos2: "'kern' Horizontal Kerning in Arabic lookup 0 subtable" afii62840 dx=-130 dy=0 dh=-130 dv=0 dx=0 dy=0 dh=0 dv=0
PairPos2: "'kern' Horizontal Kerning in Arabic lookup 0 subtable" afii62838 dx=-130 dy=0 dh=-130 dv=0 dx=0 dy=0 dh=0 dv=0
PairPos2: "'kern' Horizontal Kerning in Arabic lookup 0 subtable" afii62836 dx=-130 dy=0 dh=-130 dv=0 dx=0 dy=0 dh=0 dv=0
PairPos2: "'kern' Horizontal Kerning in Arabic lookup 0 subtable" afii62834 dx=-130 dy=0 dh=-130 dv=0 dx=0 dy=0 dh=0 dv=0
PairPos2: "'kern' Horizontal Kerning in Arabic lookup 0 subtable" afii62817 dx=-50 dy=0 dh=-50 dv=0 dx=0 dy=0 dh=0 dv=0
PairPos2: "'kern' Horizontal Kerning in Arabic lookup 0 subtable" afii57410 dx=-150 dy=0 dh=-150 dv=0 dx=0 dy=0 dh=0 dv=0
PairPos2: "'kern' Horizontal Kerning in Arabic lookup 0 subtable" afii57443 dx=-50 dy=0 dh=-50 dv=0 dx=0 dy=0 dh=0 dv=0
PairPos2: "'kern' Horizontal Kerning in Arabic lookup 0 subtable" afii62965 dx=-100 dy=0 dh=-100 dv=0 dx=0 dy=0 dh=0 dv=0
PairPos2: "'kern' Horizontal Kerning in Arabic lookup 0 subtable" afii57509 dx=-100 dy=0 dh=-100 dv=0 dx=0 dy=0 dh=0 dv=0
PairPos2: "'kern' Horizontal Kerning in Arabic lookup 0 subtable" afii52305 dx=-150 dy=0 dh=-150 dv=0 dx=0 dy=0 dh=0 dv=0
PairPos2: "'kern' Horizontal Kerning in Arabic lookup 0 subtable" afii57567 dx=-100 dy=0 dh=-100 dv=0 dx=0 dy=0 dh=0 dv=0
EndChar

